<?xml version="1.0" encoding="UTF-8"?>
<svg xmlns="http://www.w3.org/2000/svg" xmlns:xlink="http://www.w3.org/1999/xlink" width="720pt" height="360pt" viewBox="0 0 720 360" version="1.1">
<defs>
<clipPath id="clip1">
  <path d="M 79 9.960938 L 82 9.960938 L 82 325.324219 L 79 325.324219 Z M 79 9.960938 "/>
</clipPath>
<clipPath id="clip2">
  <path d="M 234 9.960938 L 237 9.960938 L 237 325.324219 L 234 325.324219 Z M 234 9.960938 "/>
</clipPath>
<clipPath id="clip3">
  <path d="M 389 9.960938 L 392 9.960938 L 392 325.324219 L 389 325.324219 Z M 389 9.960938 "/>
</clipPath>
<clipPath id="clip4">
  <path d="M 544 9.960938 L 547 9.960938 L 547 325.324219 L 544 325.324219 Z M 544 9.960938 "/>
</clipPath>
<clipPath id="clip5">
  <path d="M 698 9.960938 L 701 9.960938 L 701 325.324219 L 698 325.324219 Z M 698 9.960938 "/>
</clipPath>
</defs>
<g id="surface55">
<rect x="0" y="0" width="720" height="360" style="fill:rgb(100%,100%,100%);fill-opacity:1;stroke:none;"/>
<g clip-path="url(#clip1)" clip-rule="nonzero">
<path style="fill:none;stroke-width:1.939961;stroke-linecap:butt;stroke-linejoin:round;stroke:rgb(92.156863%,92.156863%,92.156863%);stroke-opacity:1;stroke-miterlimit:10;" d="M 80.886719 325.328125 L 80.886719 9.960938 "/>
</g>
<g clip-path="url(#clip2)" clip-rule="nonzero">
<path style="fill:none;stroke-width:1.939961;stroke-linecap:butt;stroke-linejoin:round;stroke:rgb(92.156863%,92.156863%,92.156863%);stroke-opacity:1;stroke-miterlimit:10;" d="M 235.625 325.328125 L 235.625 9.960938 "/>
</g>
<g clip-path="url(#clip3)" clip-rule="nonzero">
<path style="fill:none;stroke-width:1.939961;stroke-linecap:butt;stroke-linejoin:round;stroke:rgb(92.156863%,92.156863%,92.156863%);stroke-opacity:1;stroke-miterlimit:10;" d="M 390.359375 325.328125 L 390.359375 9.960938 "/>
</g>
<g clip-path="url(#clip4)" clip-rule="nonzero">
<path style="fill:none;stroke-width:1.939961;stroke-linecap:butt;stroke-linejoin:round;stroke:rgb(92.156863%,92.156863%,92.156863%);stroke-opacity:1;stroke-miterlimit:10;" d="M 545.09375 325.328125 L 545.09375 9.960938 "/>
</g>
<g clip-path="url(#clip5)" clip-rule="nonzero">
<path style="fill:none;stroke-width:1.939961;stroke-linecap:butt;stroke-linejoin:round;stroke:rgb(92.156863%,92.156863%,92.156863%);stroke-opacity:1;stroke-miterlimit:10;" d="M 699.832031 325.328125 L 699.832031 9.960938 "/>
</g>
<path style=" stroke:none;fill-rule:nonzero;fill:rgb(74.509804%,74.509804%,74.509804%);fill-opacity:1;" d="M 80.886719 113.441406 L 309.183594 113.441406 L 309.183594 69.09375 L 80.886719 69.09375 Z M 80.886719 113.441406 "/>
<path style=" stroke:none;fill-rule:nonzero;fill:rgb(85.490196%,31.372549%,9.803922%);fill-opacity:1;" d="M 80.886719 69.09375 L 680.074219 69.09375 L 680.074219 24.746094 L 80.886719 24.746094 Z M 80.886719 69.09375 "/>
<path style=" stroke:none;fill-rule:nonzero;fill:rgb(74.509804%,74.509804%,74.509804%);fill-opacity:1;" d="M 80.886719 211.992188 L 178.3125 211.992188 L 178.3125 167.644531 L 80.886719 167.644531 Z M 80.886719 211.992188 "/>
<path style=" stroke:none;fill-rule:nonzero;fill:rgb(85.490196%,31.372549%,9.803922%);fill-opacity:1;" d="M 80.886719 167.644531 L 650.964844 167.644531 L 650.964844 123.296875 L 80.886719 123.296875 Z M 80.886719 167.644531 "/>
<path style=" stroke:none;fill-rule:nonzero;fill:rgb(74.509804%,74.509804%,74.509804%);fill-opacity:1;" d="M 80.886719 310.542969 L 164.71875 310.542969 L 164.71875 266.195312 L 80.886719 266.195312 Z M 80.886719 310.542969 "/>
<path style=" stroke:none;fill-rule:nonzero;fill:rgb(85.490196%,31.372549%,9.803922%);fill-opacity:1;" d="M 80.886719 266.195312 L 390.359375 266.195312 L 390.359375 221.847656 L 80.886719 221.847656 Z M 80.886719 266.195312 "/>
<path style=" stroke:none;fill-rule:nonzero;fill:rgb(30.196078%,30.196078%,30.196078%);fill-opacity:1;" d="M 11.980469 260.226562 L 11.980469 261.414062 L 23.980469 261.414062 L 23.980469 260.226562 Z M 13.003906 265.414062 L 13.003906 266.613281 L 22.730469 266.613281 L 22.730469 265.414062 Z M 11.066406 270.933594 L 11.066406 272.132812 L 24.84375 272.132812 L 24.84375 270.933594 Z M 11.066406 270.933594 "/>
<path style=" stroke:none;fill-rule:nonzero;fill:rgb(30.196078%,30.196078%,30.196078%);fill-opacity:1;" d="M 29.707031 261.027344 L 29.878906 261.402344 L 29.960938 261.597656 L 30.117188 261.980469 L 30.1875 262.167969 L 30.25 262.347656 L 30.308594 262.523438 L 30.355469 262.683594 L 30.394531 262.835938 L 31.433594 262.453125 L 31.40625 262.335938 L 31.371094 262.210938 L 31.328125 262.074219 L 31.277344 261.933594 L 31.21875 261.789062 L 31.160156 261.636719 L 31.09375 261.484375 L 31.023438 261.332031 L 30.875 261.027344 L 33.769531 261.027344 L 33.769531 260.019531 L 29.609375 260.019531 L 29.667969 259.910156 L 29.722656 259.800781 L 29.773438 259.6875 L 29.828125 259.578125 L 29.875 259.464844 L 29.925781 259.355469 L 30.019531 259.128906 L 30.0625 259.015625 L 30.105469 258.898438 L 28.988281 258.613281 L 28.8125 259.03125 L 28.621094 259.445312 L 28.410156 259.855469 L 28.179688 260.257812 L 27.9375 260.648438 L 27.683594 261.023438 L 27.414062 261.382812 L 27.136719 261.722656 L 26.847656 262.035156 L 26.554688 262.324219 L 26.640625 262.378906 L 26.742188 262.4375 L 26.847656 262.507812 L 27.066406 262.65625 L 27.175781 262.734375 L 27.28125 262.808594 L 27.375 262.882812 L 27.460938 262.949219 L 27.53125 263.011719 L 27.691406 262.84375 L 27.851562 262.667969 L 28.011719 262.484375 L 28.167969 262.296875 L 28.320312 262.097656 L 28.46875 261.894531 L 28.757812 261.472656 L 28.898438 261.25 L 29.035156 261.027344 Z M 29.578125 270.019531 L 29.890625 270.234375 L 30.203125 270.46875 L 30.515625 270.714844 L 30.820312 270.96875 L 31.113281 271.226562 L 31.394531 271.488281 L 31.652344 271.746094 L 31.890625 271.996094 L 32.09375 272.238281 L 32.265625 272.46875 L 33.179688 271.714844 L 33 271.488281 L 32.789062 271.25 L 32.546875 271 L 32.277344 270.75 L 31.992188 270.496094 L 31.6875 270.246094 L 31.378906 270.003906 L 31.0625 269.769531 L 30.75 269.550781 L 30.441406 269.347656 Z M 41.195312 266.882812 L 41.195312 265.84375 L 34.539062 265.84375 L 34.539062 264.421875 L 39.691406 264.421875 L 39.691406 263.414062 L 34.539062 263.414062 L 34.539062 262.308594 L 34.28125 262.308594 L 34.386719 262.195312 L 34.492188 262.078125 L 34.59375 261.957031 L 34.695312 261.832031 L 34.796875 261.703125 L 34.894531 261.574219 L 34.992188 261.441406 L 35.089844 261.304688 L 35.183594 261.167969 L 35.273438 261.027344 L 36.363281 261.027344 L 36.507812 261.214844 L 36.648438 261.410156 L 36.914062 261.808594 L 37.035156 262.011719 L 37.152344 262.207031 L 37.253906 262.402344 L 37.34375 262.589844 L 37.421875 262.765625 L 37.484375 262.933594 L 38.507812 262.484375 L 38.449219 262.359375 L 38.382812 262.226562 L 38.308594 262.085938 L 38.226562 261.941406 L 38.136719 261.792969 L 38.042969 261.640625 L 37.945312 261.484375 L 37.84375 261.332031 L 37.625 261.027344 L 41.035156 261.027344 L 41.035156 260.019531 L 35.851562 260.019531 L 35.960938 259.792969 L 36.011719 259.675781 L 36.0625 259.5625 L 36.15625 259.335938 L 36.199219 259.222656 L 36.242188 259.105469 L 36.289062 258.988281 L 36.332031 258.867188 L 35.195312 258.613281 L 35.046875 259.007812 L 34.878906 259.402344 L 34.6875 259.785156 L 34.476562 260.164062 L 34.25 260.527344 L 34.003906 260.875 L 33.746094 261.207031 L 33.476562 261.515625 L 33.195312 261.804688 L 32.90625 262.066406 L 32.9375 262.089844 L 32.972656 262.109375 L 33.011719 262.132812 L 33.097656 262.1875 L 33.191406 262.242188 L 33.242188 262.273438 L 33.289062 262.308594 L 33.339844 262.339844 L 33.339844 263.414062 L 28.347656 263.414062 L 28.347656 264.421875 L 33.339844 264.421875 L 33.339844 265.84375 L 26.777344 265.84375 L 26.777344 266.882812 L 36.585938 266.882812 L 36.585938 268.292969 L 27.289062 268.292969 L 27.289062 269.332031 L 36.585938 269.332031 L 36.585938 271.9375 L 36.578125 271.992188 L 36.566406 272.039062 L 36.546875 272.074219 L 36.519531 272.105469 L 36.484375 272.128906 L 36.4375 272.144531 L 36.382812 272.15625 L 36.316406 272.164062 L 36.234375 272.164062 L 36.128906 272.171875 L 35.988281 272.179688 L 35.8125 272.183594 L 35.605469 272.1875 L 35.117188 272.1875 L 34.839844 272.183594 L 34.546875 272.179688 L 34.234375 272.171875 L 33.914062 272.164062 L 33.96875 272.265625 L 34.019531 272.371094 L 34.074219 272.480469 L 34.125 272.59375 L 34.21875 272.828125 L 34.257812 272.949219 L 34.292969 273.0625 L 34.324219 273.175781 L 34.347656 273.285156 L 34.730469 273.285156 L 35.089844 273.28125 L 35.421875 273.277344 L 35.730469 273.265625 L 36.015625 273.253906 L 36.273438 273.234375 L 36.511719 273.210938 L 36.722656 273.179688 L 36.914062 273.140625 L 37.082031 273.09375 L 37.234375 273.03125 L 37.363281 272.960938 L 37.472656 272.882812 L 37.566406 272.789062 L 37.636719 272.683594 L 37.695312 272.5625 L 37.738281 272.425781 L 37.765625 272.269531 L 37.78125 272.089844 L 37.785156 271.890625 L 37.785156 269.332031 L 40.777344 269.332031 L 40.777344 268.292969 L 37.785156 268.292969 L 37.785156 266.882812 Z M 41.195312 266.882812 "/>
<path style=" stroke:none;fill-rule:nonzero;fill:rgb(30.196078%,30.196078%,30.196078%);fill-opacity:1;" d="M 12.265625 162.429688 L 12.265625 163.691406 L 23.675781 163.691406 L 23.675781 162.429688 Z M 10.921875 171.851562 L 10.921875 173.148438 L 25.019531 173.148438 L 25.019531 171.851562 Z M 10.921875 171.851562 "/>
<path style=" stroke:none;fill-rule:nonzero;fill:rgb(30.196078%,30.196078%,30.196078%);fill-opacity:1;" d="M 29.707031 162.476562 L 29.878906 162.851562 L 29.960938 163.042969 L 30.039062 163.238281 L 30.117188 163.429688 L 30.1875 163.617188 L 30.25 163.796875 L 30.308594 163.972656 L 30.355469 164.132812 L 30.394531 164.285156 L 31.433594 163.902344 L 31.40625 163.785156 L 31.371094 163.660156 L 31.328125 163.523438 L 31.277344 163.382812 L 31.21875 163.238281 L 31.160156 163.085938 L 31.09375 162.933594 L 31.023438 162.78125 L 30.875 162.476562 L 33.769531 162.476562 L 33.769531 161.46875 L 29.609375 161.46875 L 29.667969 161.359375 L 29.722656 161.246094 L 29.773438 161.136719 L 29.828125 161.027344 L 29.875 160.914062 L 29.925781 160.804688 L 30.019531 160.578125 L 30.0625 160.464844 L 30.105469 160.347656 L 28.988281 160.0625 L 28.8125 160.476562 L 28.621094 160.894531 L 28.410156 161.304688 L 28.179688 161.707031 L 27.9375 162.097656 L 27.683594 162.472656 L 27.414062 162.832031 L 27.136719 163.171875 L 26.847656 163.484375 L 26.554688 163.773438 L 26.640625 163.824219 L 26.742188 163.886719 L 26.847656 163.957031 L 26.957031 164.027344 L 27.175781 164.183594 L 27.28125 164.257812 L 27.375 164.332031 L 27.460938 164.398438 L 27.53125 164.460938 L 27.691406 164.292969 L 27.851562 164.117188 L 28.011719 163.933594 L 28.167969 163.742188 L 28.320312 163.546875 L 28.46875 163.34375 L 28.613281 163.132812 L 28.757812 162.917969 L 28.898438 162.699219 L 29.035156 162.476562 Z M 29.578125 171.46875 L 29.890625 171.683594 L 30.203125 171.917969 L 30.515625 172.160156 L 30.820312 172.414062 L 31.113281 172.675781 L 31.394531 172.933594 L 31.652344 173.195312 L 31.890625 173.445312 L 32.09375 173.6875 L 32.265625 173.917969 L 33.179688 173.164062 L 33 172.9375 L 32.789062 172.699219 L 32.546875 172.449219 L 32.277344 172.199219 L 31.992188 171.945312 L 31.6875 171.695312 L 31.378906 171.453125 L 31.0625 171.21875 L 30.75 171 L 30.441406 170.796875 Z M 41.195312 168.332031 L 41.195312 167.292969 L 34.539062 167.292969 L 34.539062 165.867188 L 39.691406 165.867188 L 39.691406 164.859375 L 34.539062 164.859375 L 34.539062 163.757812 L 34.28125 163.757812 L 34.386719 163.644531 L 34.492188 163.527344 L 34.59375 163.40625 L 34.695312 163.28125 L 34.796875 163.152344 L 34.894531 163.023438 L 34.992188 162.886719 L 35.089844 162.753906 L 35.183594 162.617188 L 35.273438 162.476562 L 36.363281 162.476562 L 36.507812 162.664062 L 36.648438 162.859375 L 36.78125 163.054688 L 36.914062 163.257812 L 37.035156 163.457031 L 37.152344 163.65625 L 37.253906 163.851562 L 37.34375 164.039062 L 37.421875 164.214844 L 37.484375 164.378906 L 38.507812 163.933594 L 38.449219 163.808594 L 38.382812 163.675781 L 38.308594 163.535156 L 38.226562 163.390625 L 38.136719 163.242188 L 38.042969 163.089844 L 37.945312 162.933594 L 37.84375 162.78125 L 37.625 162.476562 L 41.035156 162.476562 L 41.035156 161.46875 L 35.851562 161.46875 L 35.90625 161.355469 L 35.960938 161.238281 L 36.0625 161.011719 L 36.15625 160.785156 L 36.199219 160.667969 L 36.242188 160.554688 L 36.289062 160.4375 L 36.332031 160.316406 L 35.195312 160.0625 L 35.046875 160.457031 L 34.878906 160.851562 L 34.6875 161.234375 L 34.476562 161.613281 L 34.25 161.976562 L 34.003906 162.324219 L 33.746094 162.65625 L 33.476562 162.964844 L 33.195312 163.253906 L 32.90625 163.515625 L 32.9375 163.535156 L 32.972656 163.558594 L 33.011719 163.582031 L 33.097656 163.636719 L 33.191406 163.691406 L 33.242188 163.722656 L 33.289062 163.753906 L 33.339844 163.789062 L 33.339844 164.859375 L 28.347656 164.859375 L 28.347656 165.867188 L 33.339844 165.867188 L 33.339844 167.292969 L 26.777344 167.292969 L 26.777344 168.332031 L 36.585938 168.332031 L 36.585938 169.742188 L 27.289062 169.742188 L 27.289062 170.78125 L 36.585938 170.78125 L 36.585938 173.386719 L 36.578125 173.441406 L 36.566406 173.484375 L 36.546875 173.523438 L 36.519531 173.554688 L 36.484375 173.574219 L 36.4375 173.59375 L 36.382812 173.605469 L 36.316406 173.609375 L 36.234375 173.613281 L 36.128906 173.621094 L 35.988281 173.628906 L 35.8125 173.632812 L 35.605469 173.636719 L 35.117188 173.636719 L 34.839844 173.632812 L 34.546875 173.628906 L 34.234375 173.621094 L 33.914062 173.613281 L 33.96875 173.710938 L 34.019531 173.820312 L 34.074219 173.929688 L 34.125 174.042969 L 34.21875 174.277344 L 34.257812 174.394531 L 34.292969 174.511719 L 34.324219 174.625 L 34.347656 174.734375 L 34.730469 174.730469 L 35.089844 174.730469 L 35.421875 174.722656 L 35.730469 174.714844 L 36.015625 174.703125 L 36.273438 174.683594 L 36.511719 174.660156 L 36.722656 174.628906 L 36.914062 174.589844 L 37.082031 174.539062 L 37.234375 174.480469 L 37.363281 174.410156 L 37.472656 174.328125 L 37.566406 174.238281 L 37.636719 174.132812 L 37.695312 174.011719 L 37.738281 173.875 L 37.765625 173.71875 L 37.78125 173.539062 L 37.785156 173.339844 L 37.785156 170.78125 L 40.777344 170.78125 L 40.777344 169.742188 L 37.785156 169.742188 L 37.785156 168.332031 Z M 41.195312 168.332031 "/>
<path style=" stroke:none;fill-rule:nonzero;fill:rgb(30.196078%,30.196078%,30.196078%);fill-opacity:1;" d="M 10.730469 68.085938 L 10.730469 69.382812 L 25.257812 69.382812 L 25.257812 68.085938 Z M 10.730469 68.085938 "/>
<path style=" stroke:none;fill-rule:nonzero;fill:rgb(30.196078%,30.196078%,30.196078%);fill-opacity:1;" d="M 29.707031 63.925781 L 29.792969 64.109375 L 29.878906 64.300781 L 29.960938 64.492188 L 30.039062 64.6875 L 30.117188 64.878906 L 30.1875 65.066406 L 30.25 65.246094 L 30.308594 65.417969 L 30.355469 65.582031 L 30.394531 65.734375 L 31.433594 65.347656 L 31.40625 65.234375 L 31.371094 65.109375 L 31.328125 64.972656 L 31.277344 64.832031 L 31.160156 64.535156 L 31.09375 64.382812 L 31.023438 64.230469 L 30.949219 64.074219 L 30.875 63.925781 L 33.769531 63.925781 L 33.769531 62.917969 L 29.609375 62.917969 L 29.667969 62.808594 L 29.722656 62.695312 L 29.773438 62.585938 L 29.828125 62.476562 L 29.875 62.363281 L 29.925781 62.25 L 29.972656 62.140625 L 30.019531 62.027344 L 30.0625 61.914062 L 30.105469 61.796875 L 28.988281 61.507812 L 28.8125 61.925781 L 28.621094 62.34375 L 28.410156 62.753906 L 28.179688 63.15625 L 27.9375 63.546875 L 27.683594 63.921875 L 27.414062 64.28125 L 27.136719 64.617188 L 26.847656 64.933594 L 26.554688 65.222656 L 26.640625 65.273438 L 26.742188 65.335938 L 26.847656 65.40625 L 26.957031 65.476562 L 27.066406 65.554688 L 27.175781 65.628906 L 27.28125 65.707031 L 27.375 65.78125 L 27.460938 65.847656 L 27.53125 65.910156 L 27.691406 65.742188 L 27.851562 65.566406 L 28.011719 65.382812 L 28.167969 65.191406 L 28.320312 64.996094 L 28.46875 64.792969 L 28.613281 64.582031 L 28.757812 64.367188 L 28.898438 64.148438 L 29.035156 63.925781 Z M 29.578125 72.917969 L 29.890625 73.132812 L 30.203125 73.367188 L 30.515625 73.609375 L 30.820312 73.863281 L 31.113281 74.125 L 31.394531 74.382812 L 31.652344 74.640625 L 31.890625 74.894531 L 32.09375 75.136719 L 32.265625 75.367188 L 33.179688 74.613281 L 33 74.386719 L 32.789062 74.144531 L 32.546875 73.898438 L 32.277344 73.644531 L 31.992188 73.394531 L 31.6875 73.144531 L 31.378906 72.898438 L 31.0625 72.667969 L 30.75 72.449219 L 30.441406 72.246094 Z M 41.195312 69.78125 L 41.195312 68.742188 L 34.539062 68.742188 L 34.539062 67.316406 L 39.691406 67.316406 L 39.691406 66.308594 L 34.539062 66.308594 L 34.539062 65.207031 L 34.28125 65.207031 L 34.386719 65.09375 L 34.492188 64.976562 L 34.59375 64.855469 L 34.695312 64.730469 L 34.796875 64.601562 L 35.089844 64.203125 L 35.183594 64.0625 L 35.273438 63.925781 L 36.363281 63.925781 L 36.507812 64.113281 L 36.648438 64.304688 L 36.78125 64.503906 L 36.914062 64.707031 L 37.035156 64.90625 L 37.152344 65.105469 L 37.253906 65.300781 L 37.34375 65.488281 L 37.421875 65.664062 L 37.484375 65.828125 L 38.507812 65.382812 L 38.449219 65.257812 L 38.382812 65.125 L 38.308594 64.984375 L 38.226562 64.839844 L 38.136719 64.691406 L 38.042969 64.535156 L 37.945312 64.382812 L 37.84375 64.230469 L 37.734375 64.074219 L 37.625 63.925781 L 41.035156 63.925781 L 41.035156 62.917969 L 35.851562 62.917969 L 35.90625 62.800781 L 35.960938 62.6875 L 36.0625 62.460938 L 36.15625 62.234375 L 36.199219 62.117188 L 36.242188 62.003906 L 36.289062 61.882812 L 36.332031 61.765625 L 35.195312 61.507812 L 35.046875 61.90625 L 34.878906 62.300781 L 34.6875 62.683594 L 34.476562 63.058594 L 34.25 63.421875 L 34.003906 63.773438 L 33.746094 64.101562 L 33.476562 64.414062 L 33.195312 64.703125 L 32.90625 64.964844 L 32.9375 64.984375 L 32.972656 65.007812 L 33.011719 65.03125 L 33.054688 65.054688 L 33.097656 65.082031 L 33.144531 65.113281 L 33.191406 65.140625 L 33.242188 65.171875 L 33.289062 65.203125 L 33.339844 65.238281 L 33.339844 66.308594 L 28.347656 66.308594 L 28.347656 67.316406 L 33.339844 67.316406 L 33.339844 68.742188 L 26.777344 68.742188 L 26.777344 69.78125 L 36.585938 69.78125 L 36.585938 71.191406 L 27.289062 71.191406 L 27.289062 72.230469 L 36.585938 72.230469 L 36.585938 74.835938 L 36.578125 74.890625 L 36.566406 74.933594 L 36.546875 74.972656 L 36.519531 75 L 36.484375 75.023438 L 36.4375 75.042969 L 36.382812 75.054688 L 36.316406 75.058594 L 36.234375 75.0625 L 36.128906 75.070312 L 35.988281 75.078125 L 35.8125 75.082031 L 35.605469 75.085938 L 35.117188 75.085938 L 34.839844 75.082031 L 34.546875 75.078125 L 34.234375 75.070312 L 33.914062 75.0625 L 33.96875 75.160156 L 34.019531 75.265625 L 34.074219 75.378906 L 34.125 75.492188 L 34.21875 75.726562 L 34.257812 75.84375 L 34.292969 75.960938 L 34.324219 76.074219 L 34.347656 76.179688 L 35.089844 76.179688 L 35.421875 76.171875 L 35.730469 76.164062 L 36.015625 76.152344 L 36.273438 76.132812 L 36.511719 76.109375 L 36.722656 76.078125 L 36.914062 76.039062 L 37.082031 75.988281 L 37.234375 75.929688 L 37.363281 75.859375 L 37.472656 75.777344 L 37.566406 75.6875 L 37.636719 75.582031 L 37.695312 75.460938 L 37.738281 75.324219 L 37.765625 75.167969 L 37.78125 74.988281 L 37.785156 74.789062 L 37.785156 72.230469 L 40.777344 72.230469 L 40.777344 71.191406 L 37.785156 71.191406 L 37.785156 69.78125 Z M 41.195312 69.78125 "/>
<path style=" stroke:none;fill-rule:nonzero;fill:rgb(30.196078%,30.196078%,30.196078%);fill-opacity:1;" d="M 73.527344 346.246094 L 74.171875 346.183594 L 74.761719 346 L 75.296875 345.695312 L 75.773438 345.269531 L 76.1875 344.71875 L 76.53125 344.046875 L 76.808594 343.253906 L 77.011719 342.335938 L 77.132812 341.296875 L 77.175781 340.132812 L 77.132812 338.976562 L 77.011719 337.945312 L 76.808594 337.035156 L 76.53125 336.25 L 76.1875 335.585938 L 75.773438 335.042969 L 75.296875 334.625 L 74.761719 334.324219 L 74.171875 334.144531 L 73.527344 334.085938 L 72.882812 334.144531 L 72.289062 334.324219 L 71.75 334.621094 L 71.269531 335.039062 L 70.855469 335.578125 L 70.507812 336.242188 L 70.234375 337.027344 L 70.03125 337.9375 L 69.90625 338.972656 L 69.863281 340.132812 L 69.90625 341.296875 L 70.03125 342.335938 L 70.234375 343.253906 L 70.507812 344.046875 L 70.855469 344.71875 L 71.269531 345.269531 L 71.75 345.695312 L 72.289062 346 L 72.882812 346.183594 Z M 73.527344 345.078125 L 73.140625 345.03125 L 72.78125 344.894531 L 72.453125 344.664062 L 72.160156 344.332031 L 71.90625 343.902344 L 71.691406 343.367188 L 71.519531 342.726562 L 71.390625 341.976562 L 71.316406 341.113281 L 71.289062 340.132812 L 71.316406 339.164062 L 71.390625 338.3125 L 71.519531 337.570312 L 71.691406 336.9375 L 71.90625 336.410156 L 72.160156 335.984375 L 72.453125 335.660156 L 72.78125 335.433594 L 73.140625 335.296875 L 73.527344 335.253906 L 73.914062 335.296875 L 74.269531 335.433594 L 74.59375 335.660156 L 74.886719 335.984375 L 75.136719 336.410156 L 75.351562 336.9375 L 75.523438 337.570312 L 75.648438 338.3125 L 75.726562 339.164062 L 75.753906 340.132812 L 75.726562 341.113281 L 75.648438 341.976562 L 75.523438 342.726562 L 75.351562 343.367188 L 75.136719 343.902344 L 74.886719 344.332031 L 74.59375 344.664062 L 74.269531 344.894531 L 73.914062 345.03125 Z M 73.527344 345.078125 "/>
<path style=" stroke:none;fill-rule:nonzero;fill:rgb(30.196078%,30.196078%,30.196078%);fill-opacity:1;" d="M 81.242188 341.492188 L 81.707031 341.453125 L 82.140625 341.332031 L 82.53125 341.136719 L 82.878906 340.863281 L 83.183594 340.515625 L 83.4375 340.101562 L 83.640625 339.613281 L 83.789062 339.0625 L 83.882812 338.445312 L 83.914062 337.765625 L 83.882812 337.089844 L 83.789062 336.480469 L 83.640625 335.933594 L 83.4375 335.453125 L 83.183594 335.042969 L 82.878906 334.703125 L 82.53125 334.4375 L 82.140625 334.242188 L 81.707031 334.125 L 81.242188 334.085938 L 80.777344 334.125 L 80.351562 334.242188 L 79.960938 334.4375 L 79.613281 334.703125 L 79.3125 335.042969 L 79.058594 335.453125 L 78.855469 335.933594 L 78.707031 336.480469 L 78.617188 337.089844 L 78.585938 337.765625 L 78.617188 338.445312 L 78.707031 339.0625 L 78.855469 339.613281 L 79.058594 340.101562 L 79.3125 340.515625 L 79.613281 340.863281 L 79.960938 341.136719 L 80.351562 341.332031 L 80.777344 341.453125 Z M 81.242188 340.582031 L 80.976562 340.554688 L 80.730469 340.46875 L 80.503906 340.328125 L 80.300781 340.128906 L 80.121094 339.875 L 79.972656 339.566406 L 79.851562 339.199219 L 79.761719 338.777344 L 79.707031 338.300781 L 79.6875 337.765625 L 79.707031 337.234375 L 79.761719 336.757812 L 79.851562 336.339844 L 79.972656 335.976562 L 80.121094 335.671875 L 80.300781 335.421875 L 80.503906 335.230469 L 80.730469 335.089844 L 80.976562 335.007812 L 81.242188 334.980469 L 81.511719 335.007812 L 81.761719 335.089844 L 81.988281 335.230469 L 82.191406 335.421875 L 82.371094 335.671875 L 82.523438 335.976562 L 82.644531 336.339844 L 82.734375 336.757812 L 82.789062 337.234375 L 82.808594 337.765625 L 82.789062 338.300781 L 82.734375 338.777344 L 82.644531 339.199219 L 82.523438 339.566406 L 82.371094 339.875 L 82.191406 340.128906 L 81.988281 340.328125 L 81.761719 340.46875 L 81.511719 340.554688 Z M 81.59375 346.246094 L 82.570312 346.246094 L 89.046875 334.085938 L 88.054688 334.085938 Z M 89.417969 346.246094 L 89.878906 346.207031 L 90.308594 346.085938 L 90.695312 345.890625 L 91.042969 345.621094 L 91.34375 345.277344 L 91.597656 344.863281 L 91.800781 344.378906 L 91.949219 343.828125 L 92.042969 343.210938 L 92.074219 342.535156 L 92.042969 341.859375 L 91.949219 341.246094 L 91.800781 340.703125 L 91.597656 340.222656 L 91.34375 339.8125 L 91.042969 339.472656 L 90.695312 339.203125 L 90.308594 339.011719 L 89.878906 338.894531 L 89.417969 338.851562 L 88.953125 338.894531 L 88.523438 339.011719 L 88.132812 339.203125 L 87.785156 339.472656 L 87.480469 339.8125 L 87.222656 340.222656 L 87.019531 340.703125 L 86.867188 341.246094 L 86.777344 341.859375 L 86.746094 342.535156 L 86.777344 343.210938 L 86.867188 343.828125 L 87.019531 344.378906 L 87.222656 344.863281 L 87.480469 345.277344 L 87.785156 345.621094 L 88.132812 345.890625 L 88.523438 346.085938 L 88.953125 346.207031 Z M 89.417969 345.347656 L 89.148438 345.320312 L 88.898438 345.234375 L 88.671875 345.09375 L 88.46875 344.898438 L 88.292969 344.644531 L 88.144531 344.332031 L 88.023438 343.96875 L 87.9375 343.546875 L 87.882812 343.066406 L 87.863281 342.535156 L 87.882812 342 L 87.9375 341.523438 L 88.023438 341.105469 L 88.144531 340.746094 L 88.292969 340.4375 L 88.46875 340.191406 L 88.671875 339.996094 L 88.898438 339.859375 L 89.148438 339.777344 L 89.417969 339.75 L 89.679688 339.777344 L 89.929688 339.859375 L 90.152344 339.996094 L 90.355469 340.191406 L 90.535156 340.4375 L 90.683594 340.746094 L 90.804688 341.105469 L 90.894531 341.523438 L 90.949219 342 L 90.96875 342.535156 L 90.949219 343.066406 L 90.894531 343.546875 L 90.804688 343.96875 L 90.683594 344.332031 L 90.535156 344.644531 L 90.355469 344.898438 L 90.152344 345.09375 L 89.929688 345.234375 L 89.679688 345.320312 Z M 89.417969 345.347656 "/>
<path style=" stroke:none;fill-rule:nonzero;fill:rgb(30.196078%,30.196078%,30.196078%);fill-opacity:1;" d="M 220.082031 346.039062 L 227.457031 346.039062 L 227.457031 344.773438 L 224.027344 344.773438 L 223.839844 344.78125 L 223.648438 344.789062 L 223.453125 344.800781 L 223.054688 344.824219 L 222.664062 344.855469 L 222.472656 344.871094 L 222.289062 344.886719 L 223.085938 344.109375 L 223.824219 343.347656 L 224.492188 342.59375 L 225.09375 341.851562 L 225.617188 341.121094 L 226.054688 340.394531 L 226.410156 339.675781 L 226.667969 338.964844 L 226.824219 338.261719 L 226.878906 337.558594 L 226.839844 336.949219 L 226.726562 336.390625 L 226.539062 335.882812 L 226.285156 335.429688 L 225.960938 335.035156 L 225.578125 334.703125 L 225.132812 334.4375 L 224.632812 334.246094 L 224.078125 334.125 L 223.472656 334.085938 L 223.039062 334.105469 L 222.632812 334.164062 L 222.25 334.261719 L 221.890625 334.394531 L 221.546875 334.558594 L 221.21875 334.753906 L 220.90625 334.980469 L 220.601562 335.234375 L 220.304688 335.511719 L 220.015625 335.8125 L 220.863281 336.644531 L 221.0625 336.421875 L 221.269531 336.210938 L 221.492188 336.011719 L 221.71875 335.835938 L 221.960938 335.675781 L 222.210938 335.542969 L 222.46875 335.433594 L 222.734375 335.351562 L 223.011719 335.300781 L 223.296875 335.285156 L 223.710938 335.3125 L 224.078125 335.398438 L 224.40625 335.53125 L 224.683594 335.714844 L 224.921875 335.941406 L 225.113281 336.207031 L 225.265625 336.511719 L 225.371094 336.847656 L 225.433594 337.214844 L 225.457031 337.605469 L 225.40625 338.21875 L 225.25 338.859375 L 224.992188 339.519531 L 224.625 340.214844 L 224.148438 340.9375 L 223.5625 341.699219 L 222.863281 342.5 L 222.050781 343.34375 L 221.125 344.234375 L 220.082031 345.171875 Z M 220.082031 346.039062 "/>
<path style=" stroke:none;fill-rule:nonzero;fill:rgb(30.196078%,30.196078%,30.196078%);fill-opacity:1;" d="M 232.433594 346.246094 L 233.023438 346.203125 L 233.59375 346.074219 L 234.136719 345.859375 L 234.640625 345.566406 L 235.097656 345.195312 L 235.492188 344.746094 L 235.816406 344.21875 L 236.0625 343.621094 L 236.21875 342.953125 L 236.273438 342.214844 L 236.226562 341.484375 L 236.09375 340.835938 L 235.878906 340.273438 L 235.589844 339.789062 L 235.234375 339.382812 L 234.824219 339.054688 L 234.359375 338.804688 L 233.855469 338.625 L 233.308594 338.519531 L 232.734375 338.484375 L 232.53125 338.492188 L 232.335938 338.507812 L 232.148438 338.53125 L 231.96875 338.566406 L 231.796875 338.609375 L 231.632812 338.660156 L 231.46875 338.722656 L 231.308594 338.789062 L 231.148438 338.867188 L 230.992188 338.949219 L 231.28125 335.558594 L 235.710938 335.558594 L 235.710938 334.292969 L 230 334.292969 L 229.632812 339.796875 L 230.417969 340.277344 L 230.613281 340.148438 L 230.800781 340.035156 L 230.984375 339.929688 L 231.167969 339.839844 L 231.351562 339.765625 L 231.535156 339.703125 L 231.726562 339.652344 L 231.929688 339.617188 L 232.140625 339.597656 L 232.367188 339.589844 L 232.792969 339.617188 L 233.1875 339.707031 L 233.542969 339.847656 L 233.859375 340.046875 L 234.136719 340.296875 L 234.367188 340.59375 L 234.554688 340.941406 L 234.6875 341.339844 L 234.773438 341.777344 L 234.800781 342.261719 L 234.765625 342.753906 L 234.671875 343.207031 L 234.519531 343.613281 L 234.316406 343.976562 L 234.066406 344.289062 L 233.777344 344.546875 L 233.449219 344.753906 L 233.09375 344.90625 L 232.707031 345 L 232.304688 345.03125 L 231.910156 345.011719 L 231.546875 344.960938 L 231.210938 344.875 L 230.894531 344.765625 L 230.605469 344.632812 L 230.335938 344.480469 L 230.085938 344.308594 L 229.851562 344.125 L 229.632812 343.933594 L 229.425781 343.734375 L 228.703125 344.695312 L 228.949219 344.925781 L 229.21875 345.15625 L 229.511719 345.375 L 229.828125 345.578125 L 230.179688 345.761719 L 230.558594 345.925781 L 230.972656 346.058594 L 231.417969 346.160156 L 231.90625 346.222656 Z M 232.433594 346.246094 "/>
<path style=" stroke:none;fill-rule:nonzero;fill:rgb(30.196078%,30.196078%,30.196078%);fill-opacity:1;" d="M 240.417969 341.492188 L 240.882812 341.453125 L 241.316406 341.332031 L 241.707031 341.136719 L 242.054688 340.863281 L 242.359375 340.515625 L 242.613281 340.101562 L 242.816406 339.613281 L 242.964844 339.0625 L 243.058594 338.445312 L 243.089844 337.765625 L 243.058594 337.089844 L 242.964844 336.480469 L 242.816406 335.933594 L 242.613281 335.453125 L 242.359375 335.042969 L 242.054688 334.703125 L 241.707031 334.4375 L 241.316406 334.242188 L 240.882812 334.125 L 240.417969 334.085938 L 239.953125 334.125 L 239.527344 334.242188 L 239.136719 334.4375 L 238.789062 334.703125 L 238.488281 335.042969 L 238.234375 335.453125 L 238.03125 335.933594 L 237.882812 336.480469 L 237.792969 337.089844 L 237.761719 337.765625 L 237.792969 338.445312 L 237.882812 339.0625 L 238.03125 339.613281 L 238.234375 340.101562 L 238.488281 340.515625 L 238.789062 340.863281 L 239.136719 341.136719 L 239.527344 341.332031 L 239.953125 341.453125 Z M 240.417969 340.582031 L 240.152344 340.554688 L 239.90625 340.46875 L 239.679688 340.328125 L 239.476562 340.128906 L 239.296875 339.875 L 239.148438 339.566406 L 239.027344 339.199219 L 238.9375 338.777344 L 238.882812 338.300781 L 238.863281 337.765625 L 238.882812 337.234375 L 238.9375 336.757812 L 239.027344 336.339844 L 239.148438 335.976562 L 239.296875 335.671875 L 239.476562 335.421875 L 239.679688 335.230469 L 239.90625 335.089844 L 240.152344 335.007812 L 240.417969 334.980469 L 240.6875 335.007812 L 240.9375 335.089844 L 241.164062 335.230469 L 241.367188 335.421875 L 241.546875 335.671875 L 241.699219 335.976562 L 241.820312 336.339844 L 241.910156 336.757812 L 241.964844 337.234375 L 241.984375 337.765625 L 241.964844 338.300781 L 241.910156 338.777344 L 241.820312 339.199219 L 241.699219 339.566406 L 241.546875 339.875 L 241.367188 340.128906 L 241.164062 340.328125 L 240.9375 340.46875 L 240.6875 340.554688 Z M 240.769531 346.246094 L 241.746094 346.246094 L 248.222656 334.085938 L 247.230469 334.085938 Z M 248.59375 346.246094 L 249.054688 346.207031 L 249.484375 346.085938 L 249.871094 345.890625 L 250.21875 345.621094 L 250.519531 345.277344 L 250.773438 344.863281 L 250.976562 344.378906 L 251.125 343.828125 L 251.21875 343.210938 L 251.25 342.535156 L 251.21875 341.859375 L 251.125 341.246094 L 250.976562 340.703125 L 250.773438 340.222656 L 250.519531 339.8125 L 250.21875 339.472656 L 249.871094 339.203125 L 249.484375 339.011719 L 249.054688 338.894531 L 248.59375 338.851562 L 248.128906 338.894531 L 247.699219 339.011719 L 247.308594 339.203125 L 246.960938 339.472656 L 246.65625 339.8125 L 246.398438 340.222656 L 246.195312 340.703125 L 246.042969 341.246094 L 245.953125 341.859375 L 245.921875 342.535156 L 245.953125 343.210938 L 246.042969 343.828125 L 246.195312 344.378906 L 246.398438 344.863281 L 246.65625 345.277344 L 246.960938 345.621094 L 247.308594 345.890625 L 247.699219 346.085938 L 248.128906 346.207031 Z M 248.59375 345.347656 L 248.324219 345.320312 L 248.074219 345.234375 L 247.847656 345.09375 L 247.644531 344.898438 L 247.46875 344.644531 L 247.320312 344.332031 L 247.199219 343.96875 L 247.113281 343.546875 L 247.058594 343.066406 L 247.039062 342.535156 L 247.058594 342 L 247.113281 341.523438 L 247.199219 341.105469 L 247.320312 340.746094 L 247.46875 340.4375 L 247.644531 340.191406 L 247.847656 339.996094 L 248.074219 339.859375 L 248.324219 339.777344 L 248.59375 339.75 L 248.855469 339.777344 L 249.105469 339.859375 L 249.328125 339.996094 L 249.53125 340.191406 L 249.710938 340.4375 L 249.859375 340.746094 L 249.980469 341.105469 L 250.070312 341.523438 L 250.125 342 L 250.144531 342.535156 L 250.125 343.066406 L 250.070312 343.546875 L 249.980469 343.96875 L 249.859375 344.332031 L 249.710938 344.644531 L 249.53125 344.898438 L 249.328125 345.09375 L 249.105469 345.234375 L 248.855469 345.320312 Z M 248.59375 345.347656 "/>
<path style=" stroke:none;fill-rule:nonzero;fill:rgb(30.196078%,30.196078%,30.196078%);fill-opacity:1;" d="M 378.289062 346.246094 L 378.878906 346.203125 L 379.449219 346.074219 L 379.992188 345.859375 L 380.496094 345.566406 L 380.953125 345.195312 L 381.347656 344.746094 L 381.671875 344.21875 L 381.917969 343.621094 L 382.074219 342.953125 L 382.128906 342.214844 L 382.082031 341.484375 L 381.949219 340.835938 L 381.734375 340.273438 L 381.445312 339.789062 L 381.09375 339.382812 L 380.679688 339.054688 L 380.214844 338.804688 L 379.710938 338.625 L 379.164062 338.519531 L 378.59375 338.484375 L 378.386719 338.492188 L 378.191406 338.507812 L 378.003906 338.53125 L 377.824219 338.566406 L 377.652344 338.609375 L 377.488281 338.660156 L 377.324219 338.722656 L 377.164062 338.789062 L 377.007812 338.867188 L 376.847656 338.949219 L 377.136719 335.558594 L 381.566406 335.558594 L 381.566406 334.292969 L 375.855469 334.292969 L 375.488281 339.796875 L 376.273438 340.277344 L 376.46875 340.148438 L 376.65625 340.035156 L 376.839844 339.929688 L 377.023438 339.839844 L 377.207031 339.765625 L 377.390625 339.703125 L 377.582031 339.652344 L 377.785156 339.617188 L 377.996094 339.597656 L 378.222656 339.589844 L 378.648438 339.617188 L 379.042969 339.707031 L 379.398438 339.847656 L 379.714844 340.046875 L 379.992188 340.296875 L 380.222656 340.59375 L 380.410156 340.941406 L 380.542969 341.339844 L 380.628906 341.777344 L 380.65625 342.261719 L 380.625 342.753906 L 380.527344 343.207031 L 380.375 343.613281 L 380.171875 343.976562 L 379.925781 344.289062 L 379.632812 344.546875 L 379.304688 344.753906 L 378.949219 344.90625 L 378.5625 345 L 378.160156 345.03125 L 377.765625 345.011719 L 377.402344 344.960938 L 377.066406 344.875 L 376.753906 344.765625 L 376.460938 344.632812 L 376.191406 344.480469 L 375.941406 344.308594 L 375.707031 344.125 L 375.488281 343.933594 L 375.28125 343.734375 L 374.558594 344.695312 L 374.804688 344.925781 L 375.074219 345.15625 L 375.367188 345.375 L 375.6875 345.578125 L 376.035156 345.761719 L 376.414062 345.925781 L 376.828125 346.058594 L 377.273438 346.160156 L 377.761719 346.222656 Z M 378.289062 346.246094 "/>
<path style=" stroke:none;fill-rule:nonzero;fill:rgb(30.196078%,30.196078%,30.196078%);fill-opacity:1;" d="M 387.441406 346.246094 L 388.082031 346.183594 L 388.671875 346 L 389.207031 345.695312 L 389.683594 345.269531 L 390.097656 344.71875 L 390.445312 344.046875 L 390.71875 343.253906 L 390.921875 342.335938 L 391.046875 341.296875 L 391.089844 340.132812 L 391.046875 338.976562 L 390.921875 337.945312 L 390.71875 337.035156 L 390.445312 336.25 L 390.097656 335.585938 L 389.683594 335.042969 L 389.207031 334.625 L 388.671875 334.324219 L 388.082031 334.144531 L 387.441406 334.085938 L 386.792969 334.144531 L 386.199219 334.324219 L 385.660156 334.621094 L 385.183594 335.039062 L 384.769531 335.578125 L 384.421875 336.242188 L 384.144531 337.027344 L 383.941406 337.9375 L 383.816406 338.972656 L 383.777344 340.132812 L 383.816406 341.296875 L 383.941406 342.335938 L 384.144531 343.253906 L 384.421875 344.046875 L 384.769531 344.71875 L 385.183594 345.269531 L 385.660156 345.695312 L 386.199219 346 L 386.792969 346.183594 Z M 387.441406 345.078125 L 387.050781 345.03125 L 386.691406 344.894531 L 386.363281 344.664062 L 386.070312 344.332031 L 385.816406 343.902344 L 385.601562 343.367188 L 385.429688 342.726562 L 385.304688 341.976562 L 385.226562 341.113281 L 385.199219 340.132812 L 385.226562 339.164062 L 385.304688 338.3125 L 385.429688 337.570312 L 385.601562 336.9375 L 385.816406 336.410156 L 386.070312 335.984375 L 386.363281 335.660156 L 386.691406 335.433594 L 387.050781 335.296875 L 387.441406 335.253906 L 387.824219 335.296875 L 388.179688 335.433594 L 388.507812 335.660156 L 388.796875 335.984375 L 389.050781 336.410156 L 389.261719 336.9375 L 389.433594 337.570312 L 389.558594 338.3125 L 389.636719 339.164062 L 389.664062 340.132812 L 389.636719 341.113281 L 389.558594 341.976562 L 389.433594 342.726562 L 389.261719 343.367188 L 389.050781 343.902344 L 388.796875 344.332031 L 388.507812 344.664062 L 388.179688 344.894531 L 387.824219 345.03125 Z M 387.441406 345.078125 "/>
<path style=" stroke:none;fill-rule:nonzero;fill:rgb(30.196078%,30.196078%,30.196078%);fill-opacity:1;" d="M 395.152344 341.492188 L 395.621094 341.453125 L 396.050781 341.332031 L 396.441406 341.136719 L 396.789062 340.863281 L 397.09375 340.515625 L 397.347656 340.101562 L 397.550781 339.613281 L 397.703125 339.0625 L 397.792969 338.445312 L 397.824219 337.765625 L 397.792969 337.089844 L 397.703125 336.480469 L 397.550781 335.933594 L 397.347656 335.453125 L 397.09375 335.042969 L 396.789062 334.703125 L 396.441406 334.4375 L 396.050781 334.242188 L 395.621094 334.125 L 395.152344 334.085938 L 394.6875 334.125 L 394.261719 334.242188 L 393.871094 334.4375 L 393.527344 334.703125 L 393.222656 335.042969 L 392.96875 335.453125 L 392.765625 335.933594 L 392.617188 336.480469 L 392.527344 337.089844 L 392.496094 337.765625 L 392.527344 338.445312 L 392.617188 339.0625 L 392.765625 339.613281 L 392.96875 340.101562 L 393.222656 340.515625 L 393.527344 340.863281 L 393.871094 341.136719 L 394.261719 341.332031 L 394.6875 341.453125 Z M 395.152344 340.582031 L 394.886719 340.554688 L 394.640625 340.46875 L 394.414062 340.328125 L 394.210938 340.128906 L 394.035156 339.875 L 393.882812 339.566406 L 393.761719 339.199219 L 393.671875 338.777344 L 393.617188 338.300781 L 393.601562 337.765625 L 393.617188 337.234375 L 393.671875 336.757812 L 393.761719 336.339844 L 393.882812 335.976562 L 394.035156 335.671875 L 394.210938 335.421875 L 394.414062 335.230469 L 394.640625 335.089844 L 394.886719 335.007812 L 395.152344 334.980469 L 395.421875 335.007812 L 395.671875 335.089844 L 395.898438 335.230469 L 396.105469 335.421875 L 396.285156 335.671875 L 396.433594 335.976562 L 396.554688 336.339844 L 396.644531 336.757812 L 396.699219 337.234375 L 396.71875 337.765625 L 396.699219 338.300781 L 396.644531 338.777344 L 396.554688 339.199219 L 396.433594 339.566406 L 396.285156 339.875 L 396.105469 340.128906 L 395.898438 340.328125 L 395.671875 340.46875 L 395.421875 340.554688 Z M 395.503906 346.246094 L 396.480469 346.246094 L 402.960938 334.085938 L 401.96875 334.085938 Z M 403.328125 346.246094 L 403.792969 346.207031 L 404.21875 346.085938 L 404.605469 345.890625 L 404.953125 345.621094 L 405.257812 345.277344 L 405.511719 344.863281 L 405.710938 344.378906 L 405.859375 343.828125 L 405.953125 343.210938 L 405.984375 342.535156 L 405.953125 341.859375 L 405.859375 341.246094 L 405.710938 340.703125 L 405.511719 340.222656 L 405.257812 339.8125 L 404.953125 339.472656 L 404.605469 339.203125 L 404.21875 339.011719 L 403.792969 338.894531 L 403.328125 338.851562 L 402.863281 338.894531 L 402.4375 339.011719 L 402.046875 339.203125 L 401.695312 339.472656 L 401.390625 339.8125 L 401.136719 340.222656 L 400.929688 340.703125 L 400.78125 341.246094 L 400.6875 341.859375 L 400.65625 342.535156 L 400.6875 343.210938 L 400.78125 343.828125 L 400.929688 344.378906 L 401.136719 344.863281 L 401.390625 345.277344 L 401.695312 345.621094 L 402.046875 345.890625 L 402.4375 346.085938 L 402.863281 346.207031 Z M 403.328125 345.347656 L 403.058594 345.320312 L 402.808594 345.234375 L 402.582031 345.09375 L 402.378906 344.898438 L 402.203125 344.644531 L 402.054688 344.332031 L 401.9375 343.96875 L 401.847656 343.546875 L 401.792969 343.066406 L 401.777344 342.535156 L 401.792969 342 L 401.847656 341.523438 L 401.9375 341.105469 L 402.054688 340.746094 L 402.203125 340.4375 L 402.378906 340.191406 L 402.582031 339.996094 L 402.808594 339.859375 L 403.058594 339.777344 L 403.328125 339.75 L 403.59375 339.777344 L 403.839844 339.859375 L 404.066406 339.996094 L 404.269531 340.191406 L 404.445312 340.4375 L 404.597656 340.746094 L 404.71875 341.105469 L 404.804688 341.523438 L 404.859375 342 L 404.878906 342.535156 L 404.859375 343.066406 L 404.804688 343.546875 L 404.71875 343.96875 L 404.597656 344.332031 L 404.445312 344.644531 L 404.269531 344.898438 L 404.066406 345.09375 L 403.839844 345.234375 L 403.59375 345.320312 Z M 403.328125 345.347656 "/>
<path style=" stroke:none;fill-rule:nonzero;fill:rgb(30.196078%,30.196078%,30.196078%);fill-opacity:1;" d="M 532.015625 346.039062 L 533.535156 346.039062 L 533.601562 344.710938 L 533.695312 343.484375 L 533.835938 342.335938 L 534.03125 341.25 L 534.289062 340.210938 L 534.625 339.207031 L 535.050781 338.21875 L 535.578125 337.226562 L 536.214844 336.222656 L 536.976562 335.1875 L 536.976562 334.292969 L 529.632812 334.292969 L 529.632812 335.558594 L 535.3125 335.558594 L 534.667969 336.507812 L 534.109375 337.449219 L 533.628906 338.390625 L 533.21875 339.347656 L 532.878906 340.328125 L 532.601562 341.347656 L 532.378906 342.417969 L 532.210938 343.546875 L 532.09375 344.75 Z M 532.015625 346.039062 "/>
<path style=" stroke:none;fill-rule:nonzero;fill:rgb(30.196078%,30.196078%,30.196078%);fill-opacity:1;" d="M 541.902344 346.246094 L 542.492188 346.203125 L 543.066406 346.074219 L 543.609375 345.859375 L 544.113281 345.566406 L 544.566406 345.195312 L 544.964844 344.746094 L 545.289062 344.21875 L 545.535156 343.621094 L 545.691406 342.953125 L 545.742188 342.214844 L 545.699219 341.484375 L 545.5625 340.835938 L 545.347656 340.273438 L 545.0625 339.789062 L 544.707031 339.382812 L 544.296875 339.054688 L 543.832031 338.804688 L 543.324219 338.625 L 542.78125 338.519531 L 542.207031 338.484375 L 542.003906 338.492188 L 541.804688 338.507812 L 541.621094 338.53125 L 541.441406 338.566406 L 541.269531 338.609375 L 541.101562 338.660156 L 540.941406 338.722656 L 540.78125 338.789062 L 540.621094 338.867188 L 540.464844 338.949219 L 540.75 335.558594 L 545.183594 335.558594 L 545.183594 334.292969 L 539.472656 334.292969 L 539.105469 339.796875 L 539.886719 340.277344 L 540.085938 340.148438 L 540.273438 340.035156 L 540.457031 339.929688 L 540.640625 339.839844 L 540.820312 339.765625 L 541.007812 339.703125 L 541.199219 339.652344 L 541.398438 339.617188 L 541.613281 339.597656 L 541.839844 339.589844 L 542.265625 339.617188 L 542.65625 339.707031 L 543.015625 339.847656 L 543.332031 340.046875 L 543.609375 340.296875 L 543.839844 340.59375 L 544.023438 340.941406 L 544.160156 341.339844 L 544.242188 341.777344 L 544.273438 342.261719 L 544.238281 342.753906 L 544.144531 343.207031 L 543.992188 343.613281 L 543.789062 343.976562 L 543.539062 344.289062 L 543.25 344.546875 L 542.921875 344.753906 L 542.5625 344.90625 L 542.179688 345 L 541.777344 345.03125 L 541.382812 345.011719 L 541.019531 344.960938 L 540.679688 344.875 L 540.367188 344.765625 L 540.078125 344.632812 L 539.808594 344.480469 L 539.558594 344.308594 L 539.324219 344.125 L 539.101562 343.933594 L 538.894531 343.734375 L 538.175781 344.695312 L 538.421875 344.925781 L 538.6875 345.15625 L 538.980469 345.375 L 539.300781 345.578125 L 539.648438 345.761719 L 540.027344 345.925781 L 540.441406 346.058594 L 540.890625 346.160156 L 541.378906 346.222656 Z M 541.902344 346.246094 "/>
<path style=" stroke:none;fill-rule:nonzero;fill:rgb(30.196078%,30.196078%,30.196078%);fill-opacity:1;" d="M 549.886719 341.492188 L 550.355469 341.453125 L 550.785156 341.332031 L 551.175781 341.136719 L 551.527344 340.863281 L 551.828125 340.515625 L 552.085938 340.101562 L 552.289062 339.613281 L 552.4375 339.0625 L 552.527344 338.445312 L 552.558594 337.765625 L 552.527344 337.089844 L 552.4375 336.480469 L 552.289062 335.933594 L 552.085938 335.453125 L 551.828125 335.042969 L 551.527344 334.703125 L 551.175781 334.4375 L 550.785156 334.242188 L 550.355469 334.125 L 549.886719 334.085938 L 549.425781 334.125 L 548.996094 334.242188 L 548.609375 334.4375 L 548.261719 334.703125 L 547.960938 335.042969 L 547.707031 335.453125 L 547.503906 335.933594 L 547.355469 336.480469 L 547.261719 337.089844 L 547.230469 337.765625 L 547.261719 338.445312 L 547.355469 339.0625 L 547.503906 339.613281 L 547.707031 340.101562 L 547.960938 340.515625 L 548.261719 340.863281 L 548.609375 341.136719 L 548.996094 341.332031 L 549.425781 341.453125 Z M 549.886719 340.582031 L 549.621094 340.554688 L 549.375 340.46875 L 549.148438 340.328125 L 548.949219 340.128906 L 548.769531 339.875 L 548.621094 339.566406 L 548.5 339.199219 L 548.410156 338.777344 L 548.355469 338.300781 L 548.335938 337.765625 L 548.355469 337.234375 L 548.410156 336.757812 L 548.5 336.339844 L 548.621094 335.976562 L 548.769531 335.671875 L 548.949219 335.421875 L 549.148438 335.230469 L 549.375 335.089844 L 549.621094 335.007812 L 549.886719 334.980469 L 550.15625 335.007812 L 550.40625 335.089844 L 550.636719 335.230469 L 550.839844 335.421875 L 551.019531 335.671875 L 551.171875 335.976562 L 551.292969 336.339844 L 551.382812 336.757812 L 551.4375 337.234375 L 551.457031 337.765625 L 551.4375 338.300781 L 551.382812 338.777344 L 551.292969 339.199219 L 551.171875 339.566406 L 551.019531 339.875 L 550.839844 340.128906 L 550.636719 340.328125 L 550.40625 340.46875 L 550.15625 340.554688 Z M 550.238281 346.246094 L 551.214844 346.246094 L 557.695312 334.085938 L 556.703125 334.085938 Z M 558.0625 346.246094 L 558.527344 346.207031 L 558.953125 346.085938 L 559.34375 345.890625 L 559.691406 345.621094 L 559.992188 345.277344 L 560.246094 344.863281 L 560.449219 344.378906 L 560.597656 343.828125 L 560.6875 343.210938 L 560.71875 342.535156 L 560.6875 341.859375 L 560.597656 341.246094 L 560.449219 340.703125 L 560.246094 340.222656 L 559.992188 339.8125 L 559.691406 339.472656 L 559.34375 339.203125 L 558.953125 339.011719 L 558.527344 338.894531 L 558.0625 338.851562 L 557.601562 338.894531 L 557.171875 339.011719 L 556.78125 339.203125 L 556.433594 339.472656 L 556.128906 339.8125 L 555.871094 340.222656 L 555.667969 340.703125 L 555.515625 341.246094 L 555.421875 341.859375 L 555.390625 342.535156 L 555.421875 343.210938 L 555.515625 343.828125 L 555.667969 344.378906 L 555.871094 344.863281 L 556.128906 345.277344 L 556.433594 345.621094 L 556.78125 345.890625 L 557.171875 346.085938 L 557.601562 346.207031 Z M 558.0625 345.347656 L 557.792969 345.320312 L 557.546875 345.234375 L 557.320312 345.09375 L 557.117188 344.898438 L 556.941406 344.644531 L 556.789062 344.332031 L 556.671875 343.96875 L 556.582031 343.546875 L 556.53125 343.066406 L 556.511719 342.535156 L 556.53125 342 L 556.582031 341.523438 L 556.671875 341.105469 L 556.789062 340.746094 L 556.941406 340.4375 L 557.117188 340.191406 L 557.320312 339.996094 L 557.546875 339.859375 L 557.792969 339.777344 L 558.0625 339.75 L 558.328125 339.777344 L 558.574219 339.859375 L 558.800781 339.996094 L 559.003906 340.191406 L 559.183594 340.4375 L 559.332031 340.746094 L 559.453125 341.105469 L 559.542969 341.523438 L 559.597656 342 L 559.617188 342.535156 L 559.597656 343.066406 L 559.542969 343.546875 L 559.453125 343.96875 L 559.332031 344.332031 L 559.183594 344.644531 L 559.003906 344.898438 L 558.800781 345.09375 L 558.574219 345.234375 L 558.328125 345.320312 Z M 558.0625 345.347656 "/>
<path style=" stroke:none;fill-rule:nonzero;fill:rgb(30.196078%,30.196078%,30.196078%);fill-opacity:1;" d="M 680.550781 346.039062 L 686.984375 346.039062 L 686.984375 344.820312 L 684.632812 344.820312 L 684.632812 334.292969 L 683.511719 334.292969 L 683.316406 334.40625 L 683.113281 334.511719 L 682.902344 334.609375 L 682.679688 334.703125 L 682.445312 334.789062 L 682.199219 334.871094 L 681.941406 334.945312 L 681.671875 335.015625 L 681.382812 335.082031 L 681.078125 335.140625 L 681.078125 336.070312 L 683.160156 336.070312 L 683.160156 344.820312 L 680.550781 344.820312 Z M 680.550781 346.039062 "/>
<path style=" stroke:none;fill-rule:nonzero;fill:rgb(30.196078%,30.196078%,30.196078%);fill-opacity:1;" d="M 692.472656 346.246094 L 693.113281 346.183594 L 693.703125 346 L 694.238281 345.695312 L 694.714844 345.269531 L 695.128906 344.71875 L 695.476562 344.046875 L 695.75 343.253906 L 695.953125 342.335938 L 696.078125 341.296875 L 696.121094 340.132812 L 696.078125 338.976562 L 695.953125 337.945312 L 695.75 337.035156 L 695.476562 336.25 L 695.128906 335.585938 L 694.714844 335.042969 L 694.238281 334.625 L 693.703125 334.324219 L 693.113281 334.144531 L 692.472656 334.085938 L 691.824219 334.144531 L 691.230469 334.324219 L 690.691406 334.621094 L 690.214844 335.039062 L 689.800781 335.578125 L 689.453125 336.242188 L 689.175781 337.027344 L 688.972656 337.9375 L 688.847656 338.972656 L 688.808594 340.132812 L 688.847656 341.296875 L 688.972656 342.335938 L 689.175781 343.253906 L 689.453125 344.046875 L 689.800781 344.71875 L 690.214844 345.269531 L 690.691406 345.695312 L 691.230469 346 L 691.824219 346.183594 Z M 692.472656 345.078125 L 692.082031 345.03125 L 691.722656 344.894531 L 691.394531 344.664062 L 691.101562 344.332031 L 690.847656 343.902344 L 690.632812 343.367188 L 690.460938 342.726562 L 690.335938 341.976562 L 690.257812 341.113281 L 690.230469 340.132812 L 690.257812 339.164062 L 690.335938 338.3125 L 690.460938 337.570312 L 690.632812 336.9375 L 690.847656 336.410156 L 691.101562 335.984375 L 691.394531 335.660156 L 691.722656 335.433594 L 692.082031 335.296875 L 692.472656 335.253906 L 692.855469 335.296875 L 693.210938 335.433594 L 693.539062 335.660156 L 693.828125 335.984375 L 694.082031 336.410156 L 694.296875 336.9375 L 694.464844 337.570312 L 694.589844 338.3125 L 694.667969 339.164062 L 694.695312 340.132812 L 694.667969 341.113281 L 694.589844 341.976562 L 694.464844 342.726562 L 694.296875 343.367188 L 694.082031 343.902344 L 693.828125 344.332031 L 693.539062 344.664062 L 693.210938 344.894531 L 692.855469 345.03125 Z M 692.472656 345.078125 "/>
<path style=" stroke:none;fill-rule:nonzero;fill:rgb(30.196078%,30.196078%,30.196078%);fill-opacity:1;" d="M 701.351562 346.246094 L 701.992188 346.183594 L 702.585938 346 L 703.121094 345.695312 L 703.597656 345.269531 L 704.007812 344.71875 L 704.355469 344.046875 L 704.632812 343.253906 L 704.832031 342.335938 L 704.957031 341.296875 L 705 340.132812 L 704.957031 338.976562 L 704.832031 337.945312 L 704.632812 337.035156 L 704.355469 336.25 L 704.007812 335.585938 L 703.597656 335.042969 L 703.121094 334.625 L 702.585938 334.324219 L 701.992188 334.144531 L 701.351562 334.085938 L 700.703125 334.144531 L 700.109375 334.324219 L 699.570312 334.621094 L 699.09375 335.039062 L 698.679688 335.578125 L 698.332031 336.242188 L 698.054688 337.027344 L 697.851562 337.9375 L 697.730469 338.972656 L 697.6875 340.132812 L 697.730469 341.296875 L 697.851562 342.335938 L 698.054688 343.253906 L 698.332031 344.046875 L 698.679688 344.71875 L 699.09375 345.269531 L 699.570312 345.695312 L 700.109375 346 L 700.703125 346.183594 Z M 701.351562 345.078125 L 700.960938 345.03125 L 700.601562 344.894531 L 700.273438 344.664062 L 699.980469 344.332031 L 699.726562 343.902344 L 699.511719 343.367188 L 699.339844 342.726562 L 699.214844 341.976562 L 699.136719 341.113281 L 699.113281 340.132812 L 699.136719 339.164062 L 699.214844 338.3125 L 699.339844 337.570312 L 699.511719 336.9375 L 699.726562 336.410156 L 699.980469 335.984375 L 700.273438 335.660156 L 700.601562 335.433594 L 700.960938 335.296875 L 701.351562 335.253906 L 701.738281 335.296875 L 702.09375 335.433594 L 702.417969 335.660156 L 702.707031 335.984375 L 702.960938 336.410156 L 703.175781 336.9375 L 703.347656 337.570312 L 703.472656 338.3125 L 703.550781 339.164062 L 703.574219 340.132812 L 703.550781 341.113281 L 703.472656 341.976562 L 703.347656 342.726562 L 703.175781 343.367188 L 702.960938 343.902344 L 702.707031 344.332031 L 702.417969 344.664062 L 702.09375 344.894531 L 701.738281 345.03125 Z M 701.351562 345.078125 "/>
<path style=" stroke:none;fill-rule:nonzero;fill:rgb(30.196078%,30.196078%,30.196078%);fill-opacity:1;" d="M 709.0625 341.492188 L 709.53125 341.453125 L 709.960938 341.332031 L 710.351562 341.136719 L 710.703125 340.863281 L 711.003906 340.515625 L 711.261719 340.101562 L 711.464844 339.613281 L 711.613281 339.0625 L 711.703125 338.445312 L 711.734375 337.765625 L 711.703125 337.089844 L 711.613281 336.480469 L 711.464844 335.933594 L 711.261719 335.453125 L 711.003906 335.042969 L 710.703125 334.703125 L 710.351562 334.4375 L 709.960938 334.242188 L 709.53125 334.125 L 709.0625 334.085938 L 708.601562 334.125 L 708.171875 334.242188 L 707.785156 334.4375 L 707.4375 334.703125 L 707.136719 335.042969 L 706.882812 335.453125 L 706.679688 335.933594 L 706.53125 336.480469 L 706.4375 337.089844 L 706.40625 337.765625 L 706.4375 338.445312 L 706.53125 339.0625 L 706.679688 339.613281 L 706.882812 340.101562 L 707.136719 340.515625 L 707.4375 340.863281 L 707.785156 341.136719 L 708.171875 341.332031 L 708.601562 341.453125 Z M 709.0625 340.582031 L 708.796875 340.554688 L 708.550781 340.46875 L 708.324219 340.328125 L 708.125 340.128906 L 707.945312 339.875 L 707.796875 339.566406 L 707.675781 339.199219 L 707.585938 338.777344 L 707.53125 338.300781 L 707.511719 337.765625 L 707.53125 337.234375 L 707.585938 336.757812 L 707.675781 336.339844 L 707.796875 335.976562 L 707.945312 335.671875 L 708.125 335.421875 L 708.324219 335.230469 L 708.550781 335.089844 L 708.796875 335.007812 L 709.0625 334.980469 L 709.332031 335.007812 L 709.582031 335.089844 L 709.8125 335.230469 L 710.015625 335.421875 L 710.195312 335.671875 L 710.347656 335.976562 L 710.46875 336.339844 L 710.558594 336.757812 L 710.613281 337.234375 L 710.632812 337.765625 L 710.613281 338.300781 L 710.558594 338.777344 L 710.46875 339.199219 L 710.347656 339.566406 L 710.195312 339.875 L 710.015625 340.128906 L 709.8125 340.328125 L 709.582031 340.46875 L 709.332031 340.554688 Z M 709.414062 346.246094 L 710.390625 346.246094 L 716.871094 334.085938 L 715.878906 334.085938 Z M 717.238281 346.246094 L 717.703125 346.207031 L 718.128906 346.085938 L 718.519531 345.890625 L 718.867188 345.621094 L 719.167969 345.277344 L 719.421875 344.863281 L 719.625 344.378906 L 719.773438 343.828125 L 719.863281 343.210938 L 719.894531 342.535156 L 719.863281 341.859375 L 719.773438 341.246094 L 719.625 340.703125 L 719.421875 340.222656 L 719.167969 339.8125 L 718.867188 339.472656 L 718.519531 339.203125 L 718.128906 339.011719 L 717.703125 338.894531 L 717.238281 338.851562 L 716.777344 338.894531 L 716.347656 339.011719 L 715.957031 339.203125 L 715.609375 339.472656 L 715.304688 339.8125 L 715.046875 340.222656 L 714.84375 340.703125 L 714.691406 341.246094 L 714.597656 341.859375 L 714.566406 342.535156 L 714.597656 343.210938 L 714.691406 343.828125 L 714.84375 344.378906 L 715.046875 344.863281 L 715.304688 345.277344 L 715.609375 345.621094 L 715.957031 345.890625 L 716.347656 346.085938 L 716.777344 346.207031 Z M 717.238281 345.347656 L 716.96875 345.320312 L 716.722656 345.234375 L 716.496094 345.09375 L 716.292969 344.898438 L 716.117188 344.644531 L 715.964844 344.332031 L 715.847656 343.96875 L 715.757812 343.546875 L 715.707031 343.066406 L 715.6875 342.535156 L 715.707031 342 L 715.757812 341.523438 L 715.847656 341.105469 L 715.964844 340.746094 L 716.117188 340.4375 L 716.292969 340.191406 L 716.496094 339.996094 L 716.722656 339.859375 L 716.96875 339.777344 L 717.238281 339.75 L 717.503906 339.777344 L 717.75 339.859375 L 717.976562 339.996094 L 718.179688 340.191406 L 718.355469 340.4375 L 718.507812 340.746094 L 718.628906 341.105469 L 718.71875 341.523438 L 718.773438 342 L 718.792969 342.535156 L 718.773438 343.066406 L 718.71875 343.546875 L 718.628906 343.96875 L 718.507812 344.332031 L 718.355469 344.644531 L 718.179688 344.898438 L 717.976562 345.09375 L 717.75 345.234375 L 717.503906 345.320312 Z M 717.238281 345.347656 "/>
<path style=" stroke:none;fill-rule:nonzero;fill:rgb(74.509804%,74.509804%,74.509804%);fill-opacity:1;" d="M 616.214844 294.464844 L 632.078125 294.464844 L 632.078125 278.601562 L 616.214844 278.601562 Z M 616.214844 294.464844 "/>
<path style=" stroke:none;fill-rule:nonzero;fill:rgb(85.490196%,31.372549%,9.803922%);fill-opacity:1;" d="M 616.214844 311.742188 L 632.078125 311.742188 L 632.078125 295.878906 L 616.214844 295.878906 Z M 616.214844 311.742188 "/>
<path style=" stroke:none;fill-rule:nonzero;fill:rgb(0%,0%,0%);fill-opacity:1;" d="M 646.183594 283.726562 L 649.648438 283.726562 L 649.648438 285.332031 L 646.183594 285.332031 Z M 646.183594 281.238281 L 649.648438 281.238281 L 649.648438 282.828125 L 646.183594 282.828125 Z M 654.28125 282.828125 L 650.742188 282.828125 L 650.742188 281.238281 L 654.28125 281.238281 Z M 654.28125 285.332031 L 650.742188 285.332031 L 650.742188 283.726562 L 654.28125 283.726562 Z M 650.292969 287.746094 L 650.328125 287.605469 L 650.359375 287.464844 L 650.394531 287.320312 L 650.449219 287.03125 L 650.476562 286.882812 L 650.5 286.738281 L 650.523438 286.589844 L 650.5625 286.292969 L 655.421875 286.292969 L 655.421875 280.277344 L 645.074219 280.277344 L 645.074219 286.292969 L 649.40625 286.292969 L 649.390625 286.445312 L 649.367188 286.597656 L 649.347656 286.746094 L 649.320312 286.894531 L 649.296875 287.042969 L 649.265625 287.1875 L 649.238281 287.332031 L 649.207031 287.472656 L 649.136719 287.746094 L 643.871094 287.746094 L 643.871094 288.765625 L 648.792969 288.765625 L 648.554688 289.234375 L 648.269531 289.679688 L 647.929688 290.097656 L 647.527344 290.488281 L 647.054688 290.855469 L 646.511719 291.1875 L 645.886719 291.496094 L 645.171875 291.773438 L 644.363281 292.019531 L 643.453125 292.230469 L 643.519531 292.304688 L 643.585938 292.390625 L 643.65625 292.480469 L 643.789062 292.683594 L 643.855469 292.789062 L 643.910156 292.894531 L 643.960938 293 L 644.003906 293.097656 L 644.039062 293.191406 L 645.078125 292.921875 L 645.996094 292.613281 L 646.804688 292.261719 L 647.511719 291.871094 L 648.121094 291.441406 L 648.640625 290.976562 L 649.082031 290.472656 L 649.453125 289.9375 L 649.757812 289.367188 L 650.007812 288.765625 L 654.703125 288.765625 L 654.640625 289.351562 L 654.574219 289.867188 L 654.503906 290.320312 L 654.433594 290.71875 L 654.355469 291.054688 L 654.277344 291.339844 L 654.191406 291.578125 L 654.101562 291.761719 L 654.007812 291.90625 L 653.90625 292.007812 L 653.863281 292.042969 L 653.816406 292.074219 L 653.765625 292.097656 L 653.710938 292.117188 L 653.652344 292.132812 L 653.589844 292.144531 L 653.519531 292.148438 L 653.441406 292.152344 L 653.355469 292.15625 L 652.984375 292.15625 L 652.800781 292.152344 L 652.585938 292.148438 L 652.351562 292.140625 L 652.09375 292.132812 L 651.824219 292.121094 L 651.539062 292.105469 L 651.25 292.085938 L 650.953125 292.066406 L 651.011719 292.15625 L 651.070312 292.253906 L 651.121094 292.351562 L 651.167969 292.457031 L 651.207031 292.566406 L 651.242188 292.675781 L 651.273438 292.78125 L 651.296875 292.886719 L 651.316406 292.988281 L 651.328125 293.085938 L 651.609375 293.097656 L 651.886719 293.109375 L 652.160156 293.121094 L 652.421875 293.125 L 652.671875 293.132812 L 652.910156 293.136719 L 653.511719 293.136719 L 653.667969 293.132812 L 653.816406 293.121094 L 653.953125 293.105469 L 654.082031 293.085938 L 654.203125 293.054688 L 654.320312 293.019531 L 654.429688 292.976562 L 654.535156 292.925781 L 654.636719 292.859375 L 654.738281 292.785156 L 654.835938 292.695312 L 654.976562 292.539062 L 655.105469 292.332031 L 655.222656 292.070312 L 655.332031 291.75 L 655.433594 291.363281 L 655.53125 290.90625 L 655.621094 290.371094 L 655.707031 289.75 L 655.792969 289.042969 L 655.871094 288.242188 L 655.882812 288.191406 L 655.890625 288.132812 L 655.894531 288.070312 L 655.902344 288.003906 L 655.90625 287.9375 L 655.910156 287.878906 L 655.914062 287.824219 L 655.917969 287.785156 L 655.917969 287.746094 Z M 650.292969 287.746094 "/>
<path style=" stroke:none;fill-rule:nonzero;fill:rgb(0%,0%,0%);fill-opacity:1;" d="M 659.082031 286.457031 L 659.195312 286.113281 L 659.304688 285.738281 L 659.402344 285.339844 L 659.492188 284.921875 L 659.574219 284.496094 L 659.648438 284.066406 L 659.710938 283.640625 L 659.761719 283.222656 L 659.804688 282.820312 L 659.832031 282.4375 L 658.992188 282.316406 L 658.957031 282.691406 L 658.910156 283.085938 L 658.855469 283.496094 L 658.789062 283.910156 L 658.714844 284.320312 L 658.632812 284.726562 L 658.539062 285.121094 L 658.4375 285.492188 L 658.332031 285.839844 L 658.210938 286.15625 Z M 660.371094 293.175781 L 661.484375 293.175781 L 661.484375 279.480469 L 660.371094 279.480469 Z M 661.585938 282.242188 L 661.714844 282.496094 L 661.839844 282.761719 L 661.964844 283.035156 L 662.085938 283.308594 L 662.199219 283.585938 L 662.308594 283.851562 L 662.40625 284.113281 L 662.492188 284.359375 L 662.566406 284.585938 L 662.621094 284.792969 L 663.460938 284.386719 L 663.402344 284.183594 L 663.324219 283.960938 L 663.230469 283.722656 L 663.128906 283.464844 L 663.015625 283.203125 L 662.894531 282.933594 L 662.769531 282.660156 L 662.636719 282.394531 L 662.503906 282.132812 L 662.367188 281.882812 Z M 668.171875 291.601562 L 668.171875 287.851562 L 671.234375 287.851562 L 671.234375 286.816406 L 668.171875 286.816406 L 668.171875 283.710938 L 671.5625 283.710938 L 671.5625 282.648438 L 668.171875 282.648438 L 668.171875 279.542969 L 667.0625 279.542969 L 667.0625 282.648438 L 665.1875 282.648438 L 665.25 282.425781 L 665.425781 281.746094 L 665.535156 281.285156 L 665.585938 281.050781 L 665.632812 280.820312 L 665.683594 280.585938 L 665.726562 280.351562 L 664.648438 280.171875 L 664.535156 280.78125 L 664.410156 281.386719 L 664.269531 281.980469 L 664.109375 282.5625 L 663.9375 283.125 L 663.75 283.664062 L 663.542969 284.179688 L 663.324219 284.664062 L 663.085938 285.113281 L 662.832031 285.527344 L 662.921875 285.566406 L 663.019531 285.613281 L 663.125 285.660156 L 663.34375 285.769531 L 663.453125 285.828125 L 663.5625 285.882812 L 663.660156 285.9375 L 663.746094 285.988281 L 663.824219 286.035156 L 663.941406 285.839844 L 664.058594 285.632812 L 664.171875 285.421875 L 664.28125 285.199219 L 664.386719 284.96875 L 664.492188 284.734375 L 664.589844 284.488281 L 664.6875 284.238281 L 664.78125 283.976562 L 664.871094 283.710938 L 667.0625 283.710938 L 667.0625 286.816406 L 663.882812 286.816406 L 663.882812 287.851562 L 667.0625 287.851562 L 667.0625 291.601562 L 662.773438 291.601562 L 662.773438 292.667969 L 671.921875 292.667969 L 671.921875 291.601562 Z M 668.171875 291.601562 "/>
<path style=" stroke:none;fill-rule:nonzero;fill:rgb(0%,0%,0%);fill-opacity:1;" d="M 653.398438 301.457031 L 653.25 302.078125 L 653.085938 302.667969 L 652.90625 303.230469 L 652.703125 303.765625 L 652.484375 304.269531 L 652.242188 304.75 L 651.980469 305.207031 L 651.691406 305.636719 L 651.378906 306.042969 L 651.042969 306.421875 L 650.640625 306.242188 L 649.835938 305.898438 L 649.433594 305.734375 L 649.035156 305.574219 L 648.636719 305.417969 L 648.242188 305.265625 L 647.851562 305.121094 L 647.464844 304.980469 L 647.082031 304.847656 L 647.222656 304.53125 L 647.363281 304.210938 L 647.507812 303.882812 L 647.652344 303.546875 L 647.800781 303.207031 L 647.945312 302.863281 L 648.09375 302.515625 L 648.390625 301.8125 L 648.539062 301.457031 Z M 656.996094 301.457031 L 656.996094 300.332031 L 649.003906 300.332031 L 649.144531 299.980469 L 649.285156 299.632812 L 649.425781 299.289062 L 649.5625 298.945312 L 649.828125 298.273438 L 649.957031 297.945312 L 650.082031 297.621094 L 650.203125 297.300781 L 650.324219 296.988281 L 649.136719 296.777344 L 649.019531 297.105469 L 648.894531 297.441406 L 648.765625 297.785156 L 648.628906 298.136719 L 648.492188 298.492188 L 648.351562 298.855469 L 648.207031 299.21875 L 648.058594 299.585938 L 647.910156 299.957031 L 647.757812 300.332031 L 643.558594 300.332031 L 643.558594 301.457031 L 647.292969 301.457031 L 647.070312 301.980469 L 646.851562 302.5 L 646.632812 303.007812 L 646.414062 303.507812 L 646.199219 303.992188 L 645.988281 304.464844 L 645.785156 304.914062 L 645.585938 305.347656 L 645.390625 305.753906 L 645.207031 306.136719 L 646.304688 306.542969 L 646.367188 306.402344 L 646.402344 306.332031 L 646.433594 306.257812 L 646.46875 306.1875 L 646.503906 306.109375 L 646.574219 305.960938 L 646.613281 305.882812 L 646.648438 305.808594 L 646.988281 305.933594 L 647.328125 306.066406 L 647.675781 306.203125 L 648.019531 306.34375 L 648.367188 306.488281 L 648.71875 306.632812 L 649.066406 306.785156 L 649.417969 306.9375 L 649.765625 307.089844 L 650.113281 307.246094 L 649.644531 307.566406 L 649.144531 307.863281 L 648.605469 308.136719 L 648.027344 308.386719 L 647.414062 308.613281 L 646.753906 308.816406 L 646.054688 309 L 645.308594 309.164062 L 644.515625 309.3125 L 643.679688 309.4375 L 643.746094 309.523438 L 643.8125 309.617188 L 643.878906 309.71875 L 643.945312 309.828125 L 644.007812 309.9375 L 644.070312 310.050781 L 644.125 310.164062 L 644.175781 310.277344 L 644.222656 310.382812 L 644.261719 310.488281 L 645.1875 310.335938 L 646.0625 310.160156 L 646.882812 309.964844 L 647.652344 309.738281 L 648.371094 309.492188 L 649.046875 309.214844 L 649.675781 308.914062 L 650.261719 308.582031 L 650.808594 308.222656 L 651.3125 307.832031 L 651.847656 308.101562 L 652.367188 308.378906 L 652.875 308.652344 L 653.363281 308.929688 L 653.832031 309.203125 L 654.277344 309.476562 L 654.699219 309.75 L 655.09375 310.015625 L 655.460938 310.277344 L 655.796875 310.53125 L 656.636719 309.511719 L 656.296875 309.265625 L 655.929688 309.015625 L 655.535156 308.761719 L 655.113281 308.507812 L 654.671875 308.25 L 654.207031 307.988281 L 653.726562 307.730469 L 653.230469 307.472656 L 652.71875 307.214844 L 652.199219 306.960938 L 652.542969 306.535156 L 652.867188 306.082031 L 653.160156 305.605469 L 653.433594 305.097656 L 653.683594 304.5625 L 653.910156 304 L 654.117188 303.410156 L 654.304688 302.789062 L 654.476562 302.140625 L 654.628906 301.457031 Z M 656.996094 301.457031 "/>
<path style=" stroke:none;fill-rule:nonzero;fill:rgb(0%,0%,0%);fill-opacity:1;" d="M 659.082031 303.738281 L 659.195312 303.390625 L 659.304688 303.015625 L 659.402344 302.617188 L 659.492188 302.203125 L 659.574219 301.777344 L 659.648438 301.347656 L 659.710938 300.921875 L 659.761719 300.503906 L 659.804688 300.097656 L 659.832031 299.71875 L 658.992188 299.597656 L 658.957031 299.972656 L 658.910156 300.367188 L 658.855469 300.773438 L 658.789062 301.1875 L 658.714844 301.601562 L 658.632812 302.007812 L 658.539062 302.402344 L 658.4375 302.773438 L 658.332031 303.121094 L 658.210938 303.4375 Z M 660.371094 310.457031 L 661.484375 310.457031 L 661.484375 296.761719 L 660.371094 296.761719 Z M 661.585938 299.523438 L 661.714844 299.777344 L 661.839844 300.042969 L 661.964844 300.316406 L 662.085938 300.589844 L 662.199219 300.863281 L 662.308594 301.132812 L 662.40625 301.390625 L 662.492188 301.636719 L 662.566406 301.867188 L 662.621094 302.070312 L 663.460938 301.667969 L 663.402344 301.464844 L 663.324219 301.242188 L 663.230469 301 L 663.128906 300.746094 L 663.015625 300.480469 L 662.894531 300.210938 L 662.769531 299.941406 L 662.636719 299.671875 L 662.503906 299.410156 L 662.367188 299.160156 Z M 668.171875 308.882812 L 668.171875 305.132812 L 671.234375 305.132812 L 671.234375 304.097656 L 668.171875 304.097656 L 668.171875 300.992188 L 671.5625 300.992188 L 671.5625 299.925781 L 668.171875 299.925781 L 668.171875 296.820312 L 667.0625 296.820312 L 667.0625 299.925781 L 665.1875 299.925781 L 665.25 299.703125 L 665.308594 299.480469 L 665.425781 299.027344 L 665.535156 298.566406 L 665.585938 298.332031 L 665.632812 298.097656 L 665.683594 297.867188 L 665.726562 297.632812 L 664.648438 297.453125 L 664.535156 298.0625 L 664.410156 298.667969 L 664.269531 299.261719 L 664.109375 299.84375 L 663.9375 300.40625 L 663.75 300.945312 L 663.542969 301.460938 L 663.324219 301.945312 L 663.085938 302.394531 L 662.832031 302.808594 L 662.921875 302.847656 L 663.019531 302.890625 L 663.125 302.941406 L 663.453125 303.105469 L 663.5625 303.164062 L 663.660156 303.21875 L 663.746094 303.269531 L 663.824219 303.316406 L 663.941406 303.121094 L 664.058594 302.914062 L 664.171875 302.699219 L 664.28125 302.480469 L 664.386719 302.25 L 664.492188 302.011719 L 664.589844 301.769531 L 664.6875 301.515625 L 664.78125 301.257812 L 664.871094 300.992188 L 667.0625 300.992188 L 667.0625 304.097656 L 663.882812 304.097656 L 663.882812 305.132812 L 667.0625 305.132812 L 667.0625 308.882812 L 662.773438 308.882812 L 662.773438 309.945312 L 671.921875 309.945312 L 671.921875 308.882812 Z M 668.171875 308.882812 "/>
</g>
</svg>
