<?xml version="1.0" encoding="UTF-8"?>
<svg xmlns="http://www.w3.org/2000/svg" xmlns:xlink="http://www.w3.org/1999/xlink" width="720pt" height="360pt" viewBox="0 0 720 360" version="1.1">
<defs>
<clipPath id="clip1">
  <path d="M 69 0 L 72 0 L 72 335.289062 L 69 335.289062 Z M 69 0 "/>
</clipPath>
<clipPath id="clip2">
  <path d="M 221 0 L 224 0 L 224 335.289062 L 221 335.289062 Z M 221 0 "/>
</clipPath>
<clipPath id="clip3">
  <path d="M 374 0 L 377 0 L 377 335.289062 L 374 335.289062 Z M 374 0 "/>
</clipPath>
<clipPath id="clip4">
  <path d="M 526 0 L 529 0 L 529 335.289062 L 526 335.289062 Z M 526 0 "/>
</clipPath>
<clipPath id="clip5">
  <path d="M 679 0 L 682 0 L 682 335.289062 L 679 335.289062 Z M 679 0 "/>
</clipPath>
</defs>
<g id="surface55">
<rect x="0" y="0" width="720" height="360" style="fill:rgb(100%,100%,100%);fill-opacity:1;stroke:none;"/>
<g clip-path="url(#clip1)" clip-rule="nonzero">
<path style="fill:none;stroke-width:1.939961;stroke-linecap:butt;stroke-linejoin:round;stroke:rgb(92.156863%,92.156863%,92.156863%);stroke-opacity:1;stroke-miterlimit:10;" d="M 70.472656 335.289062 L 70.472656 0 "/>
</g>
<g clip-path="url(#clip2)" clip-rule="nonzero">
<path style="fill:none;stroke-width:1.939961;stroke-linecap:butt;stroke-linejoin:round;stroke:rgb(92.156863%,92.156863%,92.156863%);stroke-opacity:1;stroke-miterlimit:10;" d="M 222.871094 335.289062 L 222.871094 0 "/>
</g>
<g clip-path="url(#clip3)" clip-rule="nonzero">
<path style="fill:none;stroke-width:1.939961;stroke-linecap:butt;stroke-linejoin:round;stroke:rgb(92.156863%,92.156863%,92.156863%);stroke-opacity:1;stroke-miterlimit:10;" d="M 375.265625 335.289062 L 375.265625 0 "/>
</g>
<g clip-path="url(#clip4)" clip-rule="nonzero">
<path style="fill:none;stroke-width:1.939961;stroke-linecap:butt;stroke-linejoin:round;stroke:rgb(92.156863%,92.156863%,92.156863%);stroke-opacity:1;stroke-miterlimit:10;" d="M 527.664062 335.289062 L 527.664062 0 "/>
</g>
<g clip-path="url(#clip5)" clip-rule="nonzero">
<path style="fill:none;stroke-width:1.939961;stroke-linecap:butt;stroke-linejoin:round;stroke:rgb(92.156863%,92.156863%,92.156863%);stroke-opacity:1;stroke-miterlimit:10;" d="M 680.058594 335.289062 L 680.058594 0 "/>
</g>
<path style=" stroke:none;fill-rule:nonzero;fill:rgb(25.882353%,66.666667%,78.039216%);fill-opacity:1;" d="M 70.472656 62.867188 L 295.320312 62.867188 L 295.320312 15.71875 L 70.472656 15.71875 Z M 70.472656 62.867188 "/>
<path style=" stroke:none;fill-rule:nonzero;fill:rgb(85.490196%,31.372549%,9.803922%);fill-opacity:1;" d="M 70.472656 110.015625 L 660.605469 110.015625 L 660.605469 62.867188 L 70.472656 62.867188 Z M 70.472656 110.015625 "/>
<path style=" stroke:none;fill-rule:nonzero;fill:rgb(25.882353%,66.666667%,78.039216%);fill-opacity:1;" d="M 70.472656 167.644531 L 166.425781 167.644531 L 166.425781 120.496094 L 70.472656 120.496094 Z M 70.472656 167.644531 "/>
<path style=" stroke:none;fill-rule:nonzero;fill:rgb(85.490196%,31.372549%,9.803922%);fill-opacity:1;" d="M 70.472656 214.792969 L 631.933594 214.792969 L 631.933594 167.644531 L 70.472656 167.644531 Z M 70.472656 214.792969 "/>
<path style=" stroke:none;fill-rule:nonzero;fill:rgb(25.882353%,66.666667%,78.039216%);fill-opacity:1;" d="M 70.472656 272.421875 L 153.039062 272.421875 L 153.039062 225.273438 L 70.472656 225.273438 Z M 70.472656 272.421875 "/>
<path style=" stroke:none;fill-rule:nonzero;fill:rgb(85.490196%,31.372549%,9.803922%);fill-opacity:1;" d="M 70.472656 319.574219 L 375.265625 319.574219 L 375.265625 272.425781 L 70.472656 272.425781 Z M 70.472656 319.574219 "/>
<path style=" stroke:none;fill-rule:nonzero;fill:rgb(30.196078%,30.196078%,30.196078%);fill-opacity:1;" d="M 2.015625 266.453125 L 2.015625 267.640625 L 14.015625 267.640625 L 14.015625 266.453125 Z M 3.039062 271.640625 L 3.039062 272.839844 L 12.769531 272.839844 L 12.769531 271.640625 Z M 1.105469 277.160156 L 1.105469 278.359375 L 14.878906 278.359375 L 14.878906 277.160156 Z M 1.105469 277.160156 "/>
<path style=" stroke:none;fill-rule:nonzero;fill:rgb(30.196078%,30.196078%,30.196078%);fill-opacity:1;" d="M 19.742188 267.253906 L 19.832031 267.441406 L 19.914062 267.628906 L 20 267.824219 L 20.078125 268.015625 L 20.152344 268.207031 L 20.222656 268.394531 L 20.289062 268.574219 L 20.34375 268.75 L 20.394531 268.910156 L 20.433594 269.0625 L 21.472656 268.679688 L 21.445312 268.5625 L 21.40625 268.4375 L 21.363281 268.300781 L 21.3125 268.160156 L 21.257812 268.015625 L 21.195312 267.863281 L 21.0625 267.558594 L 20.988281 267.40625 L 20.910156 267.253906 L 23.808594 267.253906 L 23.808594 266.246094 L 19.648438 266.246094 L 19.757812 266.027344 L 19.8125 265.914062 L 19.863281 265.804688 L 19.914062 265.691406 L 19.960938 265.582031 L 20.101562 265.242188 L 20.144531 265.125 L 19.023438 264.839844 L 18.851562 265.257812 L 18.65625 265.671875 L 18.445312 266.082031 L 18.21875 266.484375 L 17.976562 266.875 L 17.71875 267.25 L 17.453125 267.609375 L 17.171875 267.949219 L 16.886719 268.261719 L 16.59375 268.550781 L 16.679688 268.605469 L 16.777344 268.664062 L 16.882812 268.734375 L 16.992188 268.808594 L 17.105469 268.882812 L 17.214844 268.960938 L 17.316406 269.035156 L 17.414062 269.109375 L 17.496094 269.175781 L 17.566406 269.238281 L 17.730469 269.070312 L 17.890625 268.894531 L 18.046875 268.710938 L 18.203125 268.523438 L 18.355469 268.324219 L 18.503906 268.121094 L 18.652344 267.914062 L 18.796875 267.699219 L 18.9375 267.476562 L 19.070312 267.253906 Z M 19.617188 276.246094 L 19.925781 276.460938 L 20.238281 276.695312 L 20.550781 276.941406 L 20.855469 277.195312 L 21.152344 277.453125 L 21.429688 277.714844 L 21.691406 277.972656 L 21.925781 278.222656 L 22.132812 278.464844 L 22.304688 278.695312 L 23.214844 277.941406 L 23.039062 277.714844 L 22.824219 277.476562 L 22.582031 277.226562 L 22.316406 276.976562 L 22.027344 276.722656 L 21.726562 276.472656 L 21.414062 276.230469 L 21.101562 275.996094 L 20.789062 275.777344 L 20.480469 275.574219 Z M 31.230469 273.109375 L 31.230469 272.070312 L 24.574219 272.070312 L 24.574219 270.648438 L 29.726562 270.648438 L 29.726562 269.640625 L 24.574219 269.640625 L 24.574219 268.535156 L 24.320312 268.535156 L 24.425781 268.421875 L 24.527344 268.304688 L 24.632812 268.183594 L 24.734375 268.058594 L 24.835938 267.929688 L 24.933594 267.800781 L 25.03125 267.667969 L 25.21875 267.394531 L 25.3125 267.253906 L 26.398438 267.253906 L 26.542969 267.441406 L 26.683594 267.636719 L 26.820312 267.835938 L 26.949219 268.035156 L 27.074219 268.238281 L 27.1875 268.4375 L 27.292969 268.628906 L 27.382812 268.816406 L 27.457031 268.992188 L 27.519531 269.160156 L 28.542969 268.710938 L 28.488281 268.585938 L 28.421875 268.453125 L 28.347656 268.3125 L 28.265625 268.167969 L 28.175781 268.019531 L 28.082031 267.867188 L 27.984375 267.710938 L 27.773438 267.40625 L 27.664062 267.253906 L 31.070312 267.253906 L 31.070312 266.246094 L 25.886719 266.246094 L 25.945312 266.132812 L 25.996094 266.019531 L 26.050781 265.902344 L 26.238281 265.449219 L 26.324219 265.214844 L 26.367188 265.09375 L 25.230469 264.839844 L 25.085938 265.234375 L 24.914062 265.628906 L 24.726562 266.015625 L 24.515625 266.390625 L 24.285156 266.753906 L 24.042969 267.101562 L 23.785156 267.433594 L 23.515625 267.742188 L 23.234375 268.03125 L 22.945312 268.292969 L 22.976562 268.316406 L 23.011719 268.335938 L 23.050781 268.359375 L 23.089844 268.386719 L 23.183594 268.441406 L 23.230469 268.472656 L 23.277344 268.5 L 23.328125 268.535156 L 23.375 268.566406 L 23.375 269.640625 L 18.382812 269.640625 L 18.382812 270.648438 L 23.375 270.648438 L 23.375 272.070312 L 16.816406 272.070312 L 16.816406 273.109375 L 26.625 273.109375 L 26.625 274.519531 L 17.328125 274.519531 L 17.328125 275.558594 L 26.625 275.558594 L 26.625 278.101562 L 26.621094 278.164062 L 26.613281 278.21875 L 26.601562 278.265625 L 26.582031 278.300781 L 26.554688 278.332031 L 26.519531 278.355469 L 26.476562 278.371094 L 26.417969 278.382812 L 26.351562 278.390625 L 26.273438 278.390625 L 26.167969 278.398438 L 26.023438 278.40625 L 25.847656 278.410156 L 25.644531 278.414062 L 25.15625 278.414062 L 24.878906 278.410156 L 24.582031 278.40625 L 24.273438 278.398438 L 23.953125 278.390625 L 24.003906 278.492188 L 24.058594 278.597656 L 24.109375 278.707031 L 24.160156 278.820312 L 24.210938 278.9375 L 24.253906 279.058594 L 24.296875 279.175781 L 24.332031 279.289062 L 24.359375 279.402344 L 24.382812 279.511719 L 24.769531 279.511719 L 25.128906 279.507812 L 25.460938 279.503906 L 25.769531 279.492188 L 26.050781 279.480469 L 26.3125 279.460938 L 26.546875 279.4375 L 26.761719 279.40625 L 26.949219 279.367188 L 27.121094 279.320312 L 27.273438 279.257812 L 27.402344 279.1875 L 27.511719 279.109375 L 27.601562 279.015625 L 27.675781 278.910156 L 27.734375 278.789062 L 27.773438 278.652344 L 27.804688 278.496094 L 27.820312 278.316406 L 27.824219 278.117188 L 27.824219 275.558594 L 30.816406 275.558594 L 30.816406 274.519531 L 27.824219 274.519531 L 27.824219 273.109375 Z M 31.230469 273.109375 "/>
<path style=" stroke:none;fill-rule:nonzero;fill:rgb(30.196078%,30.196078%,30.196078%);fill-opacity:1;" d="M 2.304688 162.429688 L 2.304688 163.691406 L 13.710938 163.691406 L 13.710938 162.429688 Z M 0.960938 171.851562 L 0.960938 173.148438 L 15.054688 173.148438 L 15.054688 171.851562 Z M 0.960938 171.851562 "/>
<path style=" stroke:none;fill-rule:nonzero;fill:rgb(30.196078%,30.196078%,30.196078%);fill-opacity:1;" d="M 19.742188 162.476562 L 19.832031 162.664062 L 19.914062 162.851562 L 20 163.042969 L 20.078125 163.238281 L 20.152344 163.429688 L 20.222656 163.617188 L 20.289062 163.796875 L 20.34375 163.972656 L 20.394531 164.132812 L 20.433594 164.285156 L 21.472656 163.902344 L 21.445312 163.785156 L 21.40625 163.660156 L 21.363281 163.523438 L 21.3125 163.382812 L 21.257812 163.238281 L 21.195312 163.085938 L 21.0625 162.78125 L 20.988281 162.628906 L 20.910156 162.476562 L 23.808594 162.476562 L 23.808594 161.46875 L 19.648438 161.46875 L 19.703125 161.359375 L 19.757812 161.246094 L 19.8125 161.136719 L 19.863281 161.027344 L 19.914062 160.914062 L 19.960938 160.804688 L 20.101562 160.464844 L 20.144531 160.347656 L 19.023438 160.0625 L 18.851562 160.476562 L 18.65625 160.894531 L 18.445312 161.304688 L 18.21875 161.707031 L 17.976562 162.097656 L 17.71875 162.472656 L 17.453125 162.832031 L 17.171875 163.171875 L 16.886719 163.484375 L 16.59375 163.773438 L 16.679688 163.824219 L 16.777344 163.886719 L 16.882812 163.957031 L 16.992188 164.027344 L 17.105469 164.105469 L 17.214844 164.183594 L 17.316406 164.257812 L 17.414062 164.332031 L 17.496094 164.398438 L 17.566406 164.460938 L 17.730469 164.292969 L 17.890625 164.117188 L 18.046875 163.933594 L 18.203125 163.742188 L 18.355469 163.546875 L 18.503906 163.34375 L 18.652344 163.132812 L 18.796875 162.917969 L 18.9375 162.699219 L 19.070312 162.476562 Z M 19.617188 171.46875 L 19.925781 171.683594 L 20.238281 171.917969 L 20.550781 172.160156 L 20.855469 172.414062 L 21.152344 172.675781 L 21.429688 172.933594 L 21.691406 173.195312 L 21.925781 173.445312 L 22.132812 173.6875 L 22.304688 173.917969 L 23.214844 173.164062 L 23.039062 172.9375 L 22.824219 172.699219 L 22.582031 172.449219 L 22.316406 172.199219 L 22.027344 171.945312 L 21.726562 171.695312 L 21.414062 171.453125 L 21.101562 171.21875 L 20.789062 171 L 20.480469 170.796875 Z M 31.230469 168.332031 L 31.230469 167.292969 L 24.574219 167.292969 L 24.574219 165.867188 L 29.726562 165.867188 L 29.726562 164.859375 L 24.574219 164.859375 L 24.574219 163.757812 L 24.320312 163.757812 L 24.425781 163.644531 L 24.527344 163.527344 L 24.632812 163.40625 L 24.734375 163.28125 L 24.835938 163.152344 L 24.933594 163.023438 L 25.03125 162.886719 L 25.125 162.753906 L 25.21875 162.617188 L 25.3125 162.476562 L 26.398438 162.476562 L 26.542969 162.664062 L 26.683594 162.859375 L 26.820312 163.054688 L 26.949219 163.257812 L 27.074219 163.457031 L 27.1875 163.65625 L 27.292969 163.851562 L 27.382812 164.039062 L 27.457031 164.214844 L 27.519531 164.378906 L 28.542969 163.933594 L 28.488281 163.808594 L 28.421875 163.675781 L 28.347656 163.535156 L 28.265625 163.390625 L 28.175781 163.242188 L 28.082031 163.089844 L 27.984375 162.933594 L 27.773438 162.628906 L 27.664062 162.476562 L 31.070312 162.476562 L 31.070312 161.46875 L 25.886719 161.46875 L 25.945312 161.355469 L 25.996094 161.238281 L 26.050781 161.125 L 26.191406 160.785156 L 26.238281 160.667969 L 26.28125 160.554688 L 26.324219 160.4375 L 26.367188 160.316406 L 25.230469 160.0625 L 25.085938 160.457031 L 24.914062 160.851562 L 24.726562 161.234375 L 24.515625 161.613281 L 24.285156 161.976562 L 24.042969 162.324219 L 23.785156 162.65625 L 23.515625 162.964844 L 23.234375 163.253906 L 22.945312 163.515625 L 22.976562 163.535156 L 23.011719 163.558594 L 23.050781 163.582031 L 23.089844 163.609375 L 23.230469 163.691406 L 23.277344 163.722656 L 23.328125 163.753906 L 23.375 163.789062 L 23.375 164.859375 L 18.382812 164.859375 L 18.382812 165.867188 L 23.375 165.867188 L 23.375 167.292969 L 16.816406 167.292969 L 16.816406 168.332031 L 26.625 168.332031 L 26.625 169.742188 L 17.328125 169.742188 L 17.328125 170.78125 L 26.625 170.78125 L 26.625 173.324219 L 26.621094 173.386719 L 26.613281 173.441406 L 26.601562 173.484375 L 26.582031 173.523438 L 26.554688 173.554688 L 26.519531 173.574219 L 26.476562 173.59375 L 26.417969 173.605469 L 26.351562 173.609375 L 26.273438 173.613281 L 26.167969 173.621094 L 26.023438 173.628906 L 25.847656 173.632812 L 25.644531 173.636719 L 25.15625 173.636719 L 24.878906 173.632812 L 24.582031 173.628906 L 24.273438 173.621094 L 23.953125 173.613281 L 24.003906 173.710938 L 24.058594 173.820312 L 24.109375 173.929688 L 24.160156 174.042969 L 24.210938 174.160156 L 24.296875 174.394531 L 24.332031 174.511719 L 24.359375 174.625 L 24.382812 174.734375 L 24.769531 174.730469 L 25.128906 174.730469 L 25.460938 174.722656 L 25.769531 174.714844 L 26.050781 174.703125 L 26.3125 174.683594 L 26.546875 174.660156 L 26.761719 174.628906 L 26.949219 174.589844 L 27.121094 174.539062 L 27.273438 174.480469 L 27.402344 174.410156 L 27.511719 174.328125 L 27.601562 174.238281 L 27.675781 174.132812 L 27.734375 174.011719 L 27.773438 173.875 L 27.804688 173.71875 L 27.820312 173.539062 L 27.824219 173.339844 L 27.824219 170.78125 L 30.816406 170.78125 L 30.816406 169.742188 L 27.824219 169.742188 L 27.824219 168.332031 Z M 31.230469 168.332031 "/>
<path style=" stroke:none;fill-rule:nonzero;fill:rgb(30.196078%,30.196078%,30.196078%);fill-opacity:1;" d="M 0.769531 61.859375 L 0.769531 63.15625 L 15.296875 63.15625 L 15.296875 61.859375 Z M 0.769531 61.859375 "/>
<path style=" stroke:none;fill-rule:nonzero;fill:rgb(30.196078%,30.196078%,30.196078%);fill-opacity:1;" d="M 19.742188 57.699219 L 19.832031 57.882812 L 19.914062 58.074219 L 20 58.265625 L 20.078125 58.460938 L 20.152344 58.652344 L 20.222656 58.839844 L 20.289062 59.019531 L 20.34375 59.191406 L 20.394531 59.355469 L 20.433594 59.507812 L 21.472656 59.121094 L 21.445312 59.007812 L 21.40625 58.882812 L 21.363281 58.746094 L 21.3125 58.605469 L 21.257812 58.457031 L 21.195312 58.308594 L 21.0625 58.003906 L 20.988281 57.847656 L 20.910156 57.699219 L 23.808594 57.699219 L 23.808594 56.691406 L 19.648438 56.691406 L 19.703125 56.582031 L 19.757812 56.46875 L 19.8125 56.359375 L 19.863281 56.25 L 19.914062 56.136719 L 19.960938 56.023438 L 20.007812 55.914062 L 20.054688 55.800781 L 20.101562 55.683594 L 20.144531 55.570312 L 19.023438 55.28125 L 18.851562 55.699219 L 18.65625 56.117188 L 18.445312 56.527344 L 18.21875 56.929688 L 17.976562 57.320312 L 17.71875 57.695312 L 17.453125 58.054688 L 17.171875 58.390625 L 16.886719 58.707031 L 16.59375 58.996094 L 16.679688 59.046875 L 16.777344 59.109375 L 16.882812 59.175781 L 16.992188 59.25 L 17.105469 59.328125 L 17.214844 59.402344 L 17.316406 59.480469 L 17.414062 59.554688 L 17.496094 59.621094 L 17.566406 59.683594 L 17.730469 59.515625 L 17.890625 59.339844 L 18.046875 59.15625 L 18.203125 58.964844 L 18.355469 58.769531 L 18.503906 58.566406 L 18.652344 58.355469 L 18.796875 58.140625 L 18.9375 57.921875 L 19.070312 57.699219 Z M 19.617188 66.691406 L 19.925781 66.90625 L 20.238281 67.140625 L 20.550781 67.382812 L 20.855469 67.636719 L 21.152344 67.898438 L 21.429688 68.15625 L 21.691406 68.414062 L 21.925781 68.667969 L 22.132812 68.910156 L 22.304688 69.140625 L 23.214844 68.386719 L 23.039062 68.160156 L 22.824219 67.917969 L 22.582031 67.671875 L 22.316406 67.417969 L 22.027344 67.167969 L 21.726562 66.917969 L 21.414062 66.671875 L 21.101562 66.441406 L 20.789062 66.222656 L 20.480469 66.019531 Z M 31.230469 63.554688 L 31.230469 62.515625 L 24.574219 62.515625 L 24.574219 61.089844 L 29.726562 61.089844 L 29.726562 60.082031 L 24.574219 60.082031 L 24.574219 58.980469 L 24.320312 58.980469 L 24.425781 58.867188 L 24.527344 58.75 L 24.632812 58.628906 L 24.734375 58.503906 L 24.835938 58.375 L 25.03125 58.109375 L 25.125 57.976562 L 25.21875 57.835938 L 25.3125 57.699219 L 26.398438 57.699219 L 26.542969 57.886719 L 26.683594 58.078125 L 26.820312 58.277344 L 26.949219 58.480469 L 27.074219 58.679688 L 27.1875 58.878906 L 27.292969 59.074219 L 27.382812 59.261719 L 27.457031 59.4375 L 27.519531 59.601562 L 28.542969 59.15625 L 28.488281 59.03125 L 28.421875 58.898438 L 28.347656 58.757812 L 28.265625 58.613281 L 28.175781 58.460938 L 28.082031 58.308594 L 27.984375 58.15625 L 27.878906 58.003906 L 27.773438 57.847656 L 27.664062 57.699219 L 31.070312 57.699219 L 31.070312 56.691406 L 25.886719 56.691406 L 25.945312 56.574219 L 25.996094 56.460938 L 26.050781 56.347656 L 26.191406 56.007812 L 26.238281 55.890625 L 26.367188 55.539062 L 25.230469 55.28125 L 25.085938 55.679688 L 24.914062 56.074219 L 24.726562 56.457031 L 24.515625 56.832031 L 24.285156 57.195312 L 24.042969 57.546875 L 23.785156 57.875 L 23.515625 58.1875 L 23.234375 58.476562 L 22.945312 58.738281 L 22.976562 58.757812 L 23.011719 58.78125 L 23.089844 58.828125 L 23.136719 58.855469 L 23.183594 58.886719 L 23.230469 58.914062 L 23.277344 58.945312 L 23.328125 58.976562 L 23.375 59.011719 L 23.375 60.082031 L 18.382812 60.082031 L 18.382812 61.089844 L 23.375 61.089844 L 23.375 62.515625 L 16.816406 62.515625 L 16.816406 63.554688 L 26.625 63.554688 L 26.625 64.960938 L 17.328125 64.960938 L 17.328125 66.003906 L 26.625 66.003906 L 26.625 68.546875 L 26.621094 68.609375 L 26.613281 68.664062 L 26.601562 68.707031 L 26.582031 68.746094 L 26.554688 68.773438 L 26.519531 68.796875 L 26.476562 68.816406 L 26.417969 68.828125 L 26.351562 68.832031 L 26.273438 68.835938 L 26.167969 68.84375 L 26.023438 68.851562 L 25.847656 68.855469 L 25.644531 68.859375 L 25.15625 68.859375 L 24.878906 68.855469 L 24.582031 68.851562 L 24.273438 68.84375 L 23.953125 68.835938 L 24.003906 68.933594 L 24.058594 69.039062 L 24.160156 69.265625 L 24.210938 69.382812 L 24.296875 69.617188 L 24.332031 69.734375 L 24.359375 69.847656 L 24.382812 69.953125 L 25.128906 69.953125 L 25.460938 69.945312 L 25.769531 69.9375 L 26.050781 69.925781 L 26.3125 69.90625 L 26.546875 69.882812 L 26.761719 69.851562 L 26.949219 69.8125 L 27.121094 69.761719 L 27.273438 69.703125 L 27.402344 69.632812 L 27.511719 69.550781 L 27.601562 69.460938 L 27.675781 69.355469 L 27.734375 69.234375 L 27.773438 69.097656 L 27.804688 68.941406 L 27.820312 68.761719 L 27.824219 68.5625 L 27.824219 66.003906 L 30.816406 66.003906 L 30.816406 64.960938 L 27.824219 64.960938 L 27.824219 63.554688 Z M 31.230469 63.554688 "/>
<path style=" stroke:none;fill-rule:nonzero;fill:rgb(30.196078%,30.196078%,30.196078%);fill-opacity:1;" d="M 63.113281 356.207031 L 63.753906 356.148438 L 64.347656 355.964844 L 64.882812 355.660156 L 65.359375 355.230469 L 65.769531 354.683594 L 66.117188 354.011719 L 66.394531 353.214844 L 66.59375 352.296875 L 66.71875 351.257812 L 66.761719 350.097656 L 66.71875 348.9375 L 66.59375 347.90625 L 66.394531 346.996094 L 66.117188 346.210938 L 65.769531 345.546875 L 65.359375 345.007812 L 64.882812 344.585938 L 64.347656 344.285156 L 63.753906 344.109375 L 63.113281 344.046875 L 62.464844 344.105469 L 61.871094 344.285156 L 61.332031 344.582031 L 60.855469 345 L 60.441406 345.542969 L 60.09375 346.203125 L 59.816406 346.992188 L 59.613281 347.898438 L 59.492188 348.933594 L 59.449219 350.097656 L 59.492188 351.257812 L 59.613281 352.296875 L 59.816406 353.214844 L 60.09375 354.011719 L 60.441406 354.683594 L 60.855469 355.230469 L 61.332031 355.660156 L 61.871094 355.964844 L 62.464844 356.148438 Z M 63.113281 355.039062 L 62.722656 354.996094 L 62.363281 354.859375 L 62.035156 354.625 L 61.742188 354.296875 L 61.488281 353.863281 L 61.273438 353.328125 L 61.101562 352.6875 L 60.976562 351.9375 L 60.898438 351.074219 L 60.871094 350.097656 L 60.898438 349.128906 L 60.976562 348.273438 L 61.101562 347.53125 L 61.273438 346.898438 L 61.488281 346.371094 L 61.742188 345.949219 L 62.035156 345.621094 L 62.363281 345.394531 L 62.722656 345.261719 L 63.113281 345.214844 L 63.496094 345.261719 L 63.855469 345.394531 L 64.179688 345.621094 L 64.46875 345.949219 L 64.722656 346.371094 L 64.9375 346.898438 L 65.109375 347.53125 L 65.234375 348.273438 L 65.3125 349.128906 L 65.335938 350.097656 L 65.3125 351.074219 L 65.234375 351.9375 L 65.109375 352.6875 L 64.9375 353.328125 L 64.722656 353.863281 L 64.46875 354.296875 L 64.179688 354.625 L 63.855469 354.859375 L 63.496094 354.996094 Z M 63.113281 355.039062 "/>
<path style=" stroke:none;fill-rule:nonzero;fill:rgb(30.196078%,30.196078%,30.196078%);fill-opacity:1;" d="M 70.824219 351.457031 L 71.292969 351.414062 L 71.722656 351.296875 L 72.113281 351.097656 L 72.464844 350.824219 L 72.765625 350.480469 L 73.023438 350.0625 L 73.226562 349.578125 L 73.375 349.023438 L 73.464844 348.40625 L 73.496094 347.726562 L 73.464844 347.054688 L 73.375 346.441406 L 73.226562 345.894531 L 73.023438 345.417969 L 72.765625 345.007812 L 72.464844 344.664062 L 72.113281 344.398438 L 71.722656 344.203125 L 71.292969 344.085938 L 70.824219 344.046875 L 70.363281 344.085938 L 69.933594 344.203125 L 69.546875 344.398438 L 69.199219 344.664062 L 68.898438 345.007812 L 68.644531 345.417969 L 68.441406 345.894531 L 68.292969 346.441406 L 68.199219 347.054688 L 68.167969 347.726562 L 68.199219 348.40625 L 68.292969 349.023438 L 68.441406 349.578125 L 68.644531 350.0625 L 68.898438 350.480469 L 69.199219 350.824219 L 69.546875 351.097656 L 69.933594 351.296875 L 70.363281 351.414062 Z M 70.824219 350.542969 L 70.558594 350.515625 L 70.3125 350.429688 L 70.085938 350.289062 L 69.882812 350.09375 L 69.707031 349.839844 L 69.558594 349.527344 L 69.4375 349.160156 L 69.347656 348.738281 L 69.292969 348.261719 L 69.273438 347.726562 L 69.292969 347.195312 L 69.347656 346.71875 L 69.4375 346.300781 L 69.558594 345.9375 L 69.707031 345.632812 L 69.882812 345.386719 L 70.085938 345.191406 L 70.3125 345.054688 L 70.558594 344.972656 L 70.824219 344.945312 L 71.09375 344.972656 L 71.34375 345.054688 L 71.574219 345.191406 L 71.777344 345.386719 L 71.957031 345.632812 L 72.109375 345.9375 L 72.230469 346.300781 L 72.320312 346.71875 L 72.375 347.195312 L 72.394531 347.726562 L 72.375 348.261719 L 72.320312 348.738281 L 72.230469 349.160156 L 72.109375 349.527344 L 71.957031 349.839844 L 71.777344 350.09375 L 71.574219 350.289062 L 71.34375 350.429688 L 71.09375 350.515625 Z M 71.175781 356.207031 L 72.152344 356.207031 L 78.632812 344.046875 L 77.640625 344.046875 Z M 79 356.207031 L 79.464844 356.167969 L 79.890625 356.050781 L 80.28125 355.855469 L 80.628906 355.582031 L 80.929688 355.238281 L 81.183594 354.824219 L 81.386719 354.34375 L 81.535156 353.792969 L 81.625 353.175781 L 81.65625 352.496094 L 81.625 351.820312 L 81.535156 351.210938 L 81.386719 350.664062 L 81.183594 350.183594 L 80.929688 349.773438 L 80.628906 349.433594 L 80.28125 349.167969 L 79.890625 348.972656 L 79.464844 348.855469 L 79 348.816406 L 78.539062 348.855469 L 78.109375 348.972656 L 77.71875 349.167969 L 77.371094 349.433594 L 77.066406 349.773438 L 76.808594 350.183594 L 76.605469 350.664062 L 76.453125 351.210938 L 76.359375 351.820312 L 76.328125 352.496094 L 76.359375 353.175781 L 76.453125 353.792969 L 76.605469 354.34375 L 76.808594 354.824219 L 77.066406 355.238281 L 77.371094 355.582031 L 77.71875 355.855469 L 78.109375 356.050781 L 78.539062 356.167969 Z M 79 355.3125 L 78.730469 355.285156 L 78.484375 355.199219 L 78.257812 355.058594 L 78.054688 354.859375 L 77.878906 354.605469 L 77.726562 354.296875 L 77.609375 353.929688 L 77.519531 353.507812 L 77.46875 353.03125 L 77.449219 352.496094 L 77.46875 351.964844 L 77.519531 351.488281 L 77.609375 351.070312 L 77.726562 350.707031 L 77.878906 350.402344 L 78.054688 350.152344 L 78.257812 349.960938 L 78.484375 349.820312 L 78.730469 349.738281 L 79 349.710938 L 79.265625 349.738281 L 79.511719 349.820312 L 79.738281 349.960938 L 79.941406 350.152344 L 80.117188 350.402344 L 80.269531 350.707031 L 80.390625 351.070312 L 80.480469 351.488281 L 80.535156 351.964844 L 80.554688 352.496094 L 80.535156 353.03125 L 80.480469 353.507812 L 80.390625 353.929688 L 80.269531 354.296875 L 80.117188 354.605469 L 79.941406 354.859375 L 79.738281 355.058594 L 79.511719 355.199219 L 79.265625 355.285156 Z M 79 355.3125 "/>
<path style=" stroke:none;fill-rule:nonzero;fill:rgb(30.196078%,30.196078%,30.196078%);fill-opacity:1;" d="M 207.324219 356 L 214.703125 356 L 214.703125 354.734375 L 211.453125 354.734375 L 211.273438 354.738281 L 211.085938 354.742188 L 210.894531 354.75 L 210.699219 354.761719 L 210.5 354.773438 L 210.300781 354.789062 L 210.105469 354.800781 L 209.910156 354.816406 L 209.71875 354.832031 L 209.535156 354.847656 L 210.332031 354.070312 L 211.066406 353.308594 L 211.738281 352.554688 L 212.339844 351.816406 L 212.863281 351.082031 L 213.300781 350.359375 L 213.652344 349.640625 L 213.914062 348.929688 L 214.070312 348.222656 L 214.125 347.519531 L 214.085938 346.914062 L 213.972656 346.355469 L 213.785156 345.847656 L 213.53125 345.390625 L 213.207031 344.996094 L 212.824219 344.667969 L 212.378906 344.402344 L 211.878906 344.207031 L 211.324219 344.089844 L 210.71875 344.046875 L 210.285156 344.066406 L 209.878906 344.128906 L 209.496094 344.226562 L 209.136719 344.355469 L 208.792969 344.523438 L 208.464844 344.71875 L 208.152344 344.945312 L 207.847656 345.195312 L 207.550781 345.476562 L 207.261719 345.777344 L 208.109375 346.609375 L 208.308594 346.382812 L 208.515625 346.171875 L 208.734375 345.976562 L 208.964844 345.796875 L 209.207031 345.640625 L 209.457031 345.503906 L 209.714844 345.398438 L 209.980469 345.316406 L 210.257812 345.265625 L 210.542969 345.246094 L 210.957031 345.277344 L 211.324219 345.359375 L 211.652344 345.496094 L 211.929688 345.675781 L 212.167969 345.902344 L 212.359375 346.171875 L 212.511719 346.472656 L 212.617188 346.8125 L 212.679688 347.175781 L 212.703125 347.566406 L 212.652344 348.183594 L 212.496094 348.820312 L 212.234375 349.484375 L 211.871094 350.175781 L 211.394531 350.902344 L 210.808594 351.664062 L 210.109375 352.464844 L 209.296875 353.308594 L 208.371094 354.195312 L 207.324219 355.136719 Z M 207.324219 356 "/>
<path style=" stroke:none;fill-rule:nonzero;fill:rgb(30.196078%,30.196078%,30.196078%);fill-opacity:1;" d="M 219.679688 356.207031 L 220.265625 356.164062 L 220.839844 356.035156 L 221.382812 355.824219 L 221.886719 355.53125 L 222.34375 355.15625 L 222.738281 354.707031 L 223.0625 354.183594 L 223.308594 353.585938 L 223.464844 352.914062 L 223.519531 352.175781 L 223.472656 351.445312 L 223.335938 350.800781 L 223.121094 350.234375 L 222.835938 349.75 L 222.480469 349.347656 L 222.070312 349.019531 L 221.605469 348.765625 L 221.097656 348.589844 L 220.554688 348.484375 L 219.980469 348.449219 L 219.777344 348.453125 L 219.582031 348.46875 L 219.394531 348.492188 L 219.214844 348.527344 L 219.042969 348.570312 L 218.878906 348.625 L 218.714844 348.683594 L 218.554688 348.753906 L 218.394531 348.828125 L 218.238281 348.910156 L 218.527344 345.519531 L 222.957031 345.519531 L 222.957031 344.257812 L 217.246094 344.257812 L 216.878906 349.761719 L 217.660156 350.238281 L 217.859375 350.113281 L 218.046875 349.996094 L 218.230469 349.894531 L 218.414062 349.804688 L 218.597656 349.726562 L 218.78125 349.664062 L 218.972656 349.617188 L 219.175781 349.582031 L 219.386719 349.558594 L 219.613281 349.550781 L 220.039062 349.582031 L 220.433594 349.667969 L 220.789062 349.8125 L 221.105469 350.007812 L 221.382812 350.257812 L 221.613281 350.558594 L 221.796875 350.90625 L 221.933594 351.300781 L 222.015625 351.742188 L 222.046875 352.222656 L 222.011719 352.71875 L 221.917969 353.167969 L 221.765625 353.578125 L 221.5625 353.9375 L 221.3125 354.25 L 221.023438 354.511719 L 220.695312 354.71875 L 220.335938 354.867188 L 219.953125 354.960938 L 219.550781 354.992188 L 219.15625 354.972656 L 218.792969 354.921875 L 218.453125 354.839844 L 218.140625 354.730469 L 217.851562 354.597656 L 217.582031 354.441406 L 217.332031 354.273438 L 217.097656 354.089844 L 216.878906 353.894531 L 216.667969 353.695312 L 215.949219 354.65625 L 216.195312 354.890625 L 216.464844 355.117188 L 216.757812 355.335938 L 217.074219 355.539062 L 217.425781 355.726562 L 217.804688 355.886719 L 218.214844 356.019531 L 218.664062 356.121094 L 219.152344 356.1875 Z M 219.679688 356.207031 "/>
<path style=" stroke:none;fill-rule:nonzero;fill:rgb(30.196078%,30.196078%,30.196078%);fill-opacity:1;" d="M 227.660156 351.457031 L 228.128906 351.414062 L 228.558594 351.296875 L 228.953125 351.097656 L 229.300781 350.824219 L 229.605469 350.480469 L 229.859375 350.0625 L 230.0625 349.578125 L 230.210938 349.023438 L 230.300781 348.40625 L 230.332031 347.726562 L 230.300781 347.054688 L 230.210938 346.441406 L 230.0625 345.894531 L 229.859375 345.417969 L 229.605469 345.007812 L 229.300781 344.664062 L 228.953125 344.398438 L 228.558594 344.203125 L 228.128906 344.085938 L 227.660156 344.046875 L 227.199219 344.085938 L 226.769531 344.203125 L 226.382812 344.398438 L 226.035156 344.664062 L 225.734375 345.007812 L 225.480469 345.417969 L 225.277344 345.894531 L 225.128906 346.441406 L 225.035156 347.054688 L 225.003906 347.726562 L 225.035156 348.40625 L 225.128906 349.023438 L 225.277344 349.578125 L 225.480469 350.0625 L 225.734375 350.480469 L 226.035156 350.824219 L 226.382812 351.097656 L 226.769531 351.296875 L 227.199219 351.414062 Z M 227.660156 350.542969 L 227.398438 350.515625 L 227.148438 350.429688 L 226.925781 350.289062 L 226.722656 350.09375 L 226.542969 349.839844 L 226.394531 349.527344 L 226.273438 349.160156 L 226.183594 348.738281 L 226.128906 348.261719 L 226.109375 347.726562 L 226.128906 347.195312 L 226.183594 346.71875 L 226.273438 346.300781 L 226.394531 345.9375 L 226.542969 345.632812 L 226.722656 345.386719 L 226.925781 345.191406 L 227.148438 345.054688 L 227.398438 344.972656 L 227.660156 344.945312 L 227.929688 344.972656 L 228.179688 345.054688 L 228.410156 345.191406 L 228.613281 345.386719 L 228.792969 345.632812 L 228.945312 345.9375 L 229.066406 346.300781 L 229.15625 346.71875 L 229.210938 347.195312 L 229.230469 347.726562 L 229.210938 348.261719 L 229.15625 348.738281 L 229.066406 349.160156 L 228.945312 349.527344 L 228.792969 349.839844 L 228.613281 350.09375 L 228.410156 350.289062 L 228.179688 350.429688 L 227.929688 350.515625 Z M 228.015625 356.207031 L 228.988281 356.207031 L 235.46875 344.046875 L 234.476562 344.046875 Z M 235.835938 356.207031 L 236.300781 356.167969 L 236.726562 356.050781 L 237.117188 355.855469 L 237.464844 355.582031 L 237.765625 355.238281 L 238.019531 354.824219 L 238.222656 354.34375 L 238.371094 353.792969 L 238.460938 353.175781 L 238.492188 352.496094 L 238.460938 351.820312 L 238.371094 351.210938 L 238.222656 350.664062 L 238.019531 350.183594 L 237.765625 349.773438 L 237.464844 349.433594 L 237.117188 349.167969 L 236.726562 348.972656 L 236.300781 348.855469 L 235.835938 348.816406 L 235.375 348.855469 L 234.945312 348.972656 L 234.554688 349.167969 L 234.207031 349.433594 L 233.902344 349.773438 L 233.644531 350.183594 L 233.441406 350.664062 L 233.289062 351.210938 L 233.199219 351.820312 L 233.164062 352.496094 L 233.199219 353.175781 L 233.289062 353.792969 L 233.441406 354.34375 L 233.644531 354.824219 L 233.902344 355.238281 L 234.207031 355.582031 L 234.554688 355.855469 L 234.945312 356.050781 L 235.375 356.167969 Z M 235.835938 355.3125 L 235.570312 355.285156 L 235.320312 355.199219 L 235.09375 355.058594 L 234.890625 354.859375 L 234.714844 354.605469 L 234.566406 354.296875 L 234.445312 353.929688 L 234.359375 353.507812 L 234.304688 353.03125 L 234.285156 352.496094 L 234.304688 351.964844 L 234.359375 351.488281 L 234.445312 351.070312 L 234.566406 350.707031 L 234.714844 350.402344 L 234.890625 350.152344 L 235.09375 349.960938 L 235.320312 349.820312 L 235.570312 349.738281 L 235.835938 349.710938 L 236.101562 349.738281 L 236.347656 349.820312 L 236.574219 349.960938 L 236.777344 350.152344 L 236.957031 350.402344 L 237.105469 350.707031 L 237.226562 351.070312 L 237.316406 351.488281 L 237.371094 351.964844 L 237.390625 352.496094 L 237.371094 353.03125 L 237.316406 353.507812 L 237.226562 353.929688 L 237.105469 354.296875 L 236.957031 354.605469 L 236.777344 354.859375 L 236.574219 355.058594 L 236.347656 355.199219 L 236.101562 355.285156 Z M 235.835938 355.3125 "/>
<path style=" stroke:none;fill-rule:nonzero;fill:rgb(30.196078%,30.196078%,30.196078%);fill-opacity:1;" d="M 363.195312 356.207031 L 363.785156 356.164062 L 364.355469 356.035156 L 364.898438 355.824219 L 365.402344 355.53125 L 365.859375 355.15625 L 366.253906 354.707031 L 366.582031 354.183594 L 366.824219 353.585938 L 366.980469 352.914062 L 367.035156 352.175781 L 366.988281 351.445312 L 366.855469 350.800781 L 366.640625 350.234375 L 366.351562 349.75 L 366 349.347656 L 365.585938 349.019531 L 365.125 348.765625 L 364.617188 348.589844 L 364.070312 348.484375 L 363.5 348.449219 L 363.292969 348.453125 L 363.097656 348.46875 L 362.910156 348.492188 L 362.734375 348.527344 L 362.5625 348.570312 L 362.394531 348.625 L 362.230469 348.683594 L 362.070312 348.753906 L 361.914062 348.828125 L 361.753906 348.910156 L 362.042969 345.519531 L 366.476562 345.519531 L 366.476562 344.257812 L 360.761719 344.257812 L 360.394531 349.761719 L 361.179688 350.238281 L 361.375 350.113281 L 361.566406 349.996094 L 361.75 349.894531 L 361.929688 349.804688 L 362.113281 349.726562 L 362.296875 349.664062 L 362.492188 349.617188 L 362.691406 349.582031 L 362.902344 349.558594 L 363.128906 349.550781 L 363.554688 349.582031 L 363.949219 349.667969 L 364.304688 349.8125 L 364.621094 350.007812 L 364.898438 350.257812 L 365.128906 350.558594 L 365.316406 350.90625 L 365.449219 351.300781 L 365.535156 351.742188 L 365.5625 352.222656 L 365.53125 352.71875 L 365.433594 353.167969 L 365.285156 353.578125 L 365.082031 353.9375 L 364.832031 354.25 L 364.539062 354.511719 L 364.210938 354.71875 L 363.855469 354.867188 L 363.472656 354.960938 L 363.066406 354.992188 L 362.671875 354.972656 L 362.308594 354.921875 L 361.972656 354.839844 L 361.660156 354.730469 L 361.367188 354.597656 L 361.097656 354.441406 L 360.847656 354.273438 L 360.613281 354.089844 L 360.394531 353.894531 L 360.1875 353.695312 L 359.464844 354.65625 L 359.710938 354.890625 L 359.980469 355.117188 L 360.273438 355.335938 L 360.59375 355.539062 L 360.941406 355.726562 L 361.320312 355.886719 L 361.734375 356.019531 L 362.183594 356.121094 L 362.667969 356.1875 Z M 363.195312 356.207031 "/>
<path style=" stroke:none;fill-rule:nonzero;fill:rgb(30.196078%,30.196078%,30.196078%);fill-opacity:1;" d="M 372.347656 356.207031 L 372.988281 356.148438 L 373.582031 355.964844 L 374.117188 355.660156 L 374.589844 355.230469 L 375.003906 354.683594 L 375.351562 354.011719 L 375.628906 353.214844 L 375.828125 352.296875 L 375.953125 351.257812 L 375.996094 350.097656 L 375.953125 348.9375 L 375.828125 347.90625 L 375.628906 346.996094 L 375.351562 346.210938 L 375.003906 345.546875 L 374.589844 345.007812 L 374.117188 344.585938 L 373.582031 344.285156 L 372.988281 344.109375 L 372.347656 344.046875 L 371.699219 344.105469 L 371.105469 344.285156 L 370.566406 344.582031 L 370.089844 345 L 369.675781 345.542969 L 369.328125 346.203125 L 369.050781 346.992188 L 368.847656 347.898438 L 368.726562 348.933594 L 368.683594 350.097656 L 368.726562 351.257812 L 368.847656 352.296875 L 369.050781 353.214844 L 369.328125 354.011719 L 369.675781 354.683594 L 370.089844 355.230469 L 370.566406 355.660156 L 371.105469 355.964844 L 371.699219 356.148438 Z M 372.347656 355.039062 L 371.957031 354.996094 L 371.597656 354.859375 L 371.269531 354.625 L 370.976562 354.296875 L 370.722656 353.863281 L 370.507812 353.328125 L 370.335938 352.6875 L 370.210938 351.9375 L 370.132812 351.074219 L 370.105469 350.097656 L 370.132812 349.128906 L 370.210938 348.273438 L 370.335938 347.53125 L 370.507812 346.898438 L 370.722656 346.371094 L 370.976562 345.949219 L 371.269531 345.621094 L 371.597656 345.394531 L 371.957031 345.261719 L 372.347656 345.214844 L 372.730469 345.261719 L 373.089844 345.394531 L 373.414062 345.621094 L 373.703125 345.949219 L 373.957031 346.371094 L 374.171875 346.898438 L 374.339844 347.53125 L 374.46875 348.273438 L 374.542969 349.128906 L 374.570312 350.097656 L 374.542969 351.074219 L 374.46875 351.9375 L 374.339844 352.6875 L 374.171875 353.328125 L 373.957031 353.863281 L 373.703125 354.296875 L 373.414062 354.625 L 373.089844 354.859375 L 372.730469 354.996094 Z M 372.347656 355.039062 "/>
<path style=" stroke:none;fill-rule:nonzero;fill:rgb(30.196078%,30.196078%,30.196078%);fill-opacity:1;" d="M 380.058594 351.457031 L 380.527344 351.414062 L 380.957031 351.296875 L 381.347656 351.097656 L 381.699219 350.824219 L 382 350.480469 L 382.253906 350.0625 L 382.457031 349.578125 L 382.609375 349.023438 L 382.699219 348.40625 L 382.730469 347.726562 L 382.699219 347.054688 L 382.609375 346.441406 L 382.457031 345.894531 L 382.253906 345.417969 L 382 345.007812 L 381.699219 344.664062 L 381.347656 344.398438 L 380.957031 344.203125 L 380.527344 344.085938 L 380.058594 344.046875 L 379.59375 344.085938 L 379.167969 344.203125 L 378.78125 344.398438 L 378.433594 344.664062 L 378.128906 345.007812 L 377.875 345.417969 L 377.675781 345.894531 L 377.523438 346.441406 L 377.433594 347.054688 L 377.402344 347.726562 L 377.433594 348.40625 L 377.523438 349.023438 L 377.675781 349.578125 L 377.875 350.0625 L 378.128906 350.480469 L 378.433594 350.824219 L 378.78125 351.097656 L 379.167969 351.296875 L 379.59375 351.414062 Z M 380.058594 350.542969 L 379.792969 350.515625 L 379.546875 350.429688 L 379.320312 350.289062 L 379.117188 350.09375 L 378.941406 349.839844 L 378.789062 349.527344 L 378.667969 349.160156 L 378.582031 348.738281 L 378.527344 348.261719 L 378.507812 347.726562 L 378.527344 347.195312 L 378.582031 346.71875 L 378.667969 346.300781 L 378.789062 345.9375 L 378.941406 345.632812 L 379.117188 345.386719 L 379.320312 345.191406 L 379.546875 345.054688 L 379.792969 344.972656 L 380.058594 344.945312 L 380.328125 344.972656 L 380.578125 345.054688 L 380.804688 345.191406 L 381.011719 345.386719 L 381.191406 345.632812 L 381.34375 345.9375 L 381.464844 346.300781 L 381.550781 346.71875 L 381.609375 347.195312 L 381.625 347.726562 L 381.609375 348.261719 L 381.550781 348.738281 L 381.464844 349.160156 L 381.34375 349.527344 L 381.191406 349.839844 L 381.011719 350.09375 L 380.804688 350.289062 L 380.578125 350.429688 L 380.328125 350.515625 Z M 380.410156 356.207031 L 381.386719 356.207031 L 387.867188 344.046875 L 386.875 344.046875 Z M 388.234375 356.207031 L 388.699219 356.167969 L 389.125 356.050781 L 389.515625 355.855469 L 389.859375 355.582031 L 390.164062 355.238281 L 390.417969 354.824219 L 390.621094 354.34375 L 390.769531 353.792969 L 390.859375 353.175781 L 390.890625 352.496094 L 390.859375 351.820312 L 390.769531 351.210938 L 390.621094 350.664062 L 390.417969 350.183594 L 390.164062 349.773438 L 389.859375 349.433594 L 389.515625 349.167969 L 389.125 348.972656 L 388.699219 348.855469 L 388.234375 348.816406 L 387.769531 348.855469 L 387.34375 348.972656 L 386.953125 349.167969 L 386.601562 349.433594 L 386.296875 349.773438 L 386.042969 350.183594 L 385.835938 350.664062 L 385.6875 351.210938 L 385.59375 351.820312 L 385.5625 352.496094 L 385.59375 353.175781 L 385.6875 353.792969 L 385.835938 354.34375 L 386.042969 354.824219 L 386.296875 355.238281 L 386.601562 355.582031 L 386.953125 355.855469 L 387.34375 356.050781 L 387.769531 356.167969 Z M 388.234375 355.3125 L 387.964844 355.285156 L 387.71875 355.199219 L 387.488281 355.058594 L 387.289062 354.859375 L 387.109375 354.605469 L 386.960938 354.296875 L 386.84375 353.929688 L 386.753906 353.507812 L 386.699219 353.03125 L 386.683594 352.496094 L 386.699219 351.964844 L 386.753906 351.488281 L 386.84375 351.070312 L 386.960938 350.707031 L 387.109375 350.402344 L 387.289062 350.152344 L 387.488281 349.960938 L 387.71875 349.820312 L 387.964844 349.738281 L 388.234375 349.710938 L 388.5 349.738281 L 388.746094 349.820312 L 388.972656 349.960938 L 389.175781 350.152344 L 389.351562 350.402344 L 389.503906 350.707031 L 389.625 351.070312 L 389.710938 351.488281 L 389.769531 351.964844 L 389.785156 352.496094 L 389.769531 353.03125 L 389.710938 353.507812 L 389.625 353.929688 L 389.503906 354.296875 L 389.351562 354.605469 L 389.175781 354.859375 L 388.972656 355.058594 L 388.746094 355.199219 L 388.5 355.285156 Z M 388.234375 355.3125 "/>
<path style=" stroke:none;fill-rule:nonzero;fill:rgb(30.196078%,30.196078%,30.196078%);fill-opacity:1;" d="M 514.582031 356 L 516.105469 356 L 516.167969 354.675781 L 516.265625 353.445312 L 516.402344 352.296875 L 516.597656 351.210938 L 516.859375 350.175781 L 517.195312 349.167969 L 517.621094 348.179688 L 518.144531 347.191406 L 518.785156 346.1875 L 519.542969 345.152344 L 519.542969 344.257812 L 512.199219 344.257812 L 512.199219 345.519531 L 517.878906 345.519531 L 517.238281 346.472656 L 516.675781 347.410156 L 516.195312 348.355469 L 515.785156 349.308594 L 515.445312 350.292969 L 515.167969 351.3125 L 514.949219 352.378906 L 514.78125 353.507812 L 514.660156 354.710938 Z M 514.582031 356 "/>
<path style=" stroke:none;fill-rule:nonzero;fill:rgb(30.196078%,30.196078%,30.196078%);fill-opacity:1;" d="M 524.472656 356.207031 L 525.0625 356.164062 L 525.632812 356.035156 L 526.175781 355.824219 L 526.679688 355.53125 L 527.136719 355.15625 L 527.53125 354.707031 L 527.855469 354.183594 L 528.101562 353.585938 L 528.257812 352.914062 L 528.3125 352.175781 L 528.265625 351.445312 L 528.132812 350.800781 L 527.917969 350.234375 L 527.628906 349.75 L 527.277344 349.347656 L 526.863281 349.019531 L 526.398438 348.765625 L 525.894531 348.589844 L 525.347656 348.484375 L 524.777344 348.449219 L 524.570312 348.453125 L 524.375 348.46875 L 524.1875 348.492188 L 524.007812 348.527344 L 523.835938 348.570312 L 523.671875 348.625 L 523.507812 348.683594 L 523.347656 348.753906 L 523.191406 348.828125 L 523.03125 348.910156 L 523.320312 345.519531 L 527.75 345.519531 L 527.75 344.257812 L 522.039062 344.257812 L 521.671875 349.761719 L 522.457031 350.238281 L 522.652344 350.113281 L 522.839844 349.996094 L 523.023438 349.894531 L 523.207031 349.804688 L 523.390625 349.726562 L 523.574219 349.664062 L 523.765625 349.617188 L 523.96875 349.582031 L 524.179688 349.558594 L 524.40625 349.550781 L 524.832031 349.582031 L 525.226562 349.667969 L 525.582031 349.8125 L 525.898438 350.007812 L 526.175781 350.257812 L 526.40625 350.558594 L 526.59375 350.90625 L 526.726562 351.300781 L 526.8125 351.742188 L 526.839844 352.222656 L 526.808594 352.71875 L 526.710938 353.167969 L 526.558594 353.578125 L 526.355469 353.9375 L 526.109375 354.25 L 525.816406 354.511719 L 525.488281 354.71875 L 525.132812 354.867188 L 524.746094 354.960938 L 524.34375 354.992188 L 523.949219 354.972656 L 523.585938 354.921875 L 523.25 354.839844 L 522.9375 354.730469 L 522.644531 354.597656 L 522.375 354.441406 L 522.125 354.273438 L 521.890625 354.089844 L 521.671875 353.894531 L 521.464844 353.695312 L 520.742188 354.65625 L 520.988281 354.890625 L 521.257812 355.117188 L 521.550781 355.335938 L 521.871094 355.539062 L 522.21875 355.726562 L 522.597656 355.886719 L 523.011719 356.019531 L 523.457031 356.121094 L 523.945312 356.1875 Z M 524.472656 356.207031 "/>
<path style=" stroke:none;fill-rule:nonzero;fill:rgb(30.196078%,30.196078%,30.196078%);fill-opacity:1;" d="M 532.457031 351.457031 L 532.921875 351.414062 L 533.355469 351.296875 L 533.746094 351.097656 L 534.09375 350.824219 L 534.398438 350.480469 L 534.652344 350.0625 L 534.855469 349.578125 L 535.003906 349.023438 L 535.097656 348.40625 L 535.128906 347.726562 L 535.097656 347.054688 L 535.003906 346.441406 L 534.855469 345.894531 L 534.652344 345.417969 L 534.398438 345.007812 L 534.09375 344.664062 L 533.746094 344.398438 L 533.355469 344.203125 L 532.921875 344.085938 L 532.457031 344.046875 L 531.992188 344.085938 L 531.566406 344.203125 L 531.175781 344.398438 L 530.828125 344.664062 L 530.527344 345.007812 L 530.273438 345.417969 L 530.070312 345.894531 L 529.921875 346.441406 L 529.832031 347.054688 L 529.800781 347.726562 L 529.832031 348.40625 L 529.921875 349.023438 L 530.070312 349.578125 L 530.273438 350.0625 L 530.527344 350.480469 L 530.828125 350.824219 L 531.175781 351.097656 L 531.566406 351.296875 L 531.992188 351.414062 Z M 532.457031 350.542969 L 532.191406 350.515625 L 531.945312 350.429688 L 531.71875 350.289062 L 531.515625 350.09375 L 531.335938 349.839844 L 531.1875 349.527344 L 531.066406 349.160156 L 530.976562 348.738281 L 530.921875 348.261719 L 530.902344 347.726562 L 530.921875 347.195312 L 530.976562 346.71875 L 531.066406 346.300781 L 531.1875 345.9375 L 531.335938 345.632812 L 531.515625 345.386719 L 531.71875 345.191406 L 531.945312 345.054688 L 532.191406 344.972656 L 532.457031 344.945312 L 532.726562 344.972656 L 532.976562 345.054688 L 533.203125 345.191406 L 533.410156 345.386719 L 533.585938 345.632812 L 533.738281 345.9375 L 533.859375 346.300781 L 533.949219 346.71875 L 534.003906 347.195312 L 534.023438 347.726562 L 534.003906 348.261719 L 533.949219 348.738281 L 533.859375 349.160156 L 533.738281 349.527344 L 533.585938 349.839844 L 533.410156 350.09375 L 533.203125 350.289062 L 532.976562 350.429688 L 532.726562 350.515625 Z M 532.808594 356.207031 L 533.785156 356.207031 L 540.261719 344.046875 L 539.273438 344.046875 Z M 540.632812 356.207031 L 541.09375 356.167969 L 541.523438 356.050781 L 541.910156 355.855469 L 542.257812 355.582031 L 542.558594 355.238281 L 542.8125 354.824219 L 543.015625 354.34375 L 543.164062 353.792969 L 543.257812 353.175781 L 543.289062 352.496094 L 543.257812 351.820312 L 543.164062 351.210938 L 543.015625 350.664062 L 542.8125 350.183594 L 542.558594 349.773438 L 542.257812 349.433594 L 541.910156 349.167969 L 541.523438 348.972656 L 541.09375 348.855469 L 540.632812 348.816406 L 540.167969 348.855469 L 539.738281 348.972656 L 539.347656 349.167969 L 539 349.433594 L 538.695312 349.773438 L 538.4375 350.183594 L 538.234375 350.664062 L 538.082031 351.210938 L 537.992188 351.820312 L 537.960938 352.496094 L 537.992188 353.175781 L 538.082031 353.792969 L 538.234375 354.34375 L 538.4375 354.824219 L 538.695312 355.238281 L 539 355.582031 L 539.347656 355.855469 L 539.738281 356.050781 L 540.167969 356.167969 Z M 540.632812 355.3125 L 540.363281 355.285156 L 540.113281 355.199219 L 539.886719 355.058594 L 539.683594 354.859375 L 539.507812 354.605469 L 539.359375 354.296875 L 539.238281 353.929688 L 539.152344 353.507812 L 539.097656 353.03125 L 539.078125 352.496094 L 539.097656 351.964844 L 539.152344 351.488281 L 539.238281 351.070312 L 539.359375 350.707031 L 539.507812 350.402344 L 539.683594 350.152344 L 539.886719 349.960938 L 540.113281 349.820312 L 540.363281 349.738281 L 540.632812 349.710938 L 540.898438 349.738281 L 541.144531 349.820312 L 541.367188 349.960938 L 541.570312 350.152344 L 541.75 350.402344 L 541.898438 350.707031 L 542.019531 351.070312 L 542.109375 351.488281 L 542.164062 351.964844 L 542.183594 352.496094 L 542.164062 353.03125 L 542.109375 353.507812 L 542.019531 353.929688 L 541.898438 354.296875 L 541.75 354.605469 L 541.570312 354.859375 L 541.367188 355.058594 L 541.144531 355.199219 L 540.898438 355.285156 Z M 540.632812 355.3125 "/>
<path style=" stroke:none;fill-rule:nonzero;fill:rgb(30.196078%,30.196078%,30.196078%);fill-opacity:1;" d="M 660.78125 356 L 667.210938 356 L 667.210938 354.785156 L 664.859375 354.785156 L 664.859375 344.257812 L 663.742188 344.257812 L 663.542969 344.367188 L 663.339844 344.472656 L 663.128906 344.570312 L 662.90625 344.664062 L 662.675781 344.753906 L 662.429688 344.832031 L 662.171875 344.910156 L 661.898438 344.980469 L 661.613281 345.042969 L 661.308594 345.105469 L 661.308594 346.03125 L 663.386719 346.03125 L 663.386719 354.785156 L 660.78125 354.785156 Z M 660.78125 356 "/>
<path style=" stroke:none;fill-rule:nonzero;fill:rgb(30.196078%,30.196078%,30.196078%);fill-opacity:1;" d="M 672.699219 356.207031 L 673.34375 356.148438 L 673.933594 355.964844 L 674.46875 355.660156 L 674.945312 355.230469 L 675.359375 354.683594 L 675.703125 354.011719 L 675.980469 353.214844 L 676.183594 352.296875 L 676.304688 351.257812 L 676.347656 350.097656 L 676.304688 348.9375 L 676.183594 347.90625 L 675.980469 346.996094 L 675.703125 346.210938 L 675.359375 345.546875 L 674.945312 345.007812 L 674.46875 344.585938 L 673.933594 344.285156 L 673.34375 344.109375 L 672.699219 344.046875 L 672.054688 344.105469 L 671.460938 344.285156 L 670.921875 344.582031 L 670.441406 345 L 670.027344 345.542969 L 669.679688 346.203125 L 669.40625 346.992188 L 669.203125 347.898438 L 669.078125 348.933594 L 669.035156 350.097656 L 669.078125 351.257812 L 669.203125 352.296875 L 669.40625 353.214844 L 669.679688 354.011719 L 670.027344 354.683594 L 670.441406 355.230469 L 670.921875 355.660156 L 671.460938 355.964844 L 672.054688 356.148438 Z M 672.699219 355.039062 L 672.3125 354.996094 L 671.953125 354.859375 L 671.625 354.625 L 671.332031 354.296875 L 671.078125 353.863281 L 670.863281 353.328125 L 670.691406 352.6875 L 670.5625 351.9375 L 670.488281 351.074219 L 670.460938 350.097656 L 670.488281 349.128906 L 670.5625 348.273438 L 670.691406 347.53125 L 670.863281 346.898438 L 671.078125 346.371094 L 671.332031 345.949219 L 671.625 345.621094 L 671.953125 345.394531 L 672.3125 345.261719 L 672.699219 345.214844 L 673.085938 345.261719 L 673.441406 345.394531 L 673.765625 345.621094 L 674.058594 345.949219 L 674.308594 346.371094 L 674.523438 346.898438 L 674.695312 347.53125 L 674.820312 348.273438 L 674.898438 349.128906 L 674.925781 350.097656 L 674.898438 351.074219 L 674.820312 351.9375 L 674.695312 352.6875 L 674.523438 353.328125 L 674.308594 353.863281 L 674.058594 354.296875 L 673.765625 354.625 L 673.441406 354.859375 L 673.085938 354.996094 Z M 672.699219 355.039062 "/>
<path style=" stroke:none;fill-rule:nonzero;fill:rgb(30.196078%,30.196078%,30.196078%);fill-opacity:1;" d="M 681.582031 356.207031 L 682.222656 356.148438 L 682.8125 355.964844 L 683.347656 355.660156 L 683.824219 355.230469 L 684.238281 354.683594 L 684.585938 354.011719 L 684.859375 353.214844 L 685.0625 352.296875 L 685.1875 351.257812 L 685.226562 350.097656 L 685.1875 348.9375 L 685.0625 347.90625 L 684.859375 346.996094 L 684.585938 346.210938 L 684.238281 345.546875 L 683.824219 345.007812 L 683.347656 344.585938 L 682.8125 344.285156 L 682.222656 344.109375 L 681.582031 344.046875 L 680.933594 344.105469 L 680.339844 344.285156 L 679.800781 344.582031 L 679.324219 345 L 678.910156 345.542969 L 678.5625 346.203125 L 678.285156 346.992188 L 678.082031 347.898438 L 677.957031 348.933594 L 677.917969 350.097656 L 677.957031 351.257812 L 678.082031 352.296875 L 678.285156 353.214844 L 678.5625 354.011719 L 678.910156 354.683594 L 679.324219 355.230469 L 679.800781 355.660156 L 680.339844 355.964844 L 680.933594 356.148438 Z M 681.582031 355.039062 L 681.191406 354.996094 L 680.832031 354.859375 L 680.503906 354.625 L 680.210938 354.296875 L 679.957031 353.863281 L 679.742188 353.328125 L 679.570312 352.6875 L 679.445312 351.9375 L 679.367188 351.074219 L 679.339844 350.097656 L 679.367188 349.128906 L 679.445312 348.273438 L 679.570312 347.53125 L 679.742188 346.898438 L 679.957031 346.371094 L 680.210938 345.949219 L 680.503906 345.621094 L 680.832031 345.394531 L 681.191406 345.261719 L 681.582031 345.214844 L 681.964844 345.261719 L 682.320312 345.394531 L 682.644531 345.621094 L 682.9375 345.949219 L 683.191406 346.371094 L 683.402344 346.898438 L 683.574219 347.53125 L 683.699219 348.273438 L 683.777344 349.128906 L 683.804688 350.097656 L 683.777344 351.074219 L 683.699219 351.9375 L 683.574219 352.6875 L 683.402344 353.328125 L 683.191406 353.863281 L 682.9375 354.296875 L 682.644531 354.625 L 682.320312 354.859375 L 681.964844 354.996094 Z M 681.582031 355.039062 "/>
<path style=" stroke:none;fill-rule:nonzero;fill:rgb(30.196078%,30.196078%,30.196078%);fill-opacity:1;" d="M 689.292969 351.457031 L 689.761719 351.414062 L 690.191406 351.296875 L 690.582031 351.097656 L 690.929688 350.824219 L 691.234375 350.480469 L 691.488281 350.0625 L 691.691406 349.578125 L 691.839844 349.023438 L 691.933594 348.40625 L 691.964844 347.726562 L 691.933594 347.054688 L 691.839844 346.441406 L 691.691406 345.894531 L 691.488281 345.417969 L 691.234375 345.007812 L 690.929688 344.664062 L 690.582031 344.398438 L 690.191406 344.203125 L 689.761719 344.085938 L 689.292969 344.046875 L 688.828125 344.085938 L 688.402344 344.203125 L 688.011719 344.398438 L 687.667969 344.664062 L 687.363281 345.007812 L 687.109375 345.417969 L 686.90625 345.894531 L 686.757812 346.441406 L 686.667969 347.054688 L 686.636719 347.726562 L 686.667969 348.40625 L 686.757812 349.023438 L 686.90625 349.578125 L 687.109375 350.0625 L 687.363281 350.480469 L 687.667969 350.824219 L 688.011719 351.097656 L 688.402344 351.296875 L 688.828125 351.414062 Z M 689.292969 350.542969 L 689.027344 350.515625 L 688.78125 350.429688 L 688.554688 350.289062 L 688.351562 350.09375 L 688.175781 349.839844 L 688.023438 349.527344 L 687.902344 349.160156 L 687.8125 348.738281 L 687.757812 348.261719 L 687.742188 347.726562 L 687.757812 347.195312 L 687.8125 346.71875 L 687.902344 346.300781 L 688.023438 345.9375 L 688.175781 345.632812 L 688.351562 345.386719 L 688.554688 345.191406 L 688.78125 345.054688 L 689.027344 344.972656 L 689.292969 344.945312 L 689.5625 344.972656 L 689.8125 345.054688 L 690.039062 345.191406 L 690.246094 345.386719 L 690.425781 345.632812 L 690.574219 345.9375 L 690.695312 346.300781 L 690.785156 346.71875 L 690.839844 347.195312 L 690.859375 347.726562 L 690.839844 348.261719 L 690.785156 348.738281 L 690.695312 349.160156 L 690.574219 349.527344 L 690.425781 349.839844 L 690.246094 350.09375 L 690.039062 350.289062 L 689.8125 350.429688 L 689.5625 350.515625 Z M 689.644531 356.207031 L 690.621094 356.207031 L 697.101562 344.046875 L 696.109375 344.046875 Z M 697.46875 356.207031 L 697.929688 356.167969 L 698.359375 356.050781 L 698.746094 355.855469 L 699.09375 355.582031 L 699.394531 355.238281 L 699.648438 354.824219 L 699.851562 354.34375 L 700 353.792969 L 700.09375 353.175781 L 700.125 352.496094 L 700.09375 351.820312 L 700 351.210938 L 699.851562 350.664062 L 699.648438 350.183594 L 699.394531 349.773438 L 699.09375 349.433594 L 698.746094 349.167969 L 698.359375 348.972656 L 697.929688 348.855469 L 697.46875 348.816406 L 697.003906 348.855469 L 696.574219 348.972656 L 696.1875 349.167969 L 695.835938 349.433594 L 695.53125 349.773438 L 695.277344 350.183594 L 695.070312 350.664062 L 694.921875 351.210938 L 694.828125 351.820312 L 694.796875 352.496094 L 694.828125 353.175781 L 694.921875 353.792969 L 695.070312 354.34375 L 695.277344 354.824219 L 695.53125 355.238281 L 695.835938 355.582031 L 696.1875 355.855469 L 696.574219 356.050781 L 697.003906 356.167969 Z M 697.46875 355.3125 L 697.199219 355.285156 L 696.949219 355.199219 L 696.722656 355.058594 L 696.519531 354.859375 L 696.34375 354.605469 L 696.195312 354.296875 L 696.078125 353.929688 L 695.988281 353.507812 L 695.933594 353.03125 L 695.917969 352.496094 L 695.933594 351.964844 L 695.988281 351.488281 L 696.078125 351.070312 L 696.195312 350.707031 L 696.34375 350.402344 L 696.519531 350.152344 L 696.722656 349.960938 L 696.949219 349.820312 L 697.199219 349.738281 L 697.46875 349.710938 L 697.734375 349.738281 L 697.980469 349.820312 L 698.207031 349.960938 L 698.410156 350.152344 L 698.585938 350.402344 L 698.738281 350.707031 L 698.859375 351.070312 L 698.945312 351.488281 L 699 351.964844 L 699.019531 352.496094 L 699 353.03125 L 698.945312 353.507812 L 698.859375 353.929688 L 698.738281 354.296875 L 698.585938 354.605469 L 698.410156 354.859375 L 698.207031 355.058594 L 697.980469 355.199219 L 697.734375 355.285156 Z M 697.46875 355.3125 "/>
<path style=" stroke:none;fill-rule:nonzero;fill:rgb(25.882353%,66.666667%,78.039216%);fill-opacity:1;" d="M 597.285156 297.453125 L 613.148438 297.453125 L 613.148438 281.589844 L 597.285156 281.589844 Z M 597.285156 297.453125 "/>
<path style=" stroke:none;fill-rule:nonzero;fill:rgb(85.490196%,31.372549%,9.803922%);fill-opacity:1;" d="M 597.285156 314.730469 L 613.148438 314.730469 L 613.148438 298.867188 L 597.285156 298.867188 Z M 597.285156 314.730469 "/>
<path style=" stroke:none;fill-rule:nonzero;fill:rgb(0%,0%,0%);fill-opacity:1;" d="M 627.253906 286.714844 L 630.71875 286.714844 L 630.71875 288.320312 L 627.253906 288.320312 Z M 627.253906 284.226562 L 630.71875 284.226562 L 630.71875 285.816406 L 627.253906 285.816406 Z M 635.355469 285.816406 L 631.8125 285.816406 L 631.8125 284.226562 L 635.355469 284.226562 Z M 635.355469 288.320312 L 631.8125 288.320312 L 631.8125 286.714844 L 635.355469 286.714844 Z M 631.363281 290.734375 L 631.433594 290.453125 L 631.464844 290.308594 L 631.519531 290.019531 L 631.546875 289.871094 L 631.570312 289.726562 L 631.59375 289.578125 L 631.632812 289.28125 L 636.492188 289.28125 L 636.492188 283.265625 L 626.144531 283.265625 L 626.144531 289.28125 L 630.480469 289.28125 L 630.460938 289.433594 L 630.4375 289.585938 L 630.417969 289.734375 L 630.390625 289.882812 L 630.367188 290.03125 L 630.339844 290.175781 L 630.308594 290.320312 L 630.277344 290.460938 L 630.207031 290.734375 L 624.945312 290.734375 L 624.945312 291.753906 L 629.863281 291.753906 L 629.625 292.226562 L 629.339844 292.667969 L 629 293.085938 L 628.597656 293.480469 L 628.128906 293.84375 L 627.582031 294.179688 L 626.957031 294.484375 L 626.242188 294.761719 L 625.433594 295.007812 L 624.523438 295.21875 L 624.589844 295.292969 L 624.65625 295.378906 L 624.726562 295.46875 L 624.792969 295.570312 L 624.863281 295.671875 L 624.925781 295.777344 L 624.984375 295.882812 L 625.035156 295.988281 L 625.078125 296.085938 L 625.109375 296.179688 L 626.148438 295.910156 L 627.070312 295.601562 L 627.878906 295.25 L 628.582031 294.859375 L 629.191406 294.429688 L 629.710938 293.964844 L 630.152344 293.460938 L 630.523438 292.925781 L 630.828125 292.355469 L 631.078125 291.753906 L 635.773438 291.753906 L 635.710938 292.339844 L 635.644531 292.855469 L 635.574219 293.3125 L 635.503906 293.707031 L 635.425781 294.046875 L 635.347656 294.332031 L 635.261719 294.566406 L 635.175781 294.753906 L 635.078125 294.894531 L 634.980469 294.996094 L 634.933594 295.03125 L 634.886719 295.0625 L 634.835938 295.085938 L 634.78125 295.105469 L 634.722656 295.121094 L 634.660156 295.132812 L 634.589844 295.140625 L 634.511719 295.144531 L 634.054688 295.144531 L 633.871094 295.140625 L 633.65625 295.136719 L 633.421875 295.128906 L 633.164062 295.121094 L 632.894531 295.109375 L 632.609375 295.09375 L 632.320312 295.078125 L 632.023438 295.054688 L 632.085938 295.144531 L 632.140625 295.242188 L 632.191406 295.34375 L 632.238281 295.445312 L 632.277344 295.554688 L 632.3125 295.664062 L 632.34375 295.769531 L 632.367188 295.875 L 632.386719 295.976562 L 632.398438 296.074219 L 632.679688 296.089844 L 632.960938 296.097656 L 633.230469 296.109375 L 633.492188 296.117188 L 633.742188 296.121094 L 633.980469 296.125 L 634.582031 296.125 L 634.738281 296.121094 L 634.886719 296.109375 L 635.023438 296.09375 L 635.152344 296.074219 L 635.277344 296.046875 L 635.390625 296.011719 L 635.5 295.964844 L 635.605469 295.914062 L 635.710938 295.847656 L 635.808594 295.773438 L 635.910156 295.6875 L 636.046875 295.527344 L 636.175781 295.320312 L 636.292969 295.0625 L 636.402344 294.738281 L 636.503906 294.351562 L 636.601562 293.894531 L 636.691406 293.359375 L 636.777344 292.738281 L 636.863281 292.03125 L 636.945312 291.230469 L 636.953125 291.179688 L 636.960938 291.121094 L 636.964844 291.058594 L 636.972656 290.992188 L 636.976562 290.925781 L 636.980469 290.867188 L 636.984375 290.8125 L 636.988281 290.773438 L 636.988281 290.734375 Z M 631.363281 290.734375 "/>
<path style=" stroke:none;fill-rule:nonzero;fill:rgb(0%,0%,0%);fill-opacity:1;" d="M 640.152344 289.445312 L 640.265625 289.101562 L 640.375 288.726562 L 640.472656 288.328125 L 640.566406 287.910156 L 640.648438 287.484375 L 640.71875 287.058594 L 640.78125 286.628906 L 640.835938 286.210938 L 640.875 285.808594 L 640.902344 285.425781 L 640.0625 285.304688 L 640.027344 285.683594 L 639.980469 286.078125 L 639.925781 286.484375 L 639.859375 286.898438 L 639.785156 287.308594 L 639.703125 287.714844 L 639.609375 288.109375 L 639.511719 288.484375 L 639.402344 288.832031 L 639.285156 289.144531 Z M 641.445312 296.164062 L 642.554688 296.164062 L 642.554688 282.46875 L 641.445312 282.46875 Z M 642.660156 285.230469 L 642.785156 285.484375 L 642.910156 285.75 L 643.035156 286.023438 L 643.15625 286.300781 L 643.273438 286.574219 L 643.378906 286.84375 L 643.476562 287.101562 L 643.5625 287.347656 L 643.636719 287.574219 L 643.695312 287.78125 L 644.535156 287.375 L 644.472656 287.175781 L 644.394531 286.949219 L 644.304688 286.710938 L 644.199219 286.453125 L 644.085938 286.191406 L 643.96875 285.921875 L 643.839844 285.648438 L 643.707031 285.382812 L 643.574219 285.121094 L 643.4375 284.871094 Z M 649.242188 294.589844 L 649.242188 290.839844 L 652.304688 290.839844 L 652.304688 289.804688 L 649.242188 289.804688 L 649.242188 286.699219 L 652.632812 286.699219 L 652.632812 285.636719 L 649.242188 285.636719 L 649.242188 282.53125 L 648.132812 282.53125 L 648.132812 285.636719 L 646.257812 285.636719 L 646.382812 285.191406 L 646.441406 284.964844 L 646.605469 284.273438 L 646.65625 284.042969 L 646.707031 283.808594 L 646.800781 283.339844 L 645.71875 283.160156 L 645.609375 283.769531 L 645.480469 284.375 L 645.339844 284.96875 L 645.179688 285.550781 L 645.007812 286.113281 L 644.820312 286.65625 L 644.613281 287.167969 L 644.394531 287.652344 L 644.15625 288.105469 L 643.902344 288.515625 L 643.992188 288.554688 L 644.089844 288.601562 L 644.195312 288.652344 L 644.304688 288.703125 L 644.414062 288.757812 L 644.527344 288.816406 L 644.632812 288.871094 L 644.730469 288.925781 L 644.820312 288.976562 L 644.894531 289.027344 L 645.011719 288.828125 L 645.128906 288.621094 L 645.242188 288.410156 L 645.351562 288.1875 L 645.457031 287.957031 L 645.5625 287.722656 L 645.660156 287.476562 L 645.757812 287.226562 L 645.851562 286.96875 L 645.945312 286.699219 L 648.132812 286.699219 L 648.132812 289.804688 L 644.953125 289.804688 L 644.953125 290.839844 L 648.132812 290.839844 L 648.132812 294.589844 L 643.84375 294.589844 L 643.84375 295.65625 L 652.992188 295.65625 L 652.992188 294.589844 Z M 649.242188 294.589844 "/>
<path style=" stroke:none;fill-rule:nonzero;fill:rgb(0%,0%,0%);fill-opacity:1;" d="M 634.46875 304.445312 L 634.320312 305.066406 L 634.15625 305.65625 L 633.976562 306.21875 L 633.777344 306.753906 L 633.554688 307.261719 L 633.3125 307.742188 L 633.050781 308.195312 L 632.761719 308.625 L 632.453125 309.03125 L 632.113281 309.410156 L 631.308594 309.058594 L 630.90625 308.886719 L 630.507812 308.722656 L 630.105469 308.5625 L 629.707031 308.40625 L 629.3125 308.253906 L 628.921875 308.109375 L 628.535156 307.96875 L 628.152344 307.835938 L 628.292969 307.519531 L 628.4375 307.199219 L 628.578125 306.871094 L 628.722656 306.535156 L 628.871094 306.195312 L 629.015625 305.851562 L 629.164062 305.503906 L 629.460938 304.800781 L 629.609375 304.445312 Z M 638.070312 304.445312 L 638.070312 303.320312 L 630.074219 303.320312 L 630.21875 302.96875 L 630.359375 302.621094 L 630.496094 302.277344 L 630.769531 301.597656 L 630.898438 301.261719 L 631.027344 300.933594 L 631.152344 300.609375 L 631.273438 300.289062 L 631.394531 299.976562 L 630.207031 299.765625 L 630.089844 300.09375 L 629.964844 300.429688 L 629.835938 300.773438 L 629.703125 301.125 L 629.5625 301.480469 L 629.421875 301.84375 L 629.277344 302.207031 L 628.980469 302.949219 L 628.828125 303.320312 L 624.628906 303.320312 L 624.628906 304.445312 L 628.363281 304.445312 L 628.144531 304.96875 L 627.921875 305.488281 L 627.703125 305.996094 L 627.484375 306.496094 L 627.269531 306.984375 L 627.058594 307.453125 L 626.855469 307.902344 L 626.65625 308.335938 L 626.464844 308.742188 L 626.277344 309.125 L 627.375 309.53125 L 627.4375 309.390625 L 627.507812 309.25 L 627.539062 309.175781 L 627.574219 309.101562 L 627.609375 309.023438 L 627.648438 308.949219 L 627.683594 308.871094 L 627.71875 308.796875 L 628.398438 309.054688 L 628.746094 309.191406 L 629.09375 309.332031 L 629.789062 309.621094 L 630.136719 309.773438 L 630.488281 309.925781 L 630.835938 310.078125 L 631.183594 310.234375 L 630.71875 310.554688 L 630.214844 310.851562 L 629.675781 311.125 L 629.101562 311.375 L 628.484375 311.601562 L 627.824219 311.804688 L 627.125 311.992188 L 626.378906 312.15625 L 625.589844 312.300781 L 624.75 312.425781 L 624.816406 312.511719 L 624.882812 312.605469 L 624.953125 312.710938 L 625.015625 312.816406 L 625.082031 312.929688 L 625.140625 313.042969 L 625.195312 313.15625 L 625.25 313.265625 L 625.292969 313.375 L 625.332031 313.476562 L 626.261719 313.324219 L 627.132812 313.152344 L 627.953125 312.953125 L 628.722656 312.730469 L 629.445312 312.480469 L 630.117188 312.203125 L 630.746094 311.902344 L 631.332031 311.570312 L 631.878906 311.210938 L 632.382812 310.820312 L 632.917969 311.09375 L 633.4375 311.367188 L 633.945312 311.640625 L 634.433594 311.917969 L 634.902344 312.191406 L 635.347656 312.464844 L 635.769531 312.738281 L 636.167969 313.003906 L 636.53125 313.265625 L 636.867188 313.519531 L 637.707031 312.5 L 637.371094 312.253906 L 637 312.003906 L 636.605469 311.75 L 636.183594 311.496094 L 635.742188 311.238281 L 635.277344 310.976562 L 634.796875 310.71875 L 634.300781 310.460938 L 633.789062 310.203125 L 633.269531 309.949219 L 633.617188 309.523438 L 633.9375 309.070312 L 634.230469 308.59375 L 634.503906 308.085938 L 634.753906 307.550781 L 634.980469 306.992188 L 635.1875 306.398438 L 635.378906 305.777344 L 635.546875 305.128906 L 635.699219 304.445312 Z M 638.070312 304.445312 "/>
<path style=" stroke:none;fill-rule:nonzero;fill:rgb(0%,0%,0%);fill-opacity:1;" d="M 640.152344 306.726562 L 640.265625 306.378906 L 640.375 306.003906 L 640.472656 305.605469 L 640.566406 305.191406 L 640.648438 304.765625 L 640.71875 304.335938 L 640.78125 303.910156 L 640.835938 303.492188 L 640.875 303.085938 L 640.902344 302.707031 L 640.0625 302.585938 L 640.027344 302.960938 L 639.980469 303.355469 L 639.925781 303.765625 L 639.859375 304.175781 L 639.785156 304.589844 L 639.703125 304.996094 L 639.609375 305.390625 L 639.511719 305.761719 L 639.402344 306.109375 L 639.285156 306.425781 Z M 641.445312 313.445312 L 642.554688 313.445312 L 642.554688 299.75 L 641.445312 299.75 Z M 642.660156 302.511719 L 642.785156 302.765625 L 642.910156 303.03125 L 643.035156 303.304688 L 643.15625 303.578125 L 643.273438 303.851562 L 643.378906 304.121094 L 643.476562 304.382812 L 643.5625 304.628906 L 643.636719 304.855469 L 643.695312 305.0625 L 644.535156 304.65625 L 644.472656 304.453125 L 644.394531 304.230469 L 644.304688 303.988281 L 644.199219 303.734375 L 644.085938 303.46875 L 643.96875 303.199219 L 643.839844 302.929688 L 643.707031 302.660156 L 643.574219 302.402344 L 643.4375 302.152344 Z M 649.242188 311.871094 L 649.242188 308.121094 L 652.304688 308.121094 L 652.304688 307.085938 L 649.242188 307.085938 L 649.242188 303.980469 L 652.632812 303.980469 L 652.632812 302.914062 L 649.242188 302.914062 L 649.242188 299.8125 L 648.132812 299.8125 L 648.132812 302.914062 L 646.257812 302.914062 L 646.320312 302.695312 L 646.382812 302.46875 L 646.441406 302.242188 L 646.496094 302.015625 L 646.605469 301.554688 L 646.65625 301.320312 L 646.707031 301.089844 L 646.800781 300.621094 L 645.71875 300.441406 L 645.609375 301.050781 L 645.480469 301.65625 L 645.339844 302.25 L 645.179688 302.832031 L 645.007812 303.394531 L 644.820312 303.933594 L 644.613281 304.449219 L 644.394531 304.933594 L 644.15625 305.382812 L 643.902344 305.796875 L 643.992188 305.835938 L 644.089844 305.878906 L 644.195312 305.929688 L 644.414062 306.039062 L 644.527344 306.097656 L 644.632812 306.152344 L 644.730469 306.207031 L 644.820312 306.257812 L 644.894531 306.304688 L 645.011719 306.109375 L 645.128906 305.902344 L 645.242188 305.6875 L 645.351562 305.46875 L 645.457031 305.238281 L 645.5625 305.003906 L 645.660156 304.757812 L 645.757812 304.507812 L 645.851562 304.246094 L 645.945312 303.980469 L 648.132812 303.980469 L 648.132812 307.085938 L 644.953125 307.085938 L 644.953125 308.121094 L 648.132812 308.121094 L 648.132812 311.871094 L 643.84375 311.871094 L 643.84375 312.9375 L 652.992188 312.9375 L 652.992188 311.871094 Z M 649.242188 311.871094 "/>
</g>
</svg>
