<?xml version="1.0" encoding="UTF-8"?>
<svg xmlns="http://www.w3.org/2000/svg" xmlns:xlink="http://www.w3.org/1999/xlink" width="720pt" height="360pt" viewBox="0 0 720 360" version="1.1">
<defs>
<clipPath id="clip1">
  <path d="M 91.695312 235 L 515 235 L 515 330 L 91.695312 330 Z M 91.695312 235 "/>
</clipPath>
<clipPath id="clip2">
  <path d="M 91.695312 25 L 624 25 L 624 120 L 91.695312 120 Z M 91.695312 25 "/>
</clipPath>
<clipPath id="clip3">
  <path d="M 91.695312 130 L 610 130 L 610 225 L 91.695312 225 Z M 91.695312 130 "/>
</clipPath>
<clipPath id="clip4">
  <path d="M 91.695312 25 L 624 25 L 624 120 L 91.695312 120 Z M 91.695312 25 "/>
</clipPath>
</defs>
<g id="surface45">
<rect x="0" y="0" width="720" height="360" style="fill:rgb(100%,100%,100%);fill-opacity:1;stroke:none;"/>
<g clip-path="url(#clip1)" clip-rule="nonzero">
<path style=" stroke:none;fill-rule:nonzero;fill:rgb(74.509804%,74.509804%,74.509804%);fill-opacity:0.698039;" d="M 91.695312 329.347656 L 514.480469 329.347656 L 514.480469 235.101562 L 91.695312 235.101562 Z M 91.695312 329.347656 "/>
</g>
<g clip-path="url(#clip2)" clip-rule="nonzero">
<path style=" stroke:none;fill-rule:nonzero;fill:rgb(74.509804%,74.509804%,74.509804%);fill-opacity:0.698039;" d="M 91.695312 119.914062 L 623.933594 119.914062 L 623.933594 25.667969 L 91.695312 25.667969 Z M 91.695312 119.914062 "/>
</g>
<g clip-path="url(#clip3)" clip-rule="nonzero">
<path style=" stroke:none;fill-rule:nonzero;fill:rgb(74.509804%,74.509804%,74.509804%);fill-opacity:0.698039;" d="M 91.695312 224.632812 L 609.449219 224.632812 L 609.449219 130.386719 L 91.695312 130.386719 Z M 91.695312 224.632812 "/>
</g>
<path style=" stroke:none;fill-rule:nonzero;fill:rgb(74.509804%,74.509804%,74.509804%);fill-opacity:0.698039;" d="M 525.390625 289.882812 L 526.21875 289.835938 L 527.007812 289.699219 L 527.746094 289.472656 L 528.425781 289.15625 L 529.03125 288.757812 L 529.554688 288.28125 L 529.980469 287.722656 L 530.300781 287.085938 L 530.5 286.378906 L 530.566406 285.601562 L 530.53125 285.042969 L 530.421875 284.527344 L 530.246094 284.054688 L 530.011719 283.625 L 529.722656 283.238281 L 529.386719 282.894531 L 529 282.597656 L 528.578125 282.34375 L 528.125 282.136719 L 527.640625 281.976562 L 527.640625 281.878906 L 528.085938 281.675781 L 528.492188 281.441406 L 528.855469 281.179688 L 529.171875 280.886719 L 529.449219 280.558594 L 529.675781 280.207031 L 529.855469 279.824219 L 529.984375 279.414062 L 530.0625 278.976562 L 530.089844 278.511719 L 530.03125 277.792969 L 529.867188 277.140625 L 529.59375 276.558594 L 529.226562 276.046875 L 528.769531 275.609375 L 528.222656 275.246094 L 527.597656 274.960938 L 526.902344 274.753906 L 526.136719 274.628906 L 525.308594 274.585938 L 524.800781 274.609375 L 524.308594 274.667969 L 523.832031 274.769531 L 523.371094 274.90625 L 522.925781 275.074219 L 522.496094 275.28125 L 522.078125 275.515625 L 521.671875 275.785156 L 521.273438 276.078125 L 520.886719 276.398438 L 522.382812 278.191406 L 522.644531 277.957031 L 522.90625 277.746094 L 523.171875 277.554688 L 523.4375 277.382812 L 523.707031 277.238281 L 523.984375 277.117188 L 524.269531 277.023438 L 524.558594 276.953125 L 524.859375 276.914062 L 525.171875 276.898438 L 525.53125 276.917969 L 525.855469 276.976562 L 526.148438 277.074219 L 526.40625 277.210938 L 526.625 277.382812 L 526.808594 277.585938 L 526.953125 277.824219 L 527.058594 278.097656 L 527.121094 278.398438 L 527.140625 278.730469 L 527.113281 279.113281 L 527.03125 279.46875 L 526.878906 279.796875 L 526.660156 280.089844 L 526.367188 280.347656 L 525.988281 280.566406 L 525.527344 280.742188 L 524.96875 280.875 L 524.316406 280.953125 L 523.558594 280.980469 L 523.558594 283.074219 L 524.449219 283.097656 L 525.210938 283.179688 L 525.847656 283.308594 L 526.371094 283.488281 L 526.792969 283.710938 L 527.113281 283.976562 L 527.347656 284.28125 L 527.503906 284.628906 L 527.59375 285.007812 L 527.621094 285.421875 L 527.589844 285.804688 L 527.503906 286.152344 L 527.359375 286.457031 L 527.167969 286.726562 L 526.925781 286.957031 L 526.640625 287.148438 L 526.3125 287.300781 L 525.945312 287.40625 L 525.542969 287.472656 L 525.109375 287.492188 L 524.71875 287.476562 L 524.339844 287.417969 L 523.976562 287.328125 L 523.628906 287.207031 L 523.296875 287.058594 L 522.976562 286.882812 L 522.667969 286.683594 L 522.375 286.464844 L 522.09375 286.230469 L 521.824219 285.980469 L 520.449219 287.832031 L 520.777344 288.175781 L 521.136719 288.496094 L 521.535156 288.792969 L 521.964844 289.0625 L 522.433594 289.300781 L 522.941406 289.5 L 523.492188 289.664062 L 524.082031 289.785156 L 524.710938 289.859375 Z M 525.390625 289.882812 "/>
<path style=" stroke:none;fill-rule:nonzero;fill:rgb(74.509804%,74.509804%,74.509804%);fill-opacity:0.698039;" d="M 535.148438 279.507812 L 535.175781 278.992188 L 535.25 278.53125 L 535.371094 278.121094 L 535.535156 277.769531 L 535.734375 277.472656 L 535.964844 277.230469 L 536.226562 277.042969 L 536.511719 276.90625 L 536.820312 276.824219 L 537.140625 276.796875 L 537.507812 276.828125 L 537.859375 276.921875 L 538.191406 277.085938 L 538.5 277.320312 L 538.777344 277.628906 L 539.027344 278.019531 L 539.246094 278.496094 L 539.429688 279.058594 L 539.570312 279.710938 L 539.667969 280.464844 L 539.460938 280.785156 L 539.234375 281.066406 L 539 281.308594 L 538.757812 281.515625 L 538.507812 281.6875 L 538.253906 281.824219 L 537.996094 281.925781 L 537.742188 282 L 537.488281 282.042969 L 537.238281 282.058594 L 536.871094 282.03125 L 536.53125 281.957031 L 536.226562 281.832031 L 535.953125 281.660156 L 535.714844 281.433594 L 535.519531 281.152344 L 535.359375 280.820312 L 535.242188 280.4375 L 535.171875 280 Z M 536.742188 289.882812 L 537.613281 289.8125 L 538.453125 289.589844 L 539.253906 289.214844 L 539.996094 288.679688 L 540.667969 287.980469 L 541.25 287.117188 L 541.730469 286.082031 L 542.089844 284.871094 L 542.320312 283.476562 L 542.398438 281.898438 L 542.324219 280.449219 L 542.113281 279.171875 L 541.78125 278.0625 L 541.335938 277.113281 L 540.796875 276.324219 L 540.171875 275.6875 L 539.476562 275.199219 L 538.722656 274.855469 L 537.925781 274.65625 L 537.101562 274.585938 L 536.355469 274.644531 L 535.648438 274.808594 L 534.984375 275.078125 L 534.375 275.449219 L 533.832031 275.914062 L 533.363281 276.46875 L 532.984375 277.109375 L 532.699219 277.832031 L 532.523438 278.632812 L 532.460938 279.507812 L 532.511719 280.398438 L 532.664062 281.191406 L 532.910156 281.890625 L 533.242188 282.492188 L 533.652344 283 L 534.136719 283.414062 L 534.691406 283.738281 L 535.300781 283.964844 L 535.96875 284.101562 L 536.683594 284.148438 L 536.988281 284.128906 L 537.304688 284.078125 L 537.628906 283.992188 L 537.953125 283.875 L 538.277344 283.726562 L 538.59375 283.546875 L 538.902344 283.339844 L 539.191406 283.101562 L 539.464844 282.839844 L 539.710938 282.554688 L 539.632812 283.589844 L 539.488281 284.484375 L 539.28125 285.246094 L 539.019531 285.886719 L 538.703125 286.40625 L 538.34375 286.816406 L 537.945312 287.125 L 537.511719 287.335938 L 537.050781 287.457031 L 536.5625 287.492188 L 536.300781 287.480469 L 536.039062 287.441406 L 535.777344 287.378906 L 535.527344 287.292969 L 535.28125 287.191406 L 535.046875 287.066406 L 534.824219 286.929688 L 534.613281 286.777344 L 534.425781 286.613281 L 534.253906 286.4375 L 532.699219 288.210938 L 532.976562 288.476562 L 533.28125 288.730469 L 533.613281 288.96875 L 533.972656 289.1875 L 534.363281 289.382812 L 534.78125 289.554688 L 535.226562 289.691406 L 535.703125 289.796875 L 536.207031 289.863281 Z M 536.742188 289.882812 "/>
<path style=" stroke:none;fill-rule:nonzero;fill:rgb(74.509804%,74.509804%,74.509804%);fill-opacity:0.698039;" d="M 544.96875 289.605469 L 547.894531 289.605469 L 547.894531 281.9375 L 548.125 281.699219 L 548.355469 281.484375 L 548.578125 281.296875 L 548.796875 281.132812 L 549.011719 280.996094 L 549.226562 280.882812 L 549.433594 280.796875 L 549.636719 280.734375 L 549.832031 280.695312 L 550.027344 280.683594 L 550.328125 280.699219 L 550.59375 280.757812 L 550.832031 280.859375 L 551.035156 281.003906 L 551.210938 281.199219 L 551.351562 281.445312 L 551.460938 281.746094 L 551.539062 282.105469 L 551.585938 282.527344 L 551.601562 283.011719 L 551.601562 289.605469 L 554.507812 289.605469 L 554.507812 281.9375 L 554.746094 281.699219 L 554.976562 281.484375 L 555.203125 281.296875 L 555.425781 281.132812 L 555.644531 280.996094 L 555.855469 280.882812 L 556.0625 280.796875 L 556.265625 280.734375 L 556.464844 280.695312 L 556.660156 280.683594 L 556.960938 280.699219 L 557.226562 280.757812 L 557.460938 280.859375 L 557.660156 281.003906 L 557.832031 281.199219 L 557.96875 281.445312 L 558.078125 281.746094 L 558.152344 282.105469 L 558.199219 282.527344 L 558.210938 283.011719 L 558.210938 289.605469 L 561.140625 289.605469 L 561.140625 282.652344 L 561.105469 281.847656 L 561.007812 281.109375 L 560.839844 280.449219 L 560.601562 279.863281 L 560.296875 279.359375 L 559.917969 278.941406 L 559.46875 278.609375 L 558.945312 278.371094 L 558.347656 278.222656 L 557.675781 278.171875 L 557.25 278.199219 L 556.84375 278.273438 L 556.460938 278.390625 L 556.089844 278.550781 L 555.738281 278.746094 L 555.398438 278.972656 L 555.070312 279.230469 L 554.75 279.507812 L 554.4375 279.808594 L 554.128906 280.125 L 553.957031 279.769531 L 553.757812 279.449219 L 553.53125 279.160156 L 553.277344 278.902344 L 552.992188 278.6875 L 552.675781 278.503906 L 552.324219 278.359375 L 551.941406 278.257812 L 551.519531 278.195312 L 551.0625 278.171875 L 550.636719 278.195312 L 550.238281 278.261719 L 549.859375 278.371094 L 549.496094 278.515625 L 549.15625 278.691406 L 548.828125 278.898438 L 548.515625 279.132812 L 548.210938 279.386719 L 547.921875 279.660156 L 547.636719 279.945312 L 547.578125 279.945312 L 547.359375 278.453125 L 544.96875 278.453125 Z M 544.96875 289.605469 "/>
<path style=" stroke:none;fill-rule:nonzero;fill:rgb(74.509804%,74.509804%,74.509804%);fill-opacity:0.698039;" d="M 564.167969 289.605469 L 567.09375 289.605469 L 567.09375 281.9375 L 567.328125 281.699219 L 567.554688 281.484375 L 567.777344 281.296875 L 567.996094 281.132812 L 568.214844 280.996094 L 568.425781 280.882812 L 568.632812 280.796875 L 568.835938 280.734375 L 569.03125 280.695312 L 569.226562 280.683594 L 569.527344 280.699219 L 569.796875 280.757812 L 570.03125 280.859375 L 570.238281 281.003906 L 570.410156 281.199219 L 570.550781 281.445312 L 570.660156 281.746094 L 570.738281 282.105469 L 570.785156 282.527344 L 570.800781 283.011719 L 570.800781 289.605469 L 573.707031 289.605469 L 573.707031 281.9375 L 573.945312 281.699219 L 574.175781 281.484375 L 574.402344 281.296875 L 574.625 281.132812 L 574.84375 280.996094 L 575.054688 280.882812 L 575.265625 280.796875 L 575.46875 280.734375 L 575.664062 280.695312 L 575.859375 280.683594 L 576.160156 280.699219 L 576.425781 280.757812 L 576.660156 280.859375 L 576.863281 281.003906 L 577.03125 281.199219 L 577.167969 281.445312 L 577.277344 281.746094 L 577.351562 282.105469 L 577.398438 282.527344 L 577.414062 283.011719 L 577.414062 289.605469 L 580.339844 289.605469 L 580.339844 282.652344 L 580.308594 281.847656 L 580.207031 281.109375 L 580.039062 280.449219 L 579.804688 279.863281 L 579.496094 279.359375 L 579.117188 278.941406 L 578.667969 278.609375 L 578.144531 278.371094 L 577.546875 278.222656 L 576.875 278.171875 L 576.449219 278.199219 L 576.046875 278.273438 L 575.660156 278.390625 L 575.292969 278.550781 L 574.9375 278.746094 L 574.597656 278.972656 L 574.269531 279.230469 L 573.949219 279.507812 L 573.636719 279.808594 L 573.328125 280.125 L 573.15625 279.769531 L 572.957031 279.449219 L 572.730469 279.160156 L 572.476562 278.902344 L 572.191406 278.6875 L 571.875 278.503906 L 571.527344 278.359375 L 571.140625 278.257812 L 570.722656 278.195312 L 570.261719 278.171875 L 569.839844 278.195312 L 569.4375 278.261719 L 569.058594 278.371094 L 568.699219 278.515625 L 568.355469 278.691406 L 568.027344 278.898438 L 567.714844 279.132812 L 567.414062 279.386719 L 567.121094 279.660156 L 566.835938 279.945312 L 566.777344 279.945312 L 566.558594 278.453125 L 564.167969 278.453125 Z M 564.167969 289.605469 "/>
<path style=" stroke:none;fill-rule:nonzero;fill:rgb(74.509804%,74.509804%,74.509804%);fill-opacity:0.698039;" d="M 632.652344 74.117188 L 634.941406 70.453125 L 635.066406 70.210938 L 635.191406 69.972656 L 635.433594 69.488281 L 635.667969 69.003906 L 635.785156 68.765625 L 635.894531 68.523438 L 636.007812 68.28125 L 636.117188 68.042969 L 636.195312 68.042969 L 636.183594 68.316406 L 636.171875 68.617188 L 636.15625 68.929688 L 636.144531 69.253906 L 636.132812 69.582031 L 636.121094 69.914062 L 636.109375 70.234375 L 636.101562 70.546875 L 636.097656 70.839844 L 636.097656 74.117188 Z M 636.097656 80.171875 L 638.824219 80.171875 L 638.824219 76.347656 L 640.558594 76.347656 L 640.558594 74.117188 L 638.824219 74.117188 L 638.824219 65.414062 L 635.300781 65.414062 L 629.800781 74.355469 L 629.800781 76.347656 L 636.097656 76.347656 Z M 636.097656 80.171875 "/>
<path style=" stroke:none;fill-rule:nonzero;fill:rgb(74.509804%,74.509804%,74.509804%);fill-opacity:0.698039;" d="M 644.601562 70.074219 L 644.628906 69.558594 L 644.703125 69.097656 L 644.824219 68.691406 L 644.988281 68.335938 L 645.1875 68.039062 L 645.417969 67.796875 L 645.679688 67.609375 L 645.964844 67.472656 L 646.269531 67.390625 L 646.59375 67.367188 L 646.960938 67.394531 L 647.3125 67.488281 L 647.644531 67.652344 L 647.949219 67.886719 L 648.230469 68.195312 L 648.480469 68.585938 L 648.699219 69.0625 L 648.878906 69.625 L 649.023438 70.277344 L 649.121094 71.03125 L 648.910156 71.351562 L 648.6875 71.632812 L 648.453125 71.875 L 648.210938 72.082031 L 647.960938 72.253906 L 647.707031 72.390625 L 647.449219 72.492188 L 647.191406 72.566406 L 646.941406 72.609375 L 646.691406 72.625 L 646.324219 72.597656 L 645.984375 72.523438 L 645.679688 72.398438 L 645.40625 72.226562 L 645.167969 72 L 644.96875 71.71875 L 644.8125 71.390625 L 644.695312 71.003906 L 644.625 70.566406 Z M 646.195312 80.449219 L 647.0625 80.378906 L 647.90625 80.15625 L 648.707031 79.78125 L 649.449219 79.246094 L 650.121094 78.546875 L 650.703125 77.683594 L 651.183594 76.648438 L 651.542969 75.4375 L 651.769531 74.042969 L 651.851562 72.464844 L 651.777344 71.015625 L 651.566406 69.738281 L 651.234375 68.628906 L 650.789062 67.679688 L 650.246094 66.890625 L 649.621094 66.253906 L 648.925781 65.765625 L 648.175781 65.421875 L 647.378906 65.222656 L 646.550781 65.15625 L 645.808594 65.210938 L 645.097656 65.375 L 644.433594 65.644531 L 643.828125 66.015625 L 643.285156 66.480469 L 642.816406 67.035156 L 642.4375 67.675781 L 642.152344 68.398438 L 641.972656 69.199219 L 641.910156 70.074219 L 641.964844 70.964844 L 642.117188 71.757812 L 642.359375 72.457031 L 642.691406 73.058594 L 643.105469 73.566406 L 643.589844 73.980469 L 644.140625 74.304688 L 644.753906 74.53125 L 645.421875 74.667969 L 646.132812 74.714844 L 646.441406 74.695312 L 646.757812 74.644531 L 647.082031 74.558594 L 647.40625 74.441406 L 647.730469 74.292969 L 648.046875 74.113281 L 648.355469 73.90625 L 648.644531 73.667969 L 648.914062 73.40625 L 649.160156 73.121094 L 649.085938 74.15625 L 648.941406 75.050781 L 648.734375 75.8125 L 648.46875 76.453125 L 648.15625 76.972656 L 647.796875 77.382812 L 647.398438 77.691406 L 646.964844 77.902344 L 646.5 78.023438 L 646.015625 78.0625 L 645.75 78.046875 L 645.488281 78.007812 L 645.230469 77.945312 L 644.976562 77.859375 L 644.734375 77.757812 L 644.496094 77.636719 L 644.273438 77.496094 L 644.066406 77.34375 L 643.875 77.179688 L 643.703125 77.003906 L 642.152344 78.777344 L 642.425781 79.042969 L 642.730469 79.296875 L 643.066406 79.535156 L 643.425781 79.753906 L 643.8125 79.949219 L 644.230469 80.121094 L 644.679688 80.257812 L 645.152344 80.363281 L 645.660156 80.429688 Z M 646.195312 80.449219 "/>
<path style=" stroke:none;fill-rule:nonzero;fill:rgb(74.509804%,74.509804%,74.509804%);fill-opacity:0.698039;" d="M 654.417969 80.171875 L 657.347656 80.171875 L 657.347656 72.503906 L 657.578125 72.265625 L 657.804688 72.050781 L 658.03125 71.863281 L 658.25 71.699219 L 658.464844 71.5625 L 658.675781 71.449219 L 658.882812 71.363281 L 659.085938 71.300781 L 659.285156 71.261719 L 659.480469 71.25 L 659.78125 71.265625 L 660.046875 71.324219 L 660.285156 71.425781 L 660.488281 71.570312 L 660.660156 71.765625 L 660.800781 72.011719 L 660.910156 72.3125 L 660.988281 72.671875 L 661.035156 73.09375 L 661.050781 73.578125 L 661.050781 80.171875 L 663.960938 80.171875 L 663.960938 72.503906 L 664.195312 72.265625 L 664.429688 72.050781 L 664.65625 71.863281 L 664.878906 71.699219 L 665.09375 71.5625 L 665.308594 71.449219 L 665.515625 71.363281 L 665.71875 71.300781 L 665.917969 71.261719 L 666.109375 71.25 L 666.410156 71.265625 L 666.679688 71.324219 L 666.914062 71.425781 L 667.113281 71.570312 L 667.285156 71.765625 L 667.421875 72.011719 L 667.527344 72.3125 L 667.605469 72.671875 L 667.648438 73.09375 L 667.664062 73.578125 L 667.664062 80.171875 L 670.59375 80.171875 L 670.59375 73.222656 L 670.558594 72.414062 L 670.460938 71.675781 L 670.292969 71.015625 L 670.054688 70.429688 L 669.75 69.925781 L 669.371094 69.507812 L 668.921875 69.175781 L 668.398438 68.9375 L 667.800781 68.789062 L 667.125 68.738281 L 666.703125 68.765625 L 666.296875 68.839844 L 665.910156 68.957031 L 665.542969 69.117188 L 665.191406 69.3125 L 664.851562 69.539062 L 664.519531 69.796875 L 664.199219 70.074219 L 663.886719 70.375 L 663.582031 70.691406 L 663.40625 70.335938 L 663.210938 70.015625 L 662.984375 69.726562 L 662.730469 69.472656 L 662.445312 69.253906 L 662.128906 69.070312 L 661.777344 68.929688 L 661.394531 68.824219 L 660.972656 68.761719 L 660.515625 68.738281 L 660.089844 68.761719 L 659.691406 68.832031 L 659.308594 68.9375 L 658.949219 69.082031 L 658.605469 69.261719 L 658.28125 69.464844 L 657.964844 69.699219 L 657.664062 69.953125 L 657.371094 70.226562 L 657.089844 70.511719 L 657.027344 70.511719 L 656.808594 69.019531 L 654.417969 69.019531 Z M 654.417969 80.171875 "/>
<path style=" stroke:none;fill-rule:nonzero;fill:rgb(74.509804%,74.509804%,74.509804%);fill-opacity:0.698039;" d="M 673.621094 80.171875 L 676.546875 80.171875 L 676.546875 72.503906 L 676.777344 72.265625 L 677.007812 72.050781 L 677.230469 71.863281 L 677.449219 71.699219 L 677.664062 71.5625 L 677.875 71.449219 L 678.085938 71.363281 L 678.285156 71.300781 L 678.484375 71.261719 L 678.679688 71.25 L 678.980469 71.265625 L 679.246094 71.324219 L 679.484375 71.425781 L 679.6875 71.570312 L 679.859375 71.765625 L 680.003906 72.011719 L 680.113281 72.3125 L 680.191406 72.671875 L 680.238281 73.09375 L 680.253906 73.578125 L 680.253906 80.171875 L 683.160156 80.171875 L 683.160156 72.503906 L 683.398438 72.265625 L 683.628906 72.050781 L 683.855469 71.863281 L 684.078125 71.699219 L 684.296875 71.5625 L 684.507812 71.449219 L 684.714844 71.363281 L 684.917969 71.300781 L 685.117188 71.261719 L 685.3125 71.25 L 685.609375 71.265625 L 685.878906 71.324219 L 686.113281 71.425781 L 686.3125 71.570312 L 686.484375 71.765625 L 686.621094 72.011719 L 686.726562 72.3125 L 686.804688 72.671875 L 686.847656 73.09375 L 686.863281 73.578125 L 686.863281 80.171875 L 689.792969 80.171875 L 689.792969 73.222656 L 689.757812 72.414062 L 689.660156 71.675781 L 689.492188 71.015625 L 689.253906 70.429688 L 688.949219 69.925781 L 688.570312 69.507812 L 688.121094 69.175781 L 687.597656 68.9375 L 687 68.789062 L 686.328125 68.738281 L 685.902344 68.765625 L 685.496094 68.839844 L 685.113281 68.957031 L 684.742188 69.117188 L 684.390625 69.3125 L 684.050781 69.539062 L 683.71875 69.796875 L 683.402344 70.074219 L 683.089844 70.375 L 682.78125 70.691406 L 682.609375 70.335938 L 682.410156 70.015625 L 682.183594 69.726562 L 681.929688 69.472656 L 681.644531 69.253906 L 681.328125 69.070312 L 680.976562 68.929688 L 680.59375 68.824219 L 680.171875 68.761719 L 679.714844 68.738281 L 679.289062 68.761719 L 678.890625 68.832031 L 678.511719 68.9375 L 678.148438 69.082031 L 677.808594 69.261719 L 677.480469 69.464844 L 677.167969 69.699219 L 676.863281 69.953125 L 676.574219 70.226562 L 676.289062 70.511719 L 676.230469 70.511719 L 676.011719 69.019531 L 673.621094 69.019531 Z M 673.621094 80.171875 "/>
<path style=" stroke:none;fill-rule:nonzero;fill:rgb(74.509804%,74.509804%,74.509804%);fill-opacity:0.698039;" d="M 618.167969 178.832031 L 620.457031 175.167969 L 620.582031 174.929688 L 620.707031 174.6875 L 620.828125 174.449219 L 620.949219 174.207031 L 621.300781 173.480469 L 621.414062 173.238281 L 621.523438 173 L 621.632812 172.757812 L 621.710938 172.757812 L 621.699219 173.035156 L 621.6875 173.332031 L 621.671875 173.644531 L 621.636719 174.628906 L 621.625 174.953125 L 621.617188 175.261719 L 621.613281 175.554688 L 621.613281 178.832031 Z M 621.613281 184.886719 L 624.339844 184.886719 L 624.339844 181.066406 L 626.074219 181.066406 L 626.074219 178.832031 L 624.339844 178.832031 L 624.339844 170.128906 L 620.816406 170.128906 L 615.320312 179.074219 L 615.320312 181.066406 L 621.613281 181.066406 Z M 621.613281 184.886719 "/>
<path style=" stroke:none;fill-rule:nonzero;fill:rgb(74.509804%,74.509804%,74.509804%);fill-opacity:0.698039;" d="M 632.488281 185.167969 L 633.351562 185.117188 L 634.148438 184.972656 L 634.875 184.738281 L 635.523438 184.421875 L 636.085938 184.03125 L 636.5625 183.574219 L 636.941406 183.058594 L 637.21875 182.492188 L 637.386719 181.875 L 637.445312 181.222656 L 637.414062 180.644531 L 637.320312 180.113281 L 637.167969 179.625 L 636.96875 179.179688 L 636.71875 178.773438 L 636.429688 178.40625 L 636.105469 178.078125 L 635.753906 177.78125 L 635.375 177.515625 L 634.976562 177.28125 L 634.976562 177.179688 L 635.265625 176.957031 L 635.546875 176.703125 L 635.816406 176.421875 L 636.0625 176.113281 L 636.289062 175.78125 L 636.484375 175.425781 L 636.644531 175.050781 L 636.765625 174.65625 L 636.84375 174.242188 L 636.867188 173.816406 L 636.820312 173.132812 L 636.671875 172.503906 L 636.4375 171.929688 L 636.113281 171.417969 L 635.707031 170.972656 L 635.222656 170.59375 L 634.660156 170.292969 L 634.035156 170.074219 L 633.339844 169.9375 L 632.585938 169.890625 L 631.84375 169.9375 L 631.144531 170.066406 L 630.503906 170.28125 L 629.921875 170.574219 L 629.410156 170.945312 L 628.972656 171.382812 L 628.621094 171.890625 L 628.363281 172.460938 L 628.199219 173.089844 L 628.144531 173.773438 L 628.167969 174.234375 L 628.238281 174.664062 L 628.351562 175.070312 L 628.503906 175.453125 L 628.695312 175.8125 L 628.917969 176.148438 L 629.175781 176.460938 L 629.457031 176.753906 L 629.765625 177.027344 L 630.097656 177.28125 L 630.097656 177.378906 L 629.691406 177.609375 L 629.304688 177.875 L 628.945312 178.167969 L 628.613281 178.496094 L 628.316406 178.859375 L 628.0625 179.261719 L 627.855469 179.695312 L 627.699219 180.167969 L 627.601562 180.675781 L 627.566406 181.222656 L 627.628906 181.894531 L 627.808594 182.519531 L 628.097656 183.09375 L 628.488281 183.609375 L 628.972656 184.0625 L 629.542969 184.445312 L 630.1875 184.753906 L 630.898438 184.980469 L 631.667969 185.121094 Z M 633.421875 176.464844 L 632.96875 176.277344 L 632.546875 176.082031 L 632.15625 175.875 L 631.804688 175.652344 L 631.496094 175.410156 L 631.234375 175.144531 L 631.019531 174.855469 L 630.863281 174.53125 L 630.765625 174.171875 L 630.734375 173.773438 L 630.757812 173.4375 L 630.824219 173.132812 L 630.933594 172.859375 L 631.078125 172.621094 L 631.257812 172.417969 L 631.464844 172.25 L 631.699219 172.117188 L 631.957031 172.019531 L 632.234375 171.960938 L 632.527344 171.941406 L 632.882812 171.96875 L 633.203125 172.042969 L 633.492188 172.160156 L 633.746094 172.320312 L 633.964844 172.519531 L 634.148438 172.753906 L 634.289062 173.023438 L 634.394531 173.320312 L 634.457031 173.644531 L 634.476562 173.992188 L 634.46875 174.253906 L 634.4375 174.515625 L 634.386719 174.769531 L 634.3125 175.023438 L 634.21875 175.273438 L 634.105469 175.519531 L 633.96875 175.761719 L 633.808594 176 L 633.625 176.234375 Z M 632.566406 183.097656 L 632.164062 183.070312 L 631.78125 182.996094 L 631.425781 182.875 L 631.101562 182.710938 L 630.816406 182.5 L 630.570312 182.253906 L 630.371094 181.96875 L 630.222656 181.644531 L 630.128906 181.289062 L 630.097656 180.90625 L 630.113281 180.578125 L 630.160156 180.261719 L 630.238281 179.953125 L 630.34375 179.65625 L 630.476562 179.367188 L 630.628906 179.097656 L 630.808594 178.839844 L 631.003906 178.601562 L 631.21875 178.378906 L 631.449219 178.175781 L 632.007812 178.40625 L 632.523438 178.632812 L 633 178.867188 L 633.425781 179.109375 L 633.800781 179.367188 L 634.117188 179.648438 L 634.375 179.957031 L 634.5625 180.304688 L 634.675781 180.691406 L 634.71875 181.125 L 634.691406 181.488281 L 634.613281 181.820312 L 634.488281 182.113281 L 634.320312 182.367188 L 634.113281 182.589844 L 633.867188 182.769531 L 633.585938 182.910156 L 633.273438 183.011719 L 632.929688 183.074219 Z M 632.566406 183.097656 "/>
<path style=" stroke:none;fill-rule:nonzero;fill:rgb(74.509804%,74.509804%,74.509804%);fill-opacity:0.698039;" d="M 639.9375 184.886719 L 642.863281 184.886719 L 642.863281 177.21875 L 643.09375 176.980469 L 643.320312 176.769531 L 643.546875 176.582031 L 643.765625 176.417969 L 643.980469 176.28125 L 644.191406 176.167969 L 644.398438 176.078125 L 644.601562 176.015625 L 644.800781 175.976562 L 644.996094 175.964844 L 645.296875 175.984375 L 645.5625 176.042969 L 645.800781 176.140625 L 646.003906 176.285156 L 646.175781 176.480469 L 646.316406 176.726562 L 646.425781 177.027344 L 646.503906 177.386719 L 646.550781 177.808594 L 646.566406 178.296875 L 646.566406 184.886719 L 649.476562 184.886719 L 649.476562 177.21875 L 649.710938 176.980469 L 649.945312 176.769531 L 650.171875 176.582031 L 650.394531 176.417969 L 650.609375 176.28125 L 650.824219 176.167969 L 651.03125 176.078125 L 651.234375 176.015625 L 651.433594 175.976562 L 651.628906 175.964844 L 651.925781 175.984375 L 652.195312 176.042969 L 652.429688 176.140625 L 652.628906 176.285156 L 652.800781 176.480469 L 652.9375 176.726562 L 653.042969 177.027344 L 653.121094 177.386719 L 653.164062 177.808594 L 653.179688 178.296875 L 653.179688 184.886719 L 656.109375 184.886719 L 656.109375 177.9375 L 656.074219 177.128906 L 655.976562 176.394531 L 655.808594 175.730469 L 655.570312 175.148438 L 655.265625 174.644531 L 654.886719 174.226562 L 654.4375 173.894531 L 653.914062 173.652344 L 653.316406 173.507812 L 652.644531 173.457031 L 652.21875 173.480469 L 651.8125 173.554688 L 651.429688 173.675781 L 651.058594 173.832031 L 650.707031 174.027344 L 650.367188 174.257812 L 650.035156 174.511719 L 649.714844 174.792969 L 649.40625 175.09375 L 649.097656 175.40625 L 648.925781 175.054688 L 648.726562 174.730469 L 648.5 174.441406 L 648.246094 174.1875 L 647.960938 173.96875 L 647.644531 173.789062 L 647.292969 173.644531 L 646.910156 173.539062 L 646.488281 173.476562 L 646.03125 173.457031 L 645.605469 173.480469 L 645.207031 173.546875 L 644.824219 173.65625 L 644.464844 173.800781 L 644.125 173.976562 L 643.796875 174.183594 L 643.484375 174.414062 L 643.179688 174.667969 L 642.890625 174.941406 L 642.605469 175.230469 L 642.542969 175.230469 L 642.324219 173.734375 L 639.9375 173.734375 Z M 639.9375 184.886719 "/>
<path style=" stroke:none;fill-rule:nonzero;fill:rgb(74.509804%,74.509804%,74.509804%);fill-opacity:0.698039;" d="M 659.136719 184.886719 L 662.0625 184.886719 L 662.0625 177.21875 L 662.292969 176.980469 L 662.523438 176.769531 L 662.746094 176.582031 L 662.964844 176.417969 L 663.179688 176.28125 L 663.394531 176.167969 L 663.601562 176.078125 L 663.804688 176.015625 L 664 175.976562 L 664.195312 175.964844 L 664.496094 175.984375 L 664.761719 176.042969 L 665 176.140625 L 665.203125 176.285156 L 665.378906 176.480469 L 665.519531 176.726562 L 665.628906 177.027344 L 665.707031 177.386719 L 665.753906 177.808594 L 665.769531 178.296875 L 665.769531 184.886719 L 668.675781 184.886719 L 668.675781 177.21875 L 668.914062 176.980469 L 669.144531 176.769531 L 669.371094 176.582031 L 669.59375 176.417969 L 669.8125 176.28125 L 670.023438 176.167969 L 670.230469 176.078125 L 670.433594 176.015625 L 670.632812 175.976562 L 670.828125 175.964844 L 671.125 175.984375 L 671.394531 176.042969 L 671.628906 176.140625 L 671.828125 176.285156 L 672 176.480469 L 672.136719 176.726562 L 672.246094 177.027344 L 672.320312 177.386719 L 672.367188 177.808594 L 672.378906 178.296875 L 672.378906 184.886719 L 675.308594 184.886719 L 675.308594 177.9375 L 675.273438 177.128906 L 675.175781 176.394531 L 675.007812 175.730469 L 674.769531 175.148438 L 674.464844 174.644531 L 674.085938 174.226562 L 673.636719 173.894531 L 673.113281 173.652344 L 672.515625 173.507812 L 671.84375 173.457031 L 671.417969 173.480469 L 671.011719 173.554688 L 670.628906 173.675781 L 670.257812 173.832031 L 669.90625 174.027344 L 669.566406 174.257812 L 669.238281 174.511719 L 668.917969 174.792969 L 668.605469 175.09375 L 668.296875 175.40625 L 668.125 175.054688 L 667.925781 174.730469 L 667.699219 174.441406 L 667.445312 174.1875 L 667.160156 173.96875 L 666.84375 173.789062 L 666.492188 173.644531 L 666.109375 173.539062 L 665.6875 173.476562 L 665.230469 173.457031 L 664.804688 173.480469 L 664.40625 173.546875 L 664.027344 173.65625 L 663.664062 173.800781 L 663.324219 173.976562 L 662.996094 174.183594 L 662.683594 174.414062 L 662.378906 174.667969 L 662.089844 174.941406 L 661.804688 175.230469 L 661.746094 175.230469 L 661.527344 173.734375 L 659.136719 173.734375 Z M 659.136719 184.886719 "/>
<g clip-path="url(#clip4)" clip-rule="nonzero">
<path style=" stroke:none;fill-rule:nonzero;fill:rgb(36.470588%,38.823529%,61.960784%);fill-opacity:1;" d="M 91.695312 119.914062 L 623.933594 119.914062 L 623.933594 25.667969 L 91.695312 25.667969 Z M 91.695312 119.914062 "/>
</g>
<path style=" stroke:none;fill-rule:nonzero;fill:rgb(0%,0%,0%);fill-opacity:1;" d="M 632.652344 74.117188 L 634.941406 70.453125 L 635.066406 70.210938 L 635.191406 69.972656 L 635.433594 69.488281 L 635.667969 69.003906 L 635.785156 68.765625 L 635.894531 68.523438 L 636.007812 68.28125 L 636.117188 68.042969 L 636.195312 68.042969 L 636.183594 68.316406 L 636.171875 68.617188 L 636.15625 68.929688 L 636.144531 69.253906 L 636.132812 69.582031 L 636.121094 69.914062 L 636.109375 70.234375 L 636.101562 70.546875 L 636.097656 70.839844 L 636.097656 74.117188 Z M 636.097656 80.171875 L 638.824219 80.171875 L 638.824219 76.347656 L 640.558594 76.347656 L 640.558594 74.117188 L 638.824219 74.117188 L 638.824219 65.414062 L 635.300781 65.414062 L 629.800781 74.355469 L 629.800781 76.347656 L 636.097656 76.347656 Z M 636.097656 80.171875 "/>
<path style=" stroke:none;fill-rule:nonzero;fill:rgb(0%,0%,0%);fill-opacity:1;" d="M 644.601562 70.074219 L 644.628906 69.558594 L 644.703125 69.097656 L 644.824219 68.691406 L 644.988281 68.335938 L 645.1875 68.039062 L 645.417969 67.796875 L 645.679688 67.609375 L 645.964844 67.472656 L 646.269531 67.390625 L 646.59375 67.367188 L 646.960938 67.394531 L 647.3125 67.488281 L 647.644531 67.652344 L 647.949219 67.886719 L 648.230469 68.195312 L 648.480469 68.585938 L 648.699219 69.0625 L 648.878906 69.625 L 649.023438 70.277344 L 649.121094 71.03125 L 648.910156 71.351562 L 648.6875 71.632812 L 648.453125 71.875 L 648.210938 72.082031 L 647.960938 72.253906 L 647.707031 72.390625 L 647.449219 72.492188 L 647.191406 72.566406 L 646.941406 72.609375 L 646.691406 72.625 L 646.324219 72.597656 L 645.984375 72.523438 L 645.679688 72.398438 L 645.40625 72.226562 L 645.167969 72 L 644.96875 71.71875 L 644.8125 71.390625 L 644.695312 71.003906 L 644.625 70.566406 Z M 646.195312 80.449219 L 647.0625 80.378906 L 647.90625 80.15625 L 648.707031 79.78125 L 649.449219 79.246094 L 650.121094 78.546875 L 650.703125 77.683594 L 651.183594 76.648438 L 651.542969 75.4375 L 651.769531 74.042969 L 651.851562 72.464844 L 651.777344 71.015625 L 651.566406 69.738281 L 651.234375 68.628906 L 650.789062 67.679688 L 650.246094 66.890625 L 649.621094 66.253906 L 648.925781 65.765625 L 648.175781 65.421875 L 647.378906 65.222656 L 646.550781 65.15625 L 645.808594 65.210938 L 645.097656 65.375 L 644.433594 65.644531 L 643.828125 66.015625 L 643.285156 66.480469 L 642.816406 67.035156 L 642.4375 67.675781 L 642.152344 68.398438 L 641.972656 69.199219 L 641.910156 70.074219 L 641.964844 70.964844 L 642.117188 71.757812 L 642.359375 72.457031 L 642.691406 73.058594 L 643.105469 73.566406 L 643.589844 73.980469 L 644.140625 74.304688 L 644.753906 74.53125 L 645.421875 74.667969 L 646.132812 74.714844 L 646.441406 74.695312 L 646.757812 74.644531 L 647.082031 74.558594 L 647.40625 74.441406 L 647.730469 74.292969 L 648.046875 74.113281 L 648.355469 73.90625 L 648.644531 73.667969 L 648.914062 73.40625 L 649.160156 73.121094 L 649.085938 74.15625 L 648.941406 75.050781 L 648.734375 75.8125 L 648.46875 76.453125 L 648.15625 76.972656 L 647.796875 77.382812 L 647.398438 77.691406 L 646.964844 77.902344 L 646.5 78.023438 L 646.015625 78.0625 L 645.75 78.046875 L 645.488281 78.007812 L 645.230469 77.945312 L 644.976562 77.859375 L 644.734375 77.757812 L 644.496094 77.636719 L 644.273438 77.496094 L 644.066406 77.34375 L 643.875 77.179688 L 643.703125 77.003906 L 642.152344 78.777344 L 642.425781 79.042969 L 642.730469 79.296875 L 643.066406 79.535156 L 643.425781 79.753906 L 643.8125 79.949219 L 644.230469 80.121094 L 644.679688 80.257812 L 645.152344 80.363281 L 645.660156 80.429688 Z M 646.195312 80.449219 "/>
<path style=" stroke:none;fill-rule:nonzero;fill:rgb(0%,0%,0%);fill-opacity:1;" d="M 654.417969 80.171875 L 657.347656 80.171875 L 657.347656 72.503906 L 657.578125 72.265625 L 657.804688 72.050781 L 658.03125 71.863281 L 658.25 71.699219 L 658.464844 71.5625 L 658.675781 71.449219 L 658.882812 71.363281 L 659.085938 71.300781 L 659.285156 71.261719 L 659.480469 71.25 L 659.78125 71.265625 L 660.046875 71.324219 L 660.285156 71.425781 L 660.488281 71.570312 L 660.660156 71.765625 L 660.800781 72.011719 L 660.910156 72.3125 L 660.988281 72.671875 L 661.035156 73.09375 L 661.050781 73.578125 L 661.050781 80.171875 L 663.960938 80.171875 L 663.960938 72.503906 L 664.195312 72.265625 L 664.429688 72.050781 L 664.65625 71.863281 L 664.878906 71.699219 L 665.09375 71.5625 L 665.308594 71.449219 L 665.515625 71.363281 L 665.71875 71.300781 L 665.917969 71.261719 L 666.109375 71.25 L 666.410156 71.265625 L 666.679688 71.324219 L 666.914062 71.425781 L 667.113281 71.570312 L 667.285156 71.765625 L 667.421875 72.011719 L 667.527344 72.3125 L 667.605469 72.671875 L 667.648438 73.09375 L 667.664062 73.578125 L 667.664062 80.171875 L 670.59375 80.171875 L 670.59375 73.222656 L 670.558594 72.414062 L 670.460938 71.675781 L 670.292969 71.015625 L 670.054688 70.429688 L 669.75 69.925781 L 669.371094 69.507812 L 668.921875 69.175781 L 668.398438 68.9375 L 667.800781 68.789062 L 667.125 68.738281 L 666.703125 68.765625 L 666.296875 68.839844 L 665.910156 68.957031 L 665.542969 69.117188 L 665.191406 69.3125 L 664.851562 69.539062 L 664.519531 69.796875 L 664.199219 70.074219 L 663.886719 70.375 L 663.582031 70.691406 L 663.40625 70.335938 L 663.210938 70.015625 L 662.984375 69.726562 L 662.730469 69.472656 L 662.445312 69.253906 L 662.128906 69.070312 L 661.777344 68.929688 L 661.394531 68.824219 L 660.972656 68.761719 L 660.515625 68.738281 L 660.089844 68.761719 L 659.691406 68.832031 L 659.308594 68.9375 L 658.949219 69.082031 L 658.605469 69.261719 L 658.28125 69.464844 L 657.964844 69.699219 L 657.664062 69.953125 L 657.371094 70.226562 L 657.089844 70.511719 L 657.027344 70.511719 L 656.808594 69.019531 L 654.417969 69.019531 Z M 654.417969 80.171875 "/>
<path style=" stroke:none;fill-rule:nonzero;fill:rgb(0%,0%,0%);fill-opacity:1;" d="M 673.621094 80.171875 L 676.546875 80.171875 L 676.546875 72.503906 L 676.777344 72.265625 L 677.007812 72.050781 L 677.230469 71.863281 L 677.449219 71.699219 L 677.664062 71.5625 L 677.875 71.449219 L 678.085938 71.363281 L 678.285156 71.300781 L 678.484375 71.261719 L 678.679688 71.25 L 678.980469 71.265625 L 679.246094 71.324219 L 679.484375 71.425781 L 679.6875 71.570312 L 679.859375 71.765625 L 680.003906 72.011719 L 680.113281 72.3125 L 680.191406 72.671875 L 680.238281 73.09375 L 680.253906 73.578125 L 680.253906 80.171875 L 683.160156 80.171875 L 683.160156 72.503906 L 683.398438 72.265625 L 683.628906 72.050781 L 683.855469 71.863281 L 684.078125 71.699219 L 684.296875 71.5625 L 684.507812 71.449219 L 684.714844 71.363281 L 684.917969 71.300781 L 685.117188 71.261719 L 685.3125 71.25 L 685.609375 71.265625 L 685.878906 71.324219 L 686.113281 71.425781 L 686.3125 71.570312 L 686.484375 71.765625 L 686.621094 72.011719 L 686.726562 72.3125 L 686.804688 72.671875 L 686.847656 73.09375 L 686.863281 73.578125 L 686.863281 80.171875 L 689.792969 80.171875 L 689.792969 73.222656 L 689.757812 72.414062 L 689.660156 71.675781 L 689.492188 71.015625 L 689.253906 70.429688 L 688.949219 69.925781 L 688.570312 69.507812 L 688.121094 69.175781 L 687.597656 68.9375 L 687 68.789062 L 686.328125 68.738281 L 685.902344 68.765625 L 685.496094 68.839844 L 685.113281 68.957031 L 684.742188 69.117188 L 684.390625 69.3125 L 684.050781 69.539062 L 683.71875 69.796875 L 683.402344 70.074219 L 683.089844 70.375 L 682.78125 70.691406 L 682.609375 70.335938 L 682.410156 70.015625 L 682.183594 69.726562 L 681.929688 69.472656 L 681.644531 69.253906 L 681.328125 69.070312 L 680.976562 68.929688 L 680.59375 68.824219 L 680.171875 68.761719 L 679.714844 68.738281 L 679.289062 68.761719 L 678.890625 68.832031 L 678.511719 68.9375 L 678.148438 69.082031 L 677.808594 69.261719 L 677.480469 69.464844 L 677.167969 69.699219 L 676.863281 69.953125 L 676.574219 70.226562 L 676.289062 70.511719 L 676.230469 70.511719 L 676.011719 69.019531 L 673.621094 69.019531 Z M 673.621094 80.171875 "/>
<path style=" stroke:none;fill-rule:nonzero;fill:rgb(30.196078%,30.196078%,30.196078%);fill-opacity:1;" d="M 40.042969 281.539062 L 40.167969 281.140625 L 40.289062 280.746094 L 40.410156 280.355469 L 40.527344 279.964844 L 40.644531 279.570312 L 40.761719 279.179688 L 40.988281 278.382812 L 41.101562 277.980469 L 41.210938 277.570312 L 41.273438 277.570312 L 41.390625 277.976562 L 41.503906 278.378906 L 41.617188 278.777344 L 41.734375 279.171875 L 41.847656 279.566406 L 41.964844 279.960938 L 42.085938 280.351562 L 42.207031 280.746094 L 42.332031 281.140625 L 42.457031 281.539062 L 43.019531 283.328125 L 39.464844 283.328125 Z M 36.457031 288.097656 L 37.960938 288.097656 L 39.097656 284.515625 L 43.386719 284.515625 L 44.507812 288.097656 L 46.074219 288.097656 L 42.089844 276.355469 L 40.441406 276.355469 Z M 36.457031 288.097656 "/>
<path style=" stroke:none;fill-rule:nonzero;fill:rgb(30.196078%,30.196078%,30.196078%);fill-opacity:1;" d="M 50.554688 288.304688 L 50.863281 288.289062 L 51.164062 288.242188 L 51.453125 288.167969 L 51.734375 288.066406 L 52.007812 287.941406 L 52.269531 287.796875 L 52.515625 287.636719 L 52.753906 287.460938 L 52.980469 287.273438 L 53.195312 287.074219 L 53.242188 287.074219 L 53.371094 288.097656 L 54.554688 288.097656 L 54.554688 275.363281 L 53.113281 275.363281 L 53.113281 278.707031 L 53.179688 280.210938 L 52.949219 280.027344 L 52.726562 279.859375 L 52.503906 279.707031 L 52.28125 279.574219 L 52.050781 279.457031 L 51.8125 279.363281 L 51.566406 279.285156 L 51.304688 279.230469 L 51.027344 279.199219 L 50.730469 279.1875 L 50.144531 279.238281 L 49.578125 279.390625 L 49.042969 279.640625 L 48.550781 279.984375 L 48.105469 280.417969 L 47.722656 280.933594 L 47.40625 281.53125 L 47.171875 282.203125 L 47.023438 282.949219 L 46.96875 283.761719 L 47.011719 284.59375 L 47.132812 285.347656 L 47.332031 286.019531 L 47.605469 286.613281 L 47.945312 287.121094 L 48.351562 287.539062 L 48.820312 287.871094 L 49.347656 288.113281 L 49.925781 288.257812 Z M 50.875 287.089844 L 50.433594 287.054688 L 50.035156 286.945312 L 49.679688 286.765625 L 49.367188 286.515625 L 49.097656 286.203125 L 48.878906 285.828125 L 48.703125 285.394531 L 48.578125 284.898438 L 48.5 284.347656 L 48.476562 283.746094 L 48.507812 283.171875 L 48.601562 282.636719 L 48.75 282.152344 L 48.953125 281.71875 L 49.203125 281.339844 L 49.496094 281.019531 L 49.824219 280.761719 L 50.183594 280.574219 L 50.574219 280.457031 L 50.988281 280.417969 L 51.199219 280.425781 L 51.414062 280.449219 L 51.621094 280.492188 L 51.832031 280.550781 L 52.039062 280.628906 L 52.25 280.726562 L 52.460938 280.84375 L 52.671875 280.984375 L 52.890625 281.144531 L 53.113281 281.328125 L 53.113281 285.890625 L 52.894531 286.117188 L 52.675781 286.320312 L 52.457031 286.503906 L 52.238281 286.65625 L 52.019531 286.789062 L 51.796875 286.898438 L 51.570312 286.980469 L 51.34375 287.042969 L 51.113281 287.078125 Z M 50.875 287.089844 "/>
<path style=" stroke:none;fill-rule:nonzero;fill:rgb(30.196078%,30.196078%,30.196078%);fill-opacity:1;" d="M 61.019531 288.304688 L 61.367188 288.292969 L 61.699219 288.261719 L 62.019531 288.207031 L 62.324219 288.132812 L 62.613281 288.042969 L 62.894531 287.941406 L 63.160156 287.824219 L 63.417969 287.695312 L 63.664062 287.554688 L 63.898438 287.410156 L 63.371094 286.449219 L 63.175781 286.574219 L 62.980469 286.6875 L 62.777344 286.789062 L 62.574219 286.878906 L 62.359375 286.957031 L 62.144531 287.019531 L 61.917969 287.070312 L 61.683594 287.109375 L 61.445312 287.128906 L 61.195312 287.136719 L 60.714844 287.101562 L 60.273438 287 L 59.863281 286.832031 L 59.496094 286.601562 L 59.171875 286.3125 L 58.894531 285.96875 L 58.667969 285.574219 L 58.492188 285.125 L 58.375 284.632812 L 58.316406 284.097656 L 64.171875 284.097656 L 64.179688 284.03125 L 64.191406 283.960938 L 64.199219 283.886719 L 64.207031 283.808594 L 64.222656 283.636719 L 64.230469 283.457031 L 64.234375 283.363281 L 64.234375 283.265625 L 64.199219 282.550781 L 64.085938 281.890625 L 63.90625 281.292969 L 63.652344 280.757812 L 63.335938 280.296875 L 62.949219 279.90625 L 62.5 279.597656 L 61.984375 279.371094 L 61.410156 279.234375 L 60.777344 279.1875 L 60.179688 279.238281 L 59.597656 279.390625 L 59.042969 279.640625 L 58.527344 279.984375 L 58.0625 280.417969 L 57.65625 280.933594 L 57.324219 281.53125 L 57.074219 282.203125 L 56.914062 282.949219 L 56.859375 283.761719 L 56.914062 284.585938 L 57.070312 285.335938 L 57.320312 286.007812 L 57.660156 286.597656 L 58.074219 287.109375 L 58.558594 287.53125 L 59.105469 287.867188 L 59.703125 288.109375 L 60.34375 288.257812 Z M 58.296875 283.042969 L 58.378906 282.554688 L 58.507812 282.109375 L 58.683594 281.714844 L 58.898438 281.363281 L 59.152344 281.0625 L 59.433594 280.8125 L 59.746094 280.613281 L 60.078125 280.472656 L 60.429688 280.382812 L 60.792969 280.355469 L 61.1875 280.382812 L 61.542969 280.464844 L 61.859375 280.605469 L 62.140625 280.796875 L 62.382812 281.042969 L 62.585938 281.34375 L 62.746094 281.691406 L 62.859375 282.09375 L 62.929688 282.542969 L 62.953125 283.042969 Z M 58.296875 283.042969 "/>
<path style=" stroke:none;fill-rule:nonzero;fill:rgb(30.196078%,30.196078%,30.196078%);fill-opacity:1;" d="M 67.914062 288.304688 L 68.03125 288.304688 L 68.136719 288.300781 L 68.234375 288.292969 L 68.324219 288.285156 L 68.410156 288.273438 L 68.488281 288.257812 L 68.5625 288.242188 L 68.632812 288.222656 L 68.699219 288.199219 L 68.761719 288.179688 L 68.554688 287.058594 L 68.507812 287.066406 L 68.46875 287.074219 L 68.433594 287.078125 L 68.371094 287.085938 L 68.347656 287.089844 L 68.25 287.089844 L 68.183594 287.085938 L 68.121094 287.066406 L 68.0625 287.039062 L 68.007812 287 L 67.957031 286.945312 L 67.917969 286.878906 L 67.882812 286.796875 L 67.855469 286.703125 L 67.839844 286.59375 L 67.835938 286.464844 L 67.835938 275.363281 L 66.378906 275.363281 L 66.378906 286.371094 L 66.390625 286.722656 L 66.433594 287.042969 L 66.503906 287.332031 L 66.605469 287.582031 L 66.738281 287.800781 L 66.902344 287.980469 L 67.101562 288.121094 L 67.335938 288.222656 L 67.605469 288.285156 Z M 67.914062 288.304688 "/>
<path style=" stroke:none;fill-rule:nonzero;fill:rgb(30.196078%,30.196078%,30.196078%);fill-opacity:1;" d="M 70.9375 288.097656 L 72.394531 288.097656 L 72.394531 279.410156 L 70.9375 279.410156 Z M 71.675781 277.617188 L 71.84375 277.605469 L 71.996094 277.574219 L 72.140625 277.519531 L 72.265625 277.445312 L 72.378906 277.351562 L 72.472656 277.242188 L 72.546875 277.113281 L 72.605469 276.972656 L 72.640625 276.8125 L 72.652344 276.640625 L 72.640625 276.480469 L 72.605469 276.328125 L 72.546875 276.191406 L 72.472656 276.066406 L 72.378906 275.960938 L 72.265625 275.867188 L 72.140625 275.796875 L 71.996094 275.742188 L 71.84375 275.710938 L 71.675781 275.699219 L 71.507812 275.710938 L 71.351562 275.742188 L 71.210938 275.796875 L 71.082031 275.867188 L 70.96875 275.960938 L 70.875 276.066406 L 70.800781 276.191406 L 70.746094 276.328125 L 70.710938 276.480469 L 70.699219 276.640625 L 70.710938 276.8125 L 70.746094 276.972656 L 70.800781 277.113281 L 70.875 277.242188 L 70.96875 277.351562 L 71.082031 277.445312 L 71.210938 277.519531 L 71.351562 277.574219 L 71.507812 277.605469 Z M 71.675781 277.617188 "/>
<path style=" stroke:none;fill-rule:nonzero;fill:rgb(30.196078%,30.196078%,30.196078%);fill-opacity:1;" d="M 78.84375 288.304688 L 79.191406 288.292969 L 79.523438 288.261719 L 79.839844 288.207031 L 80.148438 288.132812 L 80.4375 288.042969 L 80.71875 287.941406 L 80.984375 287.824219 L 81.242188 287.695312 L 81.488281 287.554688 L 81.722656 287.410156 L 81.195312 286.449219 L 81 286.574219 L 80.804688 286.6875 L 80.601562 286.789062 L 80.394531 286.878906 L 80.183594 286.957031 L 79.964844 287.019531 L 79.742188 287.070312 L 79.507812 287.109375 L 79.269531 287.128906 L 79.019531 287.136719 L 78.539062 287.101562 L 78.09375 287 L 77.6875 286.832031 L 77.320312 286.601562 L 76.996094 286.3125 L 76.71875 285.96875 L 76.492188 285.574219 L 76.316406 285.125 L 76.199219 284.632812 L 76.136719 284.097656 L 81.996094 284.097656 L 82.003906 284.03125 L 82.011719 283.960938 L 82.023438 283.886719 L 82.03125 283.808594 L 82.046875 283.636719 L 82.054688 283.457031 L 82.058594 283.363281 L 82.058594 283.265625 L 82.023438 282.550781 L 81.910156 281.890625 L 81.730469 281.292969 L 81.476562 280.757812 L 81.160156 280.296875 L 80.773438 279.90625 L 80.324219 279.597656 L 79.808594 279.371094 L 79.234375 279.234375 L 78.601562 279.1875 L 78.003906 279.238281 L 77.421875 279.390625 L 76.867188 279.640625 L 76.351562 279.984375 L 75.886719 280.417969 L 75.480469 280.933594 L 75.148438 281.53125 L 74.898438 282.203125 L 74.738281 282.949219 L 74.683594 283.761719 L 74.738281 284.585938 L 74.894531 285.335938 L 75.144531 286.007812 L 75.484375 286.597656 L 75.898438 287.109375 L 76.382812 287.53125 L 76.929688 287.867188 L 77.523438 288.109375 L 78.167969 288.257812 Z M 76.121094 283.042969 L 76.203125 282.554688 L 76.332031 282.109375 L 76.507812 281.714844 L 76.722656 281.363281 L 76.976562 281.0625 L 77.257812 280.8125 L 77.570312 280.613281 L 77.902344 280.472656 L 78.253906 280.382812 L 78.617188 280.355469 L 79.007812 280.382812 L 79.367188 280.464844 L 79.683594 280.605469 L 79.964844 280.796875 L 80.207031 281.042969 L 80.410156 281.34375 L 80.570312 281.691406 L 80.683594 282.09375 L 80.753906 282.542969 L 80.777344 283.042969 Z M 76.121094 283.042969 "/>
<path style=" stroke:none;fill-rule:nonzero;fill:rgb(30.196078%,30.196078%,30.196078%);fill-opacity:1;" d="M 33.851562 183.589844 L 34.316406 183.574219 L 34.765625 183.523438 L 35.191406 183.445312 L 35.597656 183.335938 L 35.980469 183.203125 L 36.335938 183.046875 L 36.664062 182.867188 L 36.96875 182.671875 L 37.242188 182.457031 L 37.484375 182.230469 L 37.484375 177.300781 L 33.644531 177.300781 L 33.644531 178.535156 L 36.121094 178.535156 L 36.121094 181.605469 L 35.972656 181.730469 L 35.804688 181.84375 L 35.617188 181.945312 L 35.417969 182.035156 L 35.203125 182.113281 L 34.980469 182.175781 L 34.746094 182.226562 L 34.503906 182.261719 L 34.257812 182.285156 L 34.011719 182.292969 L 33.285156 182.238281 L 32.632812 182.078125 L 32.050781 181.8125 L 31.539062 181.449219 L 31.101562 180.996094 L 30.742188 180.453125 L 30.460938 179.824219 L 30.253906 179.113281 L 30.132812 178.332031 L 30.089844 177.476562 L 30.136719 176.632812 L 30.269531 175.859375 L 30.484375 175.160156 L 30.78125 174.539062 L 31.152344 174.003906 L 31.59375 173.554688 L 32.101562 173.199219 L 32.671875 172.9375 L 33.296875 172.78125 L 33.980469 172.726562 L 34.324219 172.738281 L 34.648438 172.78125 L 34.945312 172.847656 L 35.222656 172.941406 L 35.480469 173.050781 L 35.71875 173.179688 L 35.9375 173.328125 L 36.144531 173.488281 L 36.339844 173.664062 L 36.523438 173.84375 L 37.324219 172.886719 L 37.109375 172.667969 L 36.871094 172.457031 L 36.605469 172.253906 L 36.3125 172.0625 L 35.996094 171.886719 L 35.644531 171.734375 L 35.269531 171.609375 L 34.859375 171.511719 L 34.417969 171.449219 L 33.945312 171.429688 L 33.042969 171.496094 L 32.195312 171.699219 L 31.417969 172.03125 L 30.714844 172.484375 L 30.09375 173.054688 L 29.570312 173.742188 L 29.144531 174.535156 L 28.832031 175.433594 L 28.636719 176.433594 L 28.570312 177.523438 L 28.636719 178.621094 L 28.824219 179.617188 L 29.128906 180.515625 L 29.542969 181.304688 L 30.058594 181.984375 L 30.664062 182.550781 L 31.355469 183 L 32.121094 183.324219 L 32.957031 183.523438 Z M 33.851562 183.589844 "/>
<path style=" stroke:none;fill-rule:nonzero;fill:rgb(30.196078%,30.196078%,30.196078%);fill-opacity:1;" d="M 43.644531 183.589844 L 43.992188 183.578125 L 44.324219 183.542969 L 44.640625 183.488281 L 44.945312 183.417969 L 45.238281 183.328125 L 45.519531 183.222656 L 45.785156 183.105469 L 46.042969 182.976562 L 46.289062 182.839844 L 46.523438 182.691406 L 45.996094 181.734375 L 45.800781 181.859375 L 45.605469 181.972656 L 45.402344 182.074219 L 45.195312 182.164062 L 44.984375 182.238281 L 44.765625 182.304688 L 44.542969 182.355469 L 44.308594 182.390625 L 44.066406 182.414062 L 43.820312 182.421875 L 43.339844 182.386719 L 42.894531 182.285156 L 42.488281 182.117188 L 42.121094 181.886719 L 41.796875 181.597656 L 41.519531 181.253906 L 41.292969 180.855469 L 41.117188 180.410156 L 41 179.917969 L 40.9375 179.382812 L 46.792969 179.382812 L 46.804688 179.316406 L 46.8125 179.246094 L 46.824219 179.171875 L 46.839844 179.007812 L 46.84375 178.921875 L 46.851562 178.832031 L 46.859375 178.644531 L 46.859375 178.550781 L 46.820312 177.832031 L 46.710938 177.171875 L 46.53125 176.574219 L 46.277344 176.042969 L 45.957031 175.578125 L 45.574219 175.191406 L 45.121094 174.882812 L 44.609375 174.65625 L 44.035156 174.515625 L 43.402344 174.46875 L 42.804688 174.519531 L 42.222656 174.675781 L 41.667969 174.925781 L 41.152344 175.269531 L 40.6875 175.703125 L 40.28125 176.21875 L 39.949219 176.816406 L 39.695312 177.488281 L 39.539062 178.234375 L 39.484375 179.046875 L 39.535156 179.867188 L 39.695312 180.617188 L 39.945312 181.289062 L 40.285156 181.882812 L 40.699219 182.390625 L 41.183594 182.816406 L 41.726562 183.148438 L 42.324219 183.390625 L 42.964844 183.539062 Z M 40.921875 178.324219 L 41.003906 177.839844 L 41.132812 177.394531 L 41.304688 176.996094 L 41.523438 176.648438 L 41.773438 176.34375 L 42.058594 176.09375 L 42.371094 175.898438 L 42.703125 175.753906 L 43.054688 175.667969 L 43.417969 175.636719 L 43.808594 175.664062 L 44.164062 175.75 L 44.484375 175.886719 L 44.765625 176.082031 L 45.007812 176.328125 L 45.210938 176.625 L 45.367188 176.976562 L 45.484375 177.375 L 45.554688 177.828125 L 45.578125 178.324219 Z M 40.921875 178.324219 "/>
<path style=" stroke:none;fill-rule:nonzero;fill:rgb(30.196078%,30.196078%,30.196078%);fill-opacity:1;" d="M 49.003906 183.382812 L 50.457031 183.382812 L 50.457031 177.078125 L 50.714844 176.828125 L 50.957031 176.601562 L 51.191406 176.402344 L 51.417969 176.230469 L 51.644531 176.082031 L 51.871094 175.964844 L 52.097656 175.871094 L 52.335938 175.804688 L 52.582031 175.761719 L 52.84375 175.75 L 53.167969 175.769531 L 53.457031 175.832031 L 53.707031 175.941406 L 53.921875 176.097656 L 54.097656 176.296875 L 54.242188 176.546875 L 54.351562 176.847656 L 54.429688 177.203125 L 54.476562 177.609375 L 54.492188 178.070312 L 54.492188 183.382812 L 55.945312 183.382812 L 55.945312 177.878906 L 55.921875 177.242188 L 55.84375 176.667969 L 55.71875 176.160156 L 55.535156 175.71875 L 55.300781 175.339844 L 55.011719 175.027344 L 54.667969 174.785156 L 54.265625 174.609375 L 53.808594 174.503906 L 53.289062 174.46875 L 52.945312 174.488281 L 52.613281 174.542969 L 52.296875 174.632812 L 51.992188 174.753906 L 51.703125 174.898438 L 51.421875 175.070312 L 51.152344 175.261719 L 50.886719 175.476562 L 50.628906 175.703125 L 50.378906 175.941406 L 50.332031 175.941406 L 50.203125 174.691406 L 49.003906 174.691406 Z M 49.003906 183.382812 "/>
<path style=" stroke:none;fill-rule:nonzero;fill:rgb(30.196078%,30.196078%,30.196078%);fill-opacity:1;" d="M 61.515625 183.589844 L 61.675781 183.585938 L 61.835938 183.570312 L 62 183.550781 L 62.164062 183.523438 L 62.328125 183.488281 L 62.648438 183.410156 L 62.808594 183.363281 L 62.964844 183.316406 L 63.113281 183.269531 L 62.828125 182.179688 L 62.738281 182.214844 L 62.542969 182.277344 L 62.441406 182.308594 L 62.335938 182.335938 L 62.230469 182.359375 L 62.128906 182.378906 L 62.027344 182.394531 L 61.929688 182.402344 L 61.835938 182.40625 L 61.550781 182.386719 L 61.308594 182.332031 L 61.101562 182.246094 L 60.925781 182.121094 L 60.785156 181.96875 L 60.671875 181.78125 L 60.589844 181.5625 L 60.535156 181.3125 L 60.5 181.03125 L 60.492188 180.726562 L 60.492188 175.878906 L 62.84375 175.878906 L 62.84375 174.691406 L 60.492188 174.691406 L 60.492188 172.246094 L 59.273438 172.246094 L 59.097656 174.691406 L 57.738281 174.773438 L 57.738281 175.878906 L 59.035156 175.878906 L 59.035156 180.691406 L 59.054688 181.195312 L 59.113281 181.65625 L 59.21875 182.082031 L 59.375 182.460938 L 59.578125 182.789062 L 59.839844 183.066406 L 60.160156 183.289062 L 60.542969 183.453125 L 60.996094 183.554688 Z M 61.515625 183.589844 "/>
<path style=" stroke:none;fill-rule:nonzero;fill:rgb(30.196078%,30.196078%,30.196078%);fill-opacity:1;" d="M 68.1875 183.589844 L 68.816406 183.539062 L 69.421875 183.394531 L 69.996094 183.152344 L 70.523438 182.820312 L 71 182.398438 L 71.414062 181.890625 L 71.75 181.296875 L 72.003906 180.625 L 72.164062 179.871094 L 72.21875 179.046875 L 72.164062 178.214844 L 72.003906 177.457031 L 71.75 176.78125 L 71.414062 176.183594 L 71 175.671875 L 70.523438 175.246094 L 69.996094 174.910156 L 69.421875 174.667969 L 68.816406 174.519531 L 68.1875 174.46875 L 67.554688 174.519531 L 66.949219 174.667969 L 66.378906 174.910156 L 65.847656 175.246094 L 65.371094 175.671875 L 64.960938 176.183594 L 64.625 176.78125 L 64.371094 177.457031 L 64.210938 178.214844 L 64.15625 179.046875 L 64.210938 179.871094 L 64.371094 180.625 L 64.625 181.296875 L 64.960938 181.890625 L 65.371094 182.398438 L 65.847656 182.820312 L 66.378906 183.152344 L 66.949219 183.394531 L 67.554688 183.539062 Z M 68.1875 182.375 L 67.75 182.335938 L 67.347656 182.21875 L 66.980469 182.03125 L 66.652344 181.777344 L 66.367188 181.460938 L 66.125 181.082031 L 65.933594 180.644531 L 65.792969 180.160156 L 65.703125 179.625 L 65.675781 179.046875 L 65.703125 178.464844 L 65.792969 177.929688 L 65.933594 177.4375 L 66.125 177 L 66.367188 176.617188 L 66.652344 176.292969 L 66.980469 176.03125 L 67.347656 175.84375 L 67.75 175.726562 L 68.1875 175.683594 L 68.621094 175.726562 L 69.027344 175.84375 L 69.394531 176.03125 L 69.726562 176.292969 L 70.015625 176.617188 L 70.257812 177 L 70.453125 177.4375 L 70.597656 177.929688 L 70.683594 178.464844 L 70.714844 179.046875 L 70.683594 179.625 L 70.597656 180.160156 L 70.453125 180.644531 L 70.257812 181.082031 L 70.015625 181.460938 L 69.726562 181.777344 L 69.394531 182.03125 L 69.027344 182.21875 L 68.621094 182.335938 Z M 68.1875 182.375 "/>
<path style=" stroke:none;fill-rule:nonzero;fill:rgb(30.196078%,30.196078%,30.196078%);fill-opacity:1;" d="M 77.882812 183.589844 L 78.511719 183.539062 L 79.117188 183.394531 L 79.691406 183.152344 L 80.222656 182.820312 L 80.695312 182.398438 L 81.109375 181.890625 L 81.445312 181.296875 L 81.699219 180.625 L 81.859375 179.871094 L 81.914062 179.046875 L 81.859375 178.214844 L 81.699219 177.457031 L 81.445312 176.78125 L 81.109375 176.183594 L 80.695312 175.671875 L 80.222656 175.246094 L 79.691406 174.910156 L 79.117188 174.667969 L 78.511719 174.519531 L 77.882812 174.46875 L 77.253906 174.519531 L 76.644531 174.667969 L 76.074219 174.910156 L 75.542969 175.246094 L 75.070312 175.671875 L 74.65625 176.183594 L 74.320312 176.78125 L 74.066406 177.457031 L 73.90625 178.214844 L 73.851562 179.046875 L 73.90625 179.871094 L 74.066406 180.625 L 74.320312 181.296875 L 74.65625 181.890625 L 75.070312 182.398438 L 75.542969 182.820312 L 76.074219 183.152344 L 76.644531 183.394531 L 77.253906 183.539062 Z M 77.882812 182.375 L 77.445312 182.335938 L 77.042969 182.21875 L 76.675781 182.03125 L 76.347656 181.777344 L 76.0625 181.460938 L 75.820312 181.082031 L 75.628906 180.644531 L 75.488281 180.160156 L 75.398438 179.625 L 75.371094 179.046875 L 75.398438 178.464844 L 75.488281 177.929688 L 75.628906 177.4375 L 75.820312 177 L 76.0625 176.617188 L 76.347656 176.292969 L 76.675781 176.03125 L 77.042969 175.84375 L 77.445312 175.726562 L 77.882812 175.683594 L 78.320312 175.726562 L 78.722656 175.84375 L 79.09375 176.03125 L 79.421875 176.292969 L 79.710938 176.617188 L 79.953125 177 L 80.148438 177.4375 L 80.292969 177.929688 L 80.378906 178.464844 L 80.410156 179.046875 L 80.378906 179.625 L 80.292969 180.160156 L 80.148438 180.644531 L 79.953125 181.082031 L 79.710938 181.460938 L 79.421875 181.777344 L 79.09375 182.03125 L 78.722656 182.21875 L 78.320312 182.335938 Z M 77.882812 182.375 "/>
<path style=" stroke:none;fill-rule:nonzero;fill:rgb(30.196078%,30.196078%,30.196078%);fill-opacity:1;" d="M 15.996094 78.871094 L 16.441406 78.855469 L 16.863281 78.800781 L 17.265625 78.710938 L 17.652344 78.589844 L 18.015625 78.433594 L 18.363281 78.246094 L 18.695312 78.027344 L 19.011719 77.777344 L 19.308594 77.5 L 19.59375 77.191406 L 18.777344 76.265625 L 18.550781 76.5 L 18.316406 76.714844 L 18.070312 76.90625 L 17.820312 77.078125 L 17.554688 77.226562 L 17.285156 77.351562 L 16.996094 77.449219 L 16.699219 77.519531 L 16.386719 77.5625 L 16.058594 77.578125 L 15.414062 77.523438 L 14.820312 77.359375 L 14.28125 77.097656 L 13.808594 76.734375 L 13.394531 76.277344 L 13.050781 75.734375 L 12.773438 75.105469 L 12.574219 74.398438 L 12.453125 73.613281 L 12.410156 72.761719 L 12.453125 71.917969 L 12.582031 71.140625 L 12.789062 70.441406 L 13.070312 69.824219 L 13.425781 69.285156 L 13.84375 68.839844 L 14.328125 68.480469 L 14.867188 68.222656 L 15.460938 68.0625 L 16.105469 68.007812 L 16.402344 68.023438 L 16.683594 68.0625 L 16.953125 68.125 L 17.210938 68.214844 L 17.457031 68.324219 L 17.691406 68.449219 L 17.910156 68.597656 L 18.121094 68.761719 L 18.320312 68.9375 L 18.507812 69.128906 L 19.304688 68.167969 L 19.089844 67.945312 L 18.851562 67.726562 L 18.585938 67.523438 L 18.292969 67.332031 L 17.980469 67.160156 L 17.644531 67.007812 L 17.285156 66.886719 L 16.90625 66.792969 L 16.507812 66.734375 L 16.089844 66.710938 L 15.222656 66.78125 L 14.40625 66.984375 L 13.65625 67.3125 L 12.972656 67.765625 L 12.375 68.339844 L 11.863281 69.023438 L 11.453125 69.820312 L 11.144531 70.71875 L 10.957031 71.714844 L 10.890625 72.808594 L 10.953125 73.902344 L 11.140625 74.902344 L 11.441406 75.796875 L 11.847656 76.589844 L 12.351562 77.269531 L 12.941406 77.835938 L 13.609375 78.28125 L 14.34375 78.609375 L 15.144531 78.804688 Z M 15.996094 78.871094 "/>
<path style=" stroke:none;fill-rule:nonzero;fill:rgb(30.196078%,30.196078%,30.196078%);fill-opacity:1;" d="M 21.644531 78.664062 L 23.097656 78.664062 L 23.097656 72.359375 L 23.355469 72.109375 L 23.597656 71.882812 L 23.832031 71.6875 L 24.058594 71.511719 L 24.285156 71.367188 L 24.511719 71.246094 L 24.738281 71.152344 L 24.976562 71.085938 L 25.222656 71.046875 L 25.484375 71.03125 L 25.808594 71.054688 L 26.097656 71.117188 L 26.347656 71.226562 L 26.558594 71.378906 L 26.738281 71.582031 L 26.882812 71.832031 L 26.992188 72.132812 L 27.070312 72.484375 L 27.117188 72.890625 L 27.128906 73.351562 L 27.128906 78.664062 L 28.585938 78.664062 L 28.585938 73.160156 L 28.5625 72.523438 L 28.484375 71.953125 L 28.359375 71.445312 L 28.175781 71 L 27.941406 70.621094 L 27.652344 70.3125 L 27.308594 70.070312 L 26.90625 69.894531 L 26.449219 69.789062 L 25.929688 69.753906 L 25.582031 69.773438 L 25.253906 69.828125 L 24.9375 69.914062 L 24.636719 70.035156 L 24.347656 70.179688 L 24.070312 70.351562 L 23.800781 70.542969 L 23.542969 70.75 L 23.292969 70.972656 L 23.050781 71.207031 L 23.097656 69.417969 L 23.097656 65.929688 L 21.644531 65.929688 Z M 21.644531 78.664062 "/>
<path style=" stroke:none;fill-rule:nonzero;fill:rgb(30.196078%,30.196078%,30.196078%);fill-opacity:1;" d="M 31.355469 78.664062 L 32.8125 78.664062 L 32.8125 69.976562 L 31.355469 69.976562 Z M 32.089844 68.183594 L 32.257812 68.171875 L 32.414062 68.140625 L 32.554688 68.085938 L 32.683594 68.011719 L 32.792969 67.917969 L 32.890625 67.808594 L 32.964844 67.679688 L 33.019531 67.539062 L 33.054688 67.378906 L 33.066406 67.207031 L 33.054688 67.046875 L 33.019531 66.894531 L 32.964844 66.757812 L 32.890625 66.632812 L 32.792969 66.527344 L 32.683594 66.4375 L 32.554688 66.363281 L 32.414062 66.308594 L 32.257812 66.277344 L 32.089844 66.265625 L 31.921875 66.277344 L 31.769531 66.308594 L 31.625 66.363281 L 31.5 66.4375 L 31.386719 66.527344 L 31.292969 66.632812 L 31.214844 66.757812 L 31.160156 66.894531 L 31.125 67.046875 L 31.113281 67.207031 L 31.125 67.378906 L 31.160156 67.539062 L 31.214844 67.679688 L 31.292969 67.808594 L 31.386719 67.917969 L 31.5 68.011719 L 31.625 68.085938 L 31.769531 68.140625 L 31.921875 68.171875 Z M 32.089844 68.183594 "/>
<path style=" stroke:none;fill-rule:nonzero;fill:rgb(30.196078%,30.196078%,30.196078%);fill-opacity:1;" d="M 35.753906 78.664062 L 37.210938 78.664062 L 37.210938 72.359375 L 37.46875 72.109375 L 37.710938 71.882812 L 37.945312 71.6875 L 38.171875 71.511719 L 38.398438 71.367188 L 38.621094 71.246094 L 38.851562 71.152344 L 39.085938 71.085938 L 39.332031 71.046875 L 39.59375 71.03125 L 39.921875 71.054688 L 40.207031 71.117188 L 40.457031 71.226562 L 40.671875 71.378906 L 40.851562 71.582031 L 40.996094 71.832031 L 41.105469 72.132812 L 41.183594 72.484375 L 41.226562 72.890625 L 41.242188 73.351562 L 41.242188 78.664062 L 42.699219 78.664062 L 42.699219 73.160156 L 42.671875 72.523438 L 42.597656 71.953125 L 42.46875 71.445312 L 42.289062 71 L 42.054688 70.621094 L 41.765625 70.3125 L 41.421875 70.070312 L 41.019531 69.894531 L 40.558594 69.789062 L 40.042969 69.753906 L 39.695312 69.773438 L 39.363281 69.828125 L 39.046875 69.917969 L 38.746094 70.035156 L 38.453125 70.183594 L 38.175781 70.355469 L 37.902344 70.546875 L 37.640625 70.757812 L 37.382812 70.984375 L 37.128906 71.226562 L 37.082031 71.226562 L 36.953125 69.976562 L 35.753906 69.976562 Z M 35.753906 78.664062 "/>
<path style=" stroke:none;fill-rule:nonzero;fill:rgb(30.196078%,30.196078%,30.196078%);fill-opacity:1;" d="M 47.800781 78.871094 L 48.390625 78.839844 L 48.917969 78.738281 L 49.390625 78.582031 L 49.800781 78.371094 L 50.15625 78.113281 L 50.445312 77.8125 L 50.671875 77.472656 L 50.835938 77.105469 L 50.9375 76.710938 L 50.96875 76.296875 L 50.929688 75.835938 L 50.816406 75.433594 L 50.636719 75.089844 L 50.398438 74.792969 L 50.117188 74.539062 L 49.796875 74.320312 L 49.445312 74.128906 L 49.078125 73.957031 L 48.695312 73.800781 L 48.316406 73.65625 L 48.023438 73.546875 L 47.746094 73.4375 L 47.480469 73.328125 L 47.234375 73.207031 L 47.011719 73.078125 L 46.820312 72.933594 L 46.664062 72.773438 L 46.542969 72.59375 L 46.46875 72.386719 L 46.441406 72.152344 L 46.457031 71.953125 L 46.503906 71.765625 L 46.582031 71.585938 L 46.695312 71.421875 L 46.835938 71.277344 L 47.011719 71.152344 L 47.222656 71.046875 L 47.464844 70.96875 L 47.746094 70.921875 L 48.058594 70.90625 L 48.285156 70.914062 L 48.5 70.941406 L 48.710938 70.984375 L 48.914062 71.046875 L 49.109375 71.121094 L 49.300781 71.207031 L 49.484375 71.308594 L 49.667969 71.421875 L 49.847656 71.542969 L 50.027344 71.671875 L 50.730469 70.730469 L 50.519531 70.574219 L 50.296875 70.425781 L 50.054688 70.285156 L 49.804688 70.15625 L 49.535156 70.042969 L 49.257812 69.945312 L 48.96875 69.863281 L 48.667969 69.804688 L 48.359375 69.765625 L 48.042969 69.753906 L 47.5 69.785156 L 47.003906 69.875 L 46.558594 70.023438 L 46.167969 70.222656 L 45.832031 70.46875 L 45.550781 70.753906 L 45.328125 71.078125 L 45.167969 71.433594 L 45.066406 71.8125 L 45.035156 72.214844 L 45.074219 72.632812 L 45.183594 73 L 45.355469 73.324219 L 45.578125 73.609375 L 45.851562 73.855469 L 46.15625 74.074219 L 46.492188 74.265625 L 46.847656 74.4375 L 47.210938 74.589844 L 47.578125 74.730469 L 47.867188 74.839844 L 48.152344 74.957031 L 48.429688 75.078125 L 48.691406 75.210938 L 48.929688 75.355469 L 49.140625 75.515625 L 49.316406 75.695312 L 49.449219 75.898438 L 49.53125 76.121094 L 49.5625 76.375 L 49.546875 76.597656 L 49.496094 76.808594 L 49.410156 77.003906 L 49.292969 77.179688 L 49.136719 77.339844 L 48.949219 77.472656 L 48.726562 77.585938 L 48.472656 77.667969 L 48.179688 77.71875 L 47.851562 77.738281 L 47.546875 77.722656 L 47.253906 77.6875 L 46.976562 77.628906 L 46.710938 77.550781 L 46.453125 77.453125 L 46.207031 77.335938 L 45.964844 77.203125 L 45.730469 77.050781 L 45.5 76.890625 L 45.273438 76.710938 L 44.554688 77.671875 L 44.816406 77.875 L 45.09375 78.0625 L 45.390625 78.234375 L 45.703125 78.390625 L 46.027344 78.53125 L 46.367188 78.648438 L 46.714844 78.742188 L 47.070312 78.8125 L 47.433594 78.859375 Z M 47.800781 78.871094 "/>
<path style=" stroke:none;fill-rule:nonzero;fill:rgb(30.196078%,30.196078%,30.196078%);fill-opacity:1;" d="M 55.753906 78.871094 L 55.914062 78.867188 L 56.078125 78.855469 L 56.238281 78.832031 L 56.402344 78.804688 L 56.566406 78.773438 L 56.730469 78.734375 L 56.890625 78.691406 L 57.046875 78.648438 L 57.203125 78.601562 L 57.355469 78.550781 L 57.066406 77.464844 L 56.976562 77.5 L 56.882812 77.53125 L 56.679688 77.59375 L 56.578125 77.617188 L 56.472656 77.640625 L 56.367188 77.660156 L 56.265625 77.675781 L 56.167969 77.683594 L 56.074219 77.6875 L 55.792969 77.671875 L 55.546875 77.617188 L 55.339844 77.527344 L 55.167969 77.40625 L 55.023438 77.25 L 54.914062 77.0625 L 54.832031 76.84375 L 54.773438 76.59375 L 54.742188 76.316406 L 54.730469 76.007812 L 54.730469 71.160156 L 57.082031 71.160156 L 57.082031 69.976562 L 54.730469 69.976562 L 54.730469 67.527344 L 53.515625 67.527344 L 53.339844 69.976562 L 51.980469 70.058594 L 51.980469 71.160156 L 53.273438 71.160156 L 53.273438 75.976562 L 53.292969 76.476562 L 53.355469 76.941406 L 53.460938 77.363281 L 53.613281 77.742188 L 53.820312 78.074219 L 54.078125 78.351562 L 54.402344 78.574219 L 54.785156 78.738281 L 55.234375 78.839844 Z M 55.753906 78.871094 "/>
<path style=" stroke:none;fill-rule:nonzero;fill:rgb(30.196078%,30.196078%,30.196078%);fill-opacity:1;" d="M 59.050781 78.664062 L 60.507812 78.664062 L 60.507812 73.082031 L 60.6875 72.664062 L 60.886719 72.300781 L 61.097656 71.992188 L 61.320312 71.734375 L 61.546875 71.523438 L 61.78125 71.355469 L 62.015625 71.230469 L 62.25 71.144531 L 62.476562 71.097656 L 62.699219 71.082031 L 62.800781 71.082031 L 62.894531 71.085938 L 62.984375 71.089844 L 63.066406 71.097656 L 63.148438 71.109375 L 63.226562 71.125 L 63.304688 71.144531 L 63.382812 71.167969 L 63.460938 71.195312 L 63.546875 71.226562 L 63.820312 69.945312 L 63.738281 69.902344 L 63.65625 69.871094 L 63.570312 69.839844 L 63.398438 69.792969 L 63.304688 69.777344 L 63.210938 69.765625 L 63.109375 69.757812 L 63.003906 69.753906 L 62.890625 69.753906 L 62.601562 69.773438 L 62.316406 69.835938 L 62.042969 69.933594 L 61.777344 70.070312 L 61.519531 70.242188 L 61.277344 70.449219 L 61.042969 70.683594 L 60.824219 70.949219 L 60.617188 71.242188 L 60.425781 71.5625 L 60.378906 71.5625 L 60.25 69.976562 L 59.050781 69.976562 Z M 59.050781 78.664062 "/>
<path style=" stroke:none;fill-rule:nonzero;fill:rgb(30.196078%,30.196078%,30.196078%);fill-opacity:1;" d="M 67.257812 78.871094 L 67.578125 78.855469 L 67.890625 78.808594 L 68.195312 78.734375 L 68.496094 78.632812 L 68.789062 78.507812 L 69.074219 78.359375 L 69.351562 78.199219 L 69.621094 78.019531 L 69.886719 77.828125 L 70.136719 77.625 L 70.1875 77.625 L 70.316406 78.664062 L 71.515625 78.664062 L 71.515625 73.320312 L 71.488281 72.699219 L 71.40625 72.125 L 71.265625 71.605469 L 71.0625 71.136719 L 70.800781 70.734375 L 70.476562 70.390625 L 70.085938 70.117188 L 69.628906 69.917969 L 69.105469 69.792969 L 68.507812 69.753906 L 68.09375 69.769531 L 67.691406 69.820312 L 67.304688 69.902344 L 66.929688 70.003906 L 66.574219 70.128906 L 66.234375 70.269531 L 65.910156 70.417969 L 65.613281 70.574219 L 65.335938 70.734375 L 65.082031 70.886719 L 65.660156 71.898438 L 65.871094 71.757812 L 66.097656 71.621094 L 66.335938 71.492188 L 66.582031 71.371094 L 66.84375 71.257812 L 67.109375 71.160156 L 67.390625 71.082031 L 67.675781 71.019531 L 67.96875 70.980469 L 68.265625 70.96875 L 68.664062 71 L 69 71.089844 L 69.28125 71.230469 L 69.511719 71.417969 L 69.695312 71.644531 L 69.839844 71.90625 L 69.941406 72.191406 L 70.007812 72.503906 L 70.046875 72.828125 L 70.058594 73.160156 L 69.011719 73.300781 L 68.082031 73.476562 L 67.273438 73.6875 L 66.582031 73.941406 L 66 74.234375 L 65.53125 74.570312 L 65.171875 74.953125 L 64.914062 75.386719 L 64.765625 75.871094 L 64.714844 76.410156 L 64.746094 76.859375 L 64.839844 77.265625 L 64.988281 77.632812 L 65.191406 77.953125 L 65.441406 78.230469 L 65.734375 78.457031 L 66.066406 78.636719 L 66.433594 78.765625 L 66.832031 78.847656 Z M 67.675781 77.703125 L 67.421875 77.691406 L 67.183594 77.65625 L 66.960938 77.589844 L 66.761719 77.5 L 66.582031 77.378906 L 66.429688 77.230469 L 66.308594 77.050781 L 66.214844 76.839844 L 66.160156 76.59375 L 66.136719 76.3125 L 66.167969 75.988281 L 66.265625 75.6875 L 66.433594 75.410156 L 66.675781 75.160156 L 67 74.929688 L 67.414062 74.722656 L 67.921875 74.539062 L 68.527344 74.375 L 69.238281 74.238281 L 70.058594 74.121094 L 70.058594 76.550781 L 69.808594 76.769531 L 69.566406 76.960938 L 69.328125 77.132812 L 69.097656 77.28125 L 68.867188 77.410156 L 68.636719 77.515625 L 68.402344 77.597656 L 68.167969 77.65625 L 67.925781 77.691406 Z M 67.675781 77.703125 "/>
<path style=" stroke:none;fill-rule:nonzero;fill:rgb(30.196078%,30.196078%,30.196078%);fill-opacity:1;" d="M 74.28125 82.328125 L 75.738281 82.328125 L 75.738281 79.382812 L 75.707031 77.863281 L 75.941406 78.046875 L 76.183594 78.214844 L 76.421875 78.363281 L 76.664062 78.496094 L 76.90625 78.609375 L 77.148438 78.703125 L 77.390625 78.777344 L 77.632812 78.828125 L 77.871094 78.863281 L 78.105469 78.871094 L 78.699219 78.820312 L 79.265625 78.671875 L 79.804688 78.421875 L 80.300781 78.078125 L 80.746094 77.644531 L 81.128906 77.121094 L 81.445312 76.507812 L 81.683594 75.816406 L 81.832031 75.039062 L 81.882812 74.183594 L 81.847656 73.410156 L 81.738281 72.699219 L 81.558594 72.050781 L 81.3125 71.46875 L 80.996094 70.964844 L 80.609375 70.542969 L 80.160156 70.203125 L 79.644531 69.957031 L 79.066406 69.804688 L 78.425781 69.753906 L 78.125 69.769531 L 77.828125 69.816406 L 77.53125 69.894531 L 77.242188 69.996094 L 76.957031 70.121094 L 76.679688 70.265625 L 76.410156 70.421875 L 76.152344 70.597656 L 75.898438 70.777344 L 75.660156 70.96875 L 75.609375 70.96875 L 75.484375 69.976562 L 74.28125 69.976562 Z M 77.867188 77.65625 L 77.6875 77.648438 L 77.5 77.625 L 77.300781 77.585938 L 77.09375 77.527344 L 76.878906 77.453125 L 76.660156 77.355469 L 76.433594 77.238281 L 76.207031 77.097656 L 75.972656 76.933594 L 75.738281 76.746094 L 75.738281 72.183594 L 75.992188 71.960938 L 76.238281 71.757812 L 76.476562 71.578125 L 76.714844 71.421875 L 76.949219 71.289062 L 77.179688 71.179688 L 77.40625 71.09375 L 77.628906 71.035156 L 77.851562 70.996094 L 78.074219 70.984375 L 78.539062 71.023438 L 78.945312 71.136719 L 79.296875 71.316406 L 79.59375 71.5625 L 79.835938 71.871094 L 80.03125 72.238281 L 80.179688 72.660156 L 80.28125 73.128906 L 80.34375 73.644531 L 80.363281 74.199219 L 80.332031 74.824219 L 80.242188 75.390625 L 80.09375 75.898438 L 79.898438 76.351562 L 79.65625 76.738281 L 79.367188 77.0625 L 79.039062 77.320312 L 78.679688 77.503906 L 78.285156 77.617188 Z M 77.867188 77.65625 "/>
</g>
</svg>
